<?xml version="1.0" encoding="UTF-8" standalone="no"?><!-- Generator: Gravit.io --><svg xmlns="http://www.w3.org/2000/svg" xmlns:xlink="http://www.w3.org/1999/xlink" style="isolation:isolate" viewBox="0 0 650 770" width="650pt" height="770pt"><defs><clipPath id="_clipPath_xP74oC9S08WlmWdMQACuEEF0zClNPv91"><rect width="650" height="770"/></clipPath></defs><g clip-path="url(#_clipPath_xP74oC9S08WlmWdMQACuEEF0zClNPv91)"><linearGradient id="_lgradient_5" x1="0.4501267601121445" y1="0.9327571143955274" x2="0.5240029423445626" y2="0.024478374619256615" gradientTransform="matrix(543.58,0,0,707.72,94.95,62.28)" gradientUnits="userSpaceOnUse"><stop offset="0%" stop-opacity="0.25" style="stop-color:rgb(128,128,128)"/><stop offset="54%" stop-opacity="0.12" style="stop-color:rgb(128,128,128)"/><stop offset="100%" stop-opacity="0.1" style="stop-color:rgb(128,128,128)"/></linearGradient><path d=" M 584.57 770 L 94.95 729.85 L 148.91 62.28 L 638.53 102.43 L 584.57 770 L 584.57 770 Z " fill="url(#_lgradient_5)"/><path d=" M 578.7 760.47 L 102.27 721.39 L 154.78 71.81 L 631.21 110.88 L 578.7 760.47 L 578.7 760.47 Z " fill="rgb(24,140,80)"/><linearGradient id="_lgradient_6" x1="0" y1="0.5" x2="0.18858126471293404" y2="1.4820575882295652" gradientTransform="matrix(607.86,0,0,751.09,-1,0)" gradientUnits="userSpaceOnUse"><stop offset="100%" stop-opacity="0.1" style="stop-color:rgb(128,128,128)"/><stop offset="100%" stop-opacity="0.1000562672873018" style="stop-color:rgb(128,128,128)"/><stop offset="100%" stop-opacity="0.12019749817842929" style="stop-color:rgb(128,128,128)"/></linearGradient><path d=" M 606.86 657.75 L 124.44 751.09 L -1 93.34 L 481.42 0 L 606.86 657.75 L 606.86 657.75 Z " fill="url(#_lgradient_6)"/><path d=" M 598.67 650.15 L 129.25 740.98 L 7.19 100.94 L 476.61 10.12 L 598.67 650.15 L 598.67 650.15 Z " fill="rgb(224,224,224)"/><linearGradient id="_lgradient_7" x1="0" y1="0.5" x2="6.123233995736766e-17" y2="-0.5" gradientTransform="matrix(491.24,0,0,669.78,57.31,49.68)" gradientUnits="userSpaceOnUse"><stop offset="0%" stop-opacity="0.1" style="stop-color:rgb(128,128,128)"/></linearGradient><rect x="57.31" y="49.68" width="491.24" height="669.78" transform="matrix(1,0,0,1,0,0)" fill="url(#_lgradient_7)"/><rect x="63.93" y="58.7" width="478.01" height="651.73" transform="matrix(1,0,0,1,0,0)" fill="rgb(255,255,255)"/><g><linearGradient id="_lgradient_8" x1="0.5318671712633876" y1="0.9916591191613087" x2="0.4809040691624489" y2="0.00867039441451567" gradientTransform="matrix(156.823,0,0,153.626,225.003,95.53)" gradientUnits="userSpaceOnUse"><stop offset="0.7976856641872615%" stop-opacity="1" style="stop-color:rgb(0,0,0)"/><stop offset="55.98718936836954%" stop-opacity="1" style="stop-color:rgb(0,0,0)"/><stop offset="100%" stop-opacity="1" style="stop-color:rgb(0,0,0)"/></linearGradient><path d=" M 225.01 171.15 C 225.53 214.76 261.06 249.69 304.36 249.15 C 347.66 248.61 382.36 212.84 381.82 169.22 C 381.474 136.011 360.395 106.564 329.07 95.53 L 329.31 115.87 C 329.533 130.595 317.804 142.726 303.08 143 L 303.08 143 C 288.381 143.083 276.375 131.278 276.21 116.58 L 275.97 96.24 C 244.93 108.021 224.568 137.953 225.01 171.15 Z " fill="url(#_lgradient_8)"/><path d=" M 381.85 162.84 C 381.85 119.22 346.75 83.84 303.44 83.84 C 260.13 83.84 225.03 119.2 225.03 162.84 C 224.972 196.055 245.696 225.759 276.89 237.17 L 276.89 216.83 C 276.879 202.131 288.742 190.184 303.44 190.09 L 303.44 190.09 C 318.138 190.184 330.001 202.131 329.99 216.83 L 329.99 237.18 C 361.187 225.768 381.912 196.059 381.85 162.84 L 381.85 162.84 Z " fill="rgb(24,140,80)"/><ellipse vector-effect="non-scaling-stroke" cx="303.49000000000063" cy="151.98" rx="30.139999999999986" ry="30.359999999999992" fill="rgb(255,255,255)" stroke-width="1" stroke="rgb(255,255,255)" stroke-linejoin="miter" stroke-linecap="butt" stroke-miterlimit="10"/><mask id="_mask_t7MNuupzBTpmQtd4IJJcCwyncWnXWGsF" x="-200%" y="-200%" width="400%" height="400%"><rect x="-200%" y="-200%" width="400%" height="400%" style="fill:white;"/><path d=" M 303.44 190.09 L 303.44 190.09 C 288.742 190.184 276.879 202.131 276.89 216.83 L 276.89 237.18 C 294.048 243.376 312.832 243.376 329.99 237.18 L 329.99 216.83 C 330.001 202.131 318.138 190.184 303.44 190.09 L 303.44 190.09 Z " fill="black" stroke="none"/></mask><path d=" M 303.44 190.09 L 303.44 190.09 C 288.742 190.184 276.879 202.131 276.89 216.83 L 276.89 237.18 C 294.048 243.376 312.832 243.376 329.99 237.18 L 329.99 216.83 C 330.001 202.131 318.138 190.184 303.44 190.09 L 303.44 190.09 Z " fill="rgb(255,255,255)" mask="url(#_mask_t7MNuupzBTpmQtd4IJJcCwyncWnXWGsF)" vector-effect="non-scaling-stroke" stroke-width="2" stroke="rgb(255,255,255)" stroke-linejoin="miter" stroke-linecap="butt" stroke-miterlimit="10"/><path d=" M 303.44 190.09 L 303.44 190.09 C 288.742 190.184 276.879 202.131 276.89 216.83 L 276.89 237.18 C 294.048 243.376 312.832 243.376 329.99 237.18 L 329.99 216.83 C 330.001 202.131 318.138 190.184 303.44 190.09 L 303.44 190.09 Z " fill="rgb(255,255,255)"/><mask id="_mask_d8au6kkyybrnQfKjtacVOjMZK517JG2m" x="-200%" y="-200%" width="400%" height="400%"><rect x="-200%" y="-200%" width="400%" height="400%" style="fill:white;"/><path d=" M 273.09 150.3 C 270.67 145.579 269.561 140.295 269.88 135 C 270.223 129.691 272.619 124.724 276.56 121.15 C 280.95 117.38 286.9 116.05 292.65 115.59 C 298.4 115.13 304.23 115.41 309.89 114.28 C 319.356 112.339 327.644 106.674 332.89 98.56 C 333.25 103.01 333.61 107.56 332.76 111.92 C 331.91 116.28 329.67 120.62 325.89 122.92 C 330.47 120.79 329.97 125.79 328.98 128.78 C 331.25 131.54 336.76 132 337.04 135.57 C 337.32 139.14 337.27 142.83 335.89 146.12 C 334.51 149.41 335.99 155.22 332.45 155.47" fill="black" stroke="none"/></mask><path d=" M 273.09 150.3 C 270.67 145.579 269.561 140.295 269.88 135 C 270.223 129.691 272.619 124.724 276.56 121.15 C 280.95 117.38 286.9 116.05 292.65 115.59 C 298.4 115.13 304.23 115.41 309.89 114.28 C 319.356 112.339 327.644 106.674 332.89 98.56 C 333.25 103.01 333.61 107.56 332.76 111.92 C 331.91 116.28 329.67 120.62 325.89 122.92 C 330.47 120.79 329.97 125.79 328.98 128.78 C 331.25 131.54 336.76 132 337.04 135.57 C 337.32 139.14 337.27 142.83 335.89 146.12 C 334.51 149.41 335.99 155.22 332.45 155.47" fill="rgb(255,255,255)" mask="url(#_mask_d8au6kkyybrnQfKjtacVOjMZK517JG2m)" vector-effect="non-scaling-stroke" stroke-width="2" stroke="rgb(255,255,255)" stroke-linejoin="miter" stroke-linecap="butt" stroke-miterlimit="10"/><path d=" M 273.09 150.3 C 270.67 145.579 269.561 140.295 269.88 135 C 270.223 129.691 272.619 124.724 276.56 121.15 C 280.95 117.38 286.9 116.05 292.65 115.59 C 298.4 115.13 304.23 115.41 309.89 114.28 C 319.356 112.339 327.644 106.674 332.89 98.56 C 333.25 103.01 333.61 107.56 332.76 111.92 C 331.91 116.28 329.67 120.62 325.89 122.92 C 330.47 120.79 329.97 125.79 328.98 128.78 C 331.25 131.54 336.76 132 337.04 135.57 C 337.32 139.14 337.27 142.83 335.89 146.12 C 334.51 149.41 335.99 155.22 332.45 155.47" fill="rgb(255,255,255)"/><path d=" M 327.57 122.26 C 327.57 122.26 348.57 124.11 333.63 155.55" fill="rgb(255,255,255)"/></g><rect x="110.595" y="303.344" width="224.663" height="16.527" transform="matrix(1,0,0,1,0,0)" fill="rgb(89,174,133)"/><rect x="110.595" y="326.479" width="378.725" height="16.527" transform="matrix(1,0,0,1,0,0)" fill="rgb(224,224,224)"/><rect x="110.595" y="349.599" width="378.725" height="16.527" transform="matrix(1,0,0,1,0,0)" fill="rgb(224,224,224)"/><rect x="110.595" y="436.664" width="224.663" height="16.527" transform="matrix(1,0,0,1,0,0)" fill="rgb(89,174,133)"/><rect x="110.595" y="459.784" width="378.725" height="16.527" transform="matrix(1,0,0,1,0,0)" fill="rgb(224,224,224)"/><rect x="110.595" y="482.919" width="378.725" height="16.527" transform="matrix(1,0,0,1,0,0)" fill="rgb(224,224,224)"/><rect x="110.595" y="573.267" width="224.663" height="16.527" transform="matrix(1,0,0,1,0,0)" fill="rgb(108,99,255)"/><rect x="110.595" y="596.402" width="378.725" height="16.527" transform="matrix(1,0,0,1,0,0)" fill="rgb(224,224,224)"/><rect x="110.595" y="619.537" width="378.725" height="16.527" transform="matrix(1,0,0,1,0,0)" fill="rgb(224,224,224)"/></g></svg>