<?xml version="1.0" encoding="iso-8859-1"?>
<!-- Generator: Adobe Illustrator 19.0.0, SVG Export Plug-In . SVG Version: 6.00 Build 0)  -->
<svg xmlns="http://www.w3.org/2000/svg" xmlns:xlink="http://www.w3.org/1999/xlink" version="1.1" id="Layer_1" x="0px" y="0px" viewBox="0 0 512 512" style="enable-background:new 0 0 512 512;" xml:space="preserve" width="512px" height="512px">
<g>
	<g>
		<path d="M433.552,474.537H319.092c-56.497,0-102.027-46.231-102.027-102.73v-4.665h53.048c10.345,0,18.132-8.061,18.132-18.406    V259.37c29.971-20.63,48.702-54.399,48.702-92.486v-66.189c0-10.345-8.809-18.276-19.154-18.276h-39.539V18.732    C278.256,8.387,269.869,0,259.524,0c-10.345,0-18.732,8.387-18.732,18.732v63.688h-86.166V18.732    C154.626,8.387,146.24,0,135.895,0c-10.345,0-18.732,8.387-18.732,18.732v63.688h-39.16c-10.345,0-18.285,7.931-18.285,18.276    v66.189c0,38.088,18.732,71.856,47.454,92.486v89.365c0,10.345,8.166,18.406,18.511,18.406h53.919v4.665    c0,77.155,62.335,140.193,139.49,140.193H433.55c10.345,0,18.732-8.387,18.732-18.732    C452.282,482.923,443.897,474.537,433.552,474.537z M97.181,166.885v-47.002h0.001h202.302v47.002    c0,42.004-34.594,76.628-76.598,76.628H172.91C130.906,243.512,97.181,208.887,97.181,166.885z M144.637,329.678v-52.773    c8.741,2.361,18.436,4.071,28.274,4.071h49.977c9.837,0,19.154-1.711,27.895-4.071v52.773H144.637z" fill="#403EA8"/>
	</g>
</g>
<g>
</g>
<g>
</g>
<g>
</g>
<g>
</g>
<g>
</g>
<g>
</g>
<g>
</g>
<g>
</g>
<g>
</g>
<g>
</g>
<g>
</g>
<g>
</g>
<g>
</g>
<g>
</g>
<g>
</g>
</svg>
