<?xml version="1.0" encoding="UTF-8" standalone="no"?><!-- Generator: Gravit.io --><svg xmlns="http://www.w3.org/2000/svg" xmlns:xlink="http://www.w3.org/1999/xlink" style="isolation:isolate" viewBox="0 0 878.5 701.26" width="878.5pt" height="701.26pt"><defs><clipPath id="_clipPath_kd33PWjKZs3fdnpYWMn1gRq5yXxWr6ns"><rect width="878.5" height="701.26"/></clipPath></defs><g clip-path="url(#_clipPath_kd33PWjKZs3fdnpYWMn1gRq5yXxWr6ns)"><rect x="43" y="97.5" width="186" height="151" transform="matrix(1,0,0,1,0,0)" fill="rgb(64,62,168)"/><rect x="43" y="294.5" width="515" height="16" transform="matrix(1,0,0,1,0,0)" fill="rgb(242,242,242)"/><rect x="30" y="88.5" width="186" height="151" transform="matrix(1,0,0,1,0,0)" fill="none" vector-effect="non-scaling-stroke" stroke-width="1" stroke="rgb(63,61,86)" stroke-linejoin="miter" stroke-linecap="butt" stroke-miterlimit="2"/><rect x="303" y="139" width="180" height="16" transform="matrix(1,0,0,1,0,0)" fill="rgb(242,242,242)"/><rect x="303" y="182" width="255" height="16" transform="matrix(1,0,0,1,0,0)" fill="rgb(242,242,242)"/><rect x="290" y="130" width="180" height="16" transform="matrix(1,0,0,1,0,0)" fill="none" vector-effect="non-scaling-stroke" stroke-width="1" stroke="rgb(63,61,86)" stroke-linejoin="miter" stroke-linecap="butt" stroke-miterlimit="2"/><rect x="290" y="173" width="255" height="16" transform="matrix(1,0,0,1,0,0)" fill="none" vector-effect="non-scaling-stroke" stroke-width="1" stroke="rgb(63,61,86)" stroke-linejoin="miter" stroke-linecap="butt" stroke-miterlimit="2"/><rect x="30" y="285.5" width="515" height="16" transform="matrix(1,0,0,1,0,0)" fill="none" vector-effect="non-scaling-stroke" stroke-width="1" stroke="rgb(63,61,86)" stroke-linejoin="miter" stroke-linecap="butt" stroke-miterlimit="2"/><rect x="43" y="344.5" width="515" height="16" transform="matrix(1,0,0,1,0,0)" fill="rgb(242,242,242)"/><rect x="30" y="335.5" width="515" height="16" transform="matrix(1,0,0,1,0,0)" fill="none" vector-effect="non-scaling-stroke" stroke-width="1" stroke="rgb(63,61,86)" stroke-linejoin="miter" stroke-linecap="butt" stroke-miterlimit="2"/><rect x="43" y="394.5" width="515" height="16" transform="matrix(1,0,0,1,0,0)" fill="rgb(242,242,242)"/><rect x="30" y="385.5" width="515" height="16" transform="matrix(1,0,0,1,0,0)" fill="none" vector-effect="non-scaling-stroke" stroke-width="1" stroke="rgb(63,61,86)" stroke-linejoin="miter" stroke-linecap="butt" stroke-miterlimit="2"/><rect x="43" y="444.5" width="515" height="16" transform="matrix(1,0,0,1,0,0)" fill="rgb(242,242,242)"/><rect x="30" y="435.5" width="515" height="16" transform="matrix(1,0,0,1,0,0)" fill="none" vector-effect="non-scaling-stroke" stroke-width="1" stroke="rgb(63,61,86)" stroke-linejoin="miter" stroke-linecap="butt" stroke-miterlimit="2"/><rect x="43" y="494.5" width="515" height="16" transform="matrix(1,0,0,1,0,0)" fill="rgb(242,242,242)"/><rect x="30" y="485.5" width="515" height="16" transform="matrix(1,0,0,1,0,0)" fill="none" vector-effect="non-scaling-stroke" stroke-width="1" stroke="rgb(63,61,86)" stroke-linejoin="miter" stroke-linecap="butt" stroke-miterlimit="2"/><rect x="43" y="544.5" width="515" height="16" transform="matrix(1,0,0,1,0,0)" fill="rgb(242,242,242)"/><rect x="30" y="535.5" width="515" height="16" transform="matrix(1,0,0,1,0,0)" fill="none" vector-effect="non-scaling-stroke" stroke-width="1" stroke="rgb(63,61,86)" stroke-linejoin="miter" stroke-linecap="butt" stroke-miterlimit="2"/><rect x="0.5" y="0.5" width="587" height="648" transform="matrix(1,0,0,1,0,0)" fill="none" vector-effect="non-scaling-stroke" stroke-width="1" stroke="rgb(63,61,86)" stroke-linejoin="miter" stroke-linecap="butt" stroke-miterlimit="2"/><path d=" M 811.858 578.749 C 819.993 581.706 829.109 579.203 834.592 572.505 C 840.076 565.807 840.731 556.376 836.225 548.985 C 831.72 541.594 823.038 537.854 814.572 539.659 L 815.082 550.15 L 810.119 541.159 C 805.247 543.448 801.484 547.577 799.656 552.639 C 799.007 554.412 798.612 556.269 798.483 558.153 C 797.84 567.235 803.299 575.642 811.858 578.749 Z " fill="rgb(87,184,98)"/><mask id="_mask_pgmBu67MtmQLn5JXMQwe4Np7EQVz62uN" x="-200%" y="-200%" width="400%" height="400%"><rect x="-200%" y="-200%" width="400%" height="400%" style="fill:white;"/><path d=" M 836.416 700.424 C 834.664 691.502 842.256 683.592 849.756 678.451 C 857.255 673.31 866.017 668.259 868.576 659.534 C 872.254 646.994 861.3 635.511 852.774 625.608 C 846.449 618.259 841.017 610.186 836.592 601.558 C 834.668 598.169 833.358 594.467 832.722 590.623 C 832.049 585.065 833.835 579.534 835.634 574.232 Q 844.623 547.74 854.857 521.691" fill="black" stroke="none"/></mask><path d=" M 836.416 700.424 C 834.664 691.502 842.256 683.592 849.756 678.451 C 857.255 673.31 866.017 668.259 868.576 659.534 C 872.254 646.994 861.3 635.511 852.774 625.608 C 846.449 618.259 841.017 610.186 836.592 601.558 C 834.668 598.169 833.358 594.467 832.722 590.623 C 832.049 585.065 833.835 579.534 835.634 574.232 Q 844.623 547.74 854.857 521.691" fill="none" mask="url(#_mask_pgmBu67MtmQLn5JXMQwe4Np7EQVz62uN)" vector-effect="non-scaling-stroke" stroke-width="2" stroke="rgb(63,61,86)" stroke-linejoin="miter" stroke-linecap="butt" stroke-miterlimit="10"/><path d=" M 836.416 700.424 C 834.664 691.502 842.256 683.592 849.756 678.451 C 857.255 673.31 866.017 668.259 868.576 659.534 C 872.254 646.994 861.3 635.511 852.774 625.608 C 846.449 618.259 841.017 610.186 836.592 601.558 C 834.668 598.169 833.358 594.467 832.722 590.623 C 832.049 585.065 833.835 579.534 835.634 574.232 Q 844.623 547.74 854.857 521.691" fill="none"/><mask id="_mask_hVSwHCWwqVWXEpuK6AC8HBPxYt18nHtt" x="-200%" y="-200%" width="400%" height="400%"><rect x="-200%" y="-200%" width="400%" height="400%" style="fill:white;"/><path d=" M 812.697 576.048 C 820.832 579.005 829.948 576.502 835.432 569.804 C 840.915 563.106 841.57 553.675 837.065 546.284 C 832.56 538.893 823.877 535.153 815.411 536.958 L 815.921 547.449 L 810.958 538.458 C 806.087 540.747 802.323 544.876 800.495 549.938 C 799.846 551.712 799.451 553.568 799.323 555.452 C 798.679 564.534 804.138 572.941 812.697 576.048 L 812.697 576.048 Z " fill="black" stroke="none"/></mask><path d=" M 812.697 576.048 C 820.832 579.005 829.948 576.502 835.432 569.804 C 840.915 563.106 841.57 553.675 837.065 546.284 C 832.56 538.893 823.877 535.153 815.411 536.958 L 815.921 547.449 L 810.958 538.458 C 806.087 540.747 802.323 544.876 800.495 549.938 C 799.846 551.712 799.451 553.568 799.323 555.452 C 798.679 564.534 804.138 572.941 812.697 576.048 L 812.697 576.048 Z " fill="none" mask="url(#_mask_hVSwHCWwqVWXEpuK6AC8HBPxYt18nHtt)" vector-effect="non-scaling-stroke" stroke-width="2" stroke="rgb(63,61,86)" stroke-linejoin="miter" stroke-linecap="butt" stroke-miterlimit="10"/><path d=" M 812.697 576.048 C 820.832 579.005 829.948 576.502 835.432 569.804 C 840.915 563.106 841.57 553.675 837.065 546.284 C 832.56 538.893 823.877 535.153 815.411 536.958 L 815.921 547.449 L 810.958 538.458 C 806.087 540.747 802.323 544.876 800.495 549.938 C 799.846 551.712 799.451 553.568 799.323 555.452 C 798.679 564.534 804.138 572.941 812.697 576.048 L 812.697 576.048 Z " fill="none"/><path d=" M 833.925 518.068 C 836.291 511.54 841.821 506.668 848.595 505.144 L 850.274 515.117 L 853.385 504.642 C 862.249 504.774 870.011 510.62 872.585 519.103 C 875.158 527.586 871.953 536.76 864.656 541.794 C 857.36 546.829 847.645 546.569 840.628 541.151 C 833.611 535.734 830.901 526.402 833.925 518.068 L 833.925 518.068 Z " fill="rgb(87,184,98)"/><mask id="_mask_ismjtLiypB3FeOuwtg6DVhPbLiEzrTZw" x="-200%" y="-200%" width="400%" height="400%"><rect x="-200%" y="-200%" width="400%" height="400%" style="fill:white;"/><path d=" M 835.044 514.467 C 837.41 507.939 842.94 503.067 849.715 501.542 L 851.393 511.516 L 854.504 501.041 C 863.368 501.173 871.13 507.019 873.704 515.502 C 876.278 523.985 873.072 533.159 865.775 538.193 C 858.479 543.227 848.765 542.967 841.748 537.55 C 834.731 532.133 832.021 522.8 835.044 514.467 L 835.044 514.467 Z " fill="black" stroke="none"/></mask><path d=" M 835.044 514.467 C 837.41 507.939 842.94 503.067 849.715 501.542 L 851.393 511.516 L 854.504 501.041 C 863.368 501.173 871.13 507.019 873.704 515.502 C 876.278 523.985 873.072 533.159 865.775 538.193 C 858.479 543.227 848.765 542.967 841.748 537.55 C 834.731 532.133 832.021 522.8 835.044 514.467 L 835.044 514.467 Z " fill="none" mask="url(#_mask_ismjtLiypB3FeOuwtg6DVhPbLiEzrTZw)" vector-effect="non-scaling-stroke" stroke-width="2" stroke="rgb(63,61,86)" stroke-linejoin="miter" stroke-linecap="butt" stroke-miterlimit="10"/><path d=" M 835.044 514.467 C 837.41 507.939 842.94 503.067 849.715 501.542 L 851.393 511.516 L 854.504 501.041 C 863.368 501.173 871.13 507.019 873.704 515.502 C 876.278 523.985 873.072 533.159 865.775 538.193 C 858.479 543.227 848.765 542.967 841.748 537.55 C 834.731 532.133 832.021 522.8 835.044 514.467 L 835.044 514.467 Z " fill="none"/><path d=" M 849.196 625.81 C 858.936 629.343 869.777 625.006 874.392 615.73 C 879.007 606.453 875.928 595.19 867.234 589.553 L 864.844 597.602 L 863.148 587.511 C 863.132 587.504 863.114 587.497 863.097 587.492 C 856.25 585.003 848.597 586.358 843.021 591.045 C 837.444 595.733 834.794 603.039 836.068 610.211 C 837.342 617.383 842.347 623.33 849.196 625.81 L 849.196 625.81 Z " fill="rgb(87,184,98)"/><mask id="_mask_0bYX7kREmcRIuK7ZojNlJ9h3dKCPGGA6" x="-200%" y="-200%" width="400%" height="400%"><rect x="-200%" y="-200%" width="400%" height="400%" style="fill:white;"/><path d=" M 850.166 622.163 C 859.906 625.696 870.747 621.358 875.362 612.082 C 879.977 602.805 876.897 591.543 868.204 585.905 L 865.814 593.955 L 864.118 583.864 C 864.101 583.856 864.084 583.849 864.066 583.844 C 857.22 581.357 849.568 582.713 843.993 587.399 C 838.417 592.086 835.767 599.392 837.041 606.564 C 838.314 613.735 843.318 619.682 850.166 622.163 L 850.166 622.163 Z " fill="black" stroke="none"/></mask><path d=" M 850.166 622.163 C 859.906 625.696 870.747 621.358 875.362 612.082 C 879.977 602.805 876.897 591.543 868.204 585.905 L 865.814 593.955 L 864.118 583.864 C 864.101 583.856 864.084 583.849 864.066 583.844 C 857.22 581.357 849.568 582.713 843.993 587.399 C 838.417 592.086 835.767 599.392 837.041 606.564 C 838.314 613.735 843.318 619.682 850.166 622.163 L 850.166 622.163 Z " fill="none" mask="url(#_mask_0bYX7kREmcRIuK7ZojNlJ9h3dKCPGGA6)" vector-effect="non-scaling-stroke" stroke-width="2" stroke="rgb(63,61,86)" stroke-linejoin="miter" stroke-linecap="butt" stroke-miterlimit="10"/><path d=" M 850.166 622.163 C 859.906 625.696 870.747 621.358 875.362 612.082 C 879.977 602.805 876.897 591.543 868.204 585.905 L 865.814 593.955 L 864.118 583.864 C 864.101 583.856 864.084 583.849 864.066 583.844 C 857.22 581.357 849.568 582.713 843.993 587.399 C 838.417 592.086 835.767 599.392 837.041 606.564 C 838.314 613.735 843.318 619.682 850.166 622.163 L 850.166 622.163 Z " fill="none"/><path d=" M 827.977 659.658 C 829.644 669.145 837.729 676.168 847.355 676.492 C 856.982 676.816 865.52 670.353 867.822 661 C 870.124 651.647 865.56 641.96 856.882 637.779 C 848.204 633.599 837.784 636.068 831.905 643.698 L 840.986 657.366 L 828.578 650.111 C 827.616 653.2 827.41 656.474 827.977 659.658 Z " fill="rgb(87,184,98)"/><mask id="_mask_ycAB4YHqiFkUppnyxAxqmnOqOrmbnG9d" x="-200%" y="-200%" width="400%" height="400%"><rect x="-200%" y="-200%" width="400%" height="400%" style="fill:white;"/><path d=" M 828.817 656.957 C 830.484 666.444 838.568 673.467 848.195 673.791 C 857.822 674.115 866.36 667.652 868.662 658.299 C 870.963 648.946 866.399 639.259 857.721 635.079 C 849.044 630.898 838.624 633.367 832.744 640.997 L 841.825 654.665 L 829.417 647.41 C 828.455 650.499 828.249 653.773 828.817 656.957 Z " fill="black" stroke="none"/></mask><path d=" M 828.817 656.957 C 830.484 666.444 838.568 673.467 848.195 673.791 C 857.822 674.115 866.36 667.652 868.662 658.299 C 870.963 648.946 866.399 639.259 857.721 635.079 C 849.044 630.898 838.624 633.367 832.744 640.997 L 841.825 654.665 L 829.417 647.41 C 828.455 650.499 828.249 653.773 828.817 656.957 Z " fill="none" mask="url(#_mask_ycAB4YHqiFkUppnyxAxqmnOqOrmbnG9d)" vector-effect="non-scaling-stroke" stroke-width="2" stroke="rgb(63,61,86)" stroke-linejoin="miter" stroke-linecap="butt" stroke-miterlimit="10"/><path d=" M 828.817 656.957 C 830.484 666.444 838.568 673.467 848.195 673.791 C 857.822 674.115 866.36 667.652 868.662 658.299 C 870.963 648.946 866.399 639.259 857.721 635.079 C 849.044 630.898 838.624 633.367 832.744 640.997 L 841.825 654.665 L 829.417 647.41 C 828.455 650.499 828.249 653.773 828.817 656.957 Z " fill="none"/><path d=" M 588 235 C 588 235 600.5 261.5 598.5 269.5 C 597.329 274.363 597.859 279.48 600 284 L 623 283 L 644.5 262.5 C 644.5 262.5 612 240 614 229 C 616 218 588 235 588 235 Z " fill="rgb(160,97,106)"/><path d=" M 646 277 L 656 339 C 656 339 656 395 653 396 C 653 396 637 396 637 396 L 637 333 L 641 278 L 646 277 Z " fill="rgb(64,62,168)"/><g opacity="0.1"><path d=" M 646 277 L 656 339 C 656 339 656 395 653 396 C 653 396 637 396 637 396 L 637 333 L 641 278 L 646 277 Z " fill="rgb(0,0,0)"/></g><path d=" M 706 641 L 714 672 L 726 663 L 737 638 L 723 621 L 706 641 L 706 641 Z " fill="rgb(160,97,106)"/><path d=" M 737 634 C 737 634 724 644 724 654 C 724 654 717 665 709 664 L 709 685 C 709 685 684 698 703 701 C 703 701 736 680 736 680 C 736 680 754 651 751 647 C 748 643 737 634 737 634 Z " fill="rgb(63,61,86)"/><path d=" M 645.926 391.273 C 645.926 391.273 665 412 656 444 C 656 444 646 516 678 543 C 710 570 731 629 731 629 L 707 651 C 707 651 681 592 654 569 C 654 569 624 520 624 520 L 624 429 L 619 391 L 645.926 391.273 Z " fill="rgb(63,61,86)"/><g opacity="0.1"><path d=" M 645.926 391.273 C 645.926 391.273 665 412 656 444 C 656 444 646 516 678 543 C 710 570 731 629 731 629 L 707 651 C 707 651 681 592 654 569 C 654 569 624 520 624 520 L 624 429 L 619 391 L 645.926 391.273 Z " fill="rgb(0,0,0)"/></g><path d=" M 621 664 L 611 675 L 615 684 L 627 688 L 648 680 L 645 668 L 621 664 L 621 664 Z " fill="rgb(160,97,106)"/><path d=" M 651 675 C 651 675 627 687 621 682 C 617.496 679.198 615.326 675.057 615.017 670.581 C 615.017 670.581 603 672 595 677 C 595 677 581 688 571 688 C 571 688 565 700 584 701 C 584 701 651 700 651 695 L 651 675 Z " fill="rgb(63,61,86)"/><path d=" M 583 404 C 583 404 570 462 593 528 C 593 528 604 565 609 576 C 614 587 619 665 617 668 C 617 668 633 681 647 672 C 647 672 646 626 648 622 C 650 618 652 583 640 554 C 628 525 638 455 638 455 C 638 455 662 419 644 398 L 583 404 Z " fill="rgb(63,61,86)"/><circle vector-effect="non-scaling-stroke" cx="598" cy="214" r="28" fill="rgb(160,97,106)"/><path d=" M 650 397 C 650 397 642 409 636 403 C 631.77 398.77 604.69 407.96 589.07 413.75 C 582.53 416.17 578 418 578 418 C 578 418 577.57 404.14 576.3 386.59 C 574.84 366.45 572.28 341.43 568 327 C 560 300 580 289 580 289 C 580 289 597 269 596 266 C 595 263 641 248 641 248 C 646 249 650 294 650 294 C 650 294 641 330 636 352 C 631 374 650 397 650 397 Z " fill="rgb(64,62,168)"/><path d=" M 564 398 C 564 398 542 420 531 426 C 531 426 514 452 523 456 C 523 456 552 434 552 434 L 581 410 L 564 398 Z " fill="rgb(160,97,106)"/><path d=" M 568.157 197.278 C 565.599 197.506 564.137 200.727 564.963 203.159 C 565.788 205.59 568.161 207.181 570.585 208.031 C 573.008 208.881 575.599 209.172 578.025 210.015 C 580.438 210.897 582.676 212.197 584.639 213.855 C 591.551 219.516 595.644 228.141 596.946 236.98 C 598.249 245.819 596.951 254.876 594.494 263.466 C 593.192 268.016 591.067 273.003 586.619 274.62 C 591.481 273.419 596.232 271.808 600.821 269.804 C 604.185 268.22 607.341 266.215 610.741 264.71 C 615.773 262.657 621.053 261.272 626.445 260.592 C 630.231 260.002 634.233 259.553 637.788 260.981 C 639.968 261.995 641.975 263.348 643.732 264.989 L 655.167 274.597 Q 655.466 268.331 655.562 262.058 C 655.617 258.423 655.603 254.683 654.264 251.304 C 652.941 247.967 650.43 245.247 648.749 242.075 C 644.592 234.228 645.946 224.775 646.024 215.895 C 646.104 206.7 644.624 197.33 640.366 189.18 C 636.109 181.03 628.841 174.205 619.976 171.765 C 608.027 168.476 595.431 173.371 584.447 179.112 C 581.863 180.342 579.454 181.91 577.283 183.776 C 574.976 186.134 573.015 188.807 571.459 191.717 L 566.021 200.829" fill="rgb(63,61,86)"/><g opacity="0.1"><path d=" M 639 304 C 639 304 620 376 618 381 C 616.56 384.59 599.62 403.69 589.07 413.75 C 582.53 416.17 578 418 578 418 C 578 418 577.57 404.14 576.3 386.59 C 584.44 377.56 593 369 593 369 C 593 369 602 314 601 293 C 600 272 621 267 621 267 C 645 270 639 304 639 304 Z " fill="rgb(0,0,0)"/></g><path d=" M 618 263 C 618 263 597 268 598 289 C 598 289 590 365 590 365 C 590 365 556 399 559 403 C 559 403 574.853 414.864 577.927 415.932 C 581 417 613 382 615 377 C 617 372 636 300 636 300 C 636 300 642 266 618 263 Z " fill="rgb(64,62,168)"/><mask id="_mask_vxYDIWx7sbEMh5lrqrJ5BQLqqSPoPtcz" x="-200%" y="-200%" width="400%" height="400%"><rect x="-200%" y="-200%" width="400%" height="400%" style="fill:white;"/><line x1="509.5" y1="700.5" x2="878.5" y2="700.5" fill="black" stroke="none"/></mask><line x1="509.5" y1="700.5" x2="878.5" y2="700.5" mask="url(#_mask_vxYDIWx7sbEMh5lrqrJ5BQLqqSPoPtcz)" vector-effect="non-scaling-stroke" stroke-width="2" stroke="rgb(63,61,86)" stroke-linejoin="miter" stroke-linecap="butt" stroke-miterlimit="10"/></g></svg>