<svg height="512pt" viewBox="0 0 512 512" width="512pt" xmlns="http://www.w3.org/2000/svg"><path d="m256 256v256h240.363281c8.636719 0 15.636719-7 15.636719-15.636719v-240.363281zm0 0" fill="#4558ff"/><path d="m0 256v240.363281c0 8.636719 7 15.636719 15.636719 15.636719h240.363281v-256zm0 0" fill="#82e0aa"/><path d="m512 256v-240.363281c0-8.636719-7-15.636719-15.636719-15.636719h-240.363281v256zm0 0" fill="#f99c18"/><path d="m256 0h-240.363281c-8.636719 0-15.636719 7-15.636719 15.636719v240.363281h256zm0 0" fill="#f56d6d"/><g fill="#fff"><path d="m366.992188 338.476562c0 9.386719 7.621093 17.011719 17 17.011719 9.398437 0 17.007812-7.625 17.007812-17.011719 0-9.40625-7.609375-17.023437-17.007812-17.023437-9.378907 0-17 7.613281-17 17.023437zm0 0"/><path d="m383.992188 412.515625c-9.378907 0-17 7.625-17 17.019531 0 9.386719 7.621093 17.011719 17 17.011719 9.398437 0 17.007812-7.625 17.007812-17.011719 0-9.398437-7.609375-17.019531-17.007812-17.019531zm0 0"/><path d="m426.789062 368.363281h-85.578124c-8.636719 0-15.636719 7-15.636719 15.636719s7 15.636719 15.636719 15.636719h85.578124c8.636719 0 15.636719-7 15.636719-15.636719s-7-15.636719-15.636719-15.636719zm0 0"/><path d="m340.929688 143.636719h86.140624c8.636719 0 15.636719-7 15.636719-15.636719s-7-15.636719-15.636719-15.636719h-86.140624c-8.636719 0-15.636719 7-15.636719 15.636719s7 15.636719 15.636719 15.636719zm0 0"/><path d="m171.070312 112.359375h-27.4375v-27.425781c0-8.636719-7-15.636719-15.636718-15.636719-8.636719 0-15.636719 7-15.636719 15.636719v27.425781h-27.425781c-8.636719 0-15.636719 7.003906-15.636719 15.636719 0 8.636718 7 15.636718 15.636719 15.636718h27.425781v27.4375c0 8.632813 7 15.636719 15.636719 15.636719 8.636718 0 15.636718-7.003906 15.636718-15.636719v-27.4375h27.4375c8.632813 0 15.636719-7 15.636719-15.636718 0-8.632813-7.003906-15.636719-15.636719-15.636719zm0 0"/><path d="m150.113281 383.996094 19.394531-19.390625c6.105469-6.105469 6.105469-16.007813 0-22.113281-6.105468-6.105469-16.007812-6.105469-22.113281 0l-19.394531 19.394531-19.398438-19.398438c-6.109374-6.105469-16.007812-6.105469-22.117187.003907-6.105469 6.105468-6.105469 16.007812.003906 22.113281l19.398438 19.394531-19.398438 19.398438c-6.109375 6.105468-6.109375 16.003906 0 22.113281 3.050781 3.050781 7.054688 4.578125 11.054688 4.578125s8.003906-1.527344 11.058593-4.578125l19.398438-19.398438 19.402344 19.398438c3.050781 3.054687 7.054687 4.578125 11.054687 4.578125 4.003907 0 8.003907-1.527344 11.058594-4.582032 6.105469-6.105468 6.105469-16.003906 0-22.113281zm0 0"/></g></svg>