<?xml version="1.0" encoding="iso-8859-1"?>
<!-- Generator: Adobe Illustrator 19.0.0, SVG Export Plug-In . SVG Version: 6.00 Build 0)  -->
<svg version="1.1" id="Capa_1" xmlns="http://www.w3.org/2000/svg" xmlns:xlink="http://www.w3.org/1999/xlink" x="0px" y="0px"
	 viewBox="0 0 480 480" style="enable-background:new 0 0 480 480;" xml:space="preserve">
<path style="fill:#5EA7A4;" d="M267.324,365.368c-3.464-3.816-5.008-5.368-8.568-5.368c-3.552,0-5.104,1.552-8.56,5.368
	c-4.064,4.488-9.632,10.632-20.424,10.632s-16.36-6.144-20.424-10.632c-0.216-0.232-0.368-0.384-0.568-0.608V464h11.96
	l65.056-88.136C276.308,375.152,271.124,369.568,267.324,365.368z"/>
<path style="fill:#F8CF26;" d="M208.78,345.352c5.808,2.048,9.52,6.072,12.424,9.28c3.464,3.816,5.008,5.368,8.568,5.368
	s5.104-1.552,8.568-5.368c4.056-4.488,9.624-10.632,20.416-10.632c10.8,0,16.36,6.144,20.424,10.632
	c3.464,3.816,5.008,5.368,8.568,5.368c2.152,0,3.584-0.656,5.136-1.952L217.852,228c-0.704-1.216-1.072-2.6-1.072-4v-16h-27.864
	l19.216,44.84c0.432,1,0.648,2.072,0.648,3.16V345.352z"/>
<path style="fill:#E0634B;" d="M40.78,464h152V257.64l-23.352-54.488c-1.064-2.472-0.808-5.312,0.672-7.552
	c1.48-2.248,3.992-3.6,6.68-3.6h40v-48h-80v80c0,1.4-0.368,2.784-1.072,4L16.78,434.144V440C16.78,453.232,27.548,464,40.78,464z
	 M160.78,400h16v16h-16V400z M160.78,432h16v16h-16V432z M128.78,400h16v16h-16V400z M128.78,432h16v16h-16V432z M96.78,400h16v16
	h-16V400z M96.78,432h16v16h-16V432z M64.78,432h16v16h-16V432z"/>
<path style="fill:#3FE7EF;" d="M403.74,376c-10.808,0-16.376-6.144-20.448-10.624c-3.464-3.824-5.016-5.376-8.592-5.376
	c-3.56,0-5.104,1.552-8.568,5.368c-4.064,4.488-9.624,10.632-20.424,10.632c-10.792,0-16.36-6.144-20.424-10.632
	c-3.24-3.576-4.856-5.104-7.952-5.296l-2.704,3.656l37.08,64.264c0.704,1.224,1.072,2.608,1.072,4.008v8
	c0,9.04-3.128,17.296-8.208,24h56.208c13.232,0,24-10.768,24-24v-75.256c-0.208,0.224-0.368,0.384-0.592,0.632
	C420.116,369.856,414.548,376,403.74,376z"/>
<g>
	<path style="fill:#F8CF26;" d="M128.78,32c4.416,0,8,3.584,8,8v88h80V40c0-4.416,3.584-8,8-8h8c4.408,0,8-3.592,8-8s-3.592-8-8-8
		h-112c-4.408,0-8,3.592-8,8s3.592,8,8,8H128.78z"/>
	<path style="fill:#F8CF26;" d="M337.148,354.632c3.464,3.816,5.008,5.368,8.56,5.368c3.56,0,5.104-1.552,8.568-5.368
		C358.34,350.144,363.908,344,374.7,344c10.808,0,16.376,6.144,20.448,10.624c3.464,3.824,5.016,5.376,8.592,5.376
		s5.128-1.552,8.592-5.376c2.912-3.208,6.632-7.232,12.448-9.28v-130.84l-97.4,131.968
		C331.7,348.672,334.708,351.936,337.148,354.632z"/>
</g>
<path style="fill:#5EA7A4;" d="M240.628,464h72.152c13.232,0,24-10.768,24-24v-5.856l-32.512-56.36L240.628,464z"/>
<path style="fill:#F8CF26;" d="M232.78,221.856l72.232,125.2c0.968-0.56,2.016-1.056,3.136-1.488L409.692,208H232.78V221.856z"/>
<path d="M479.22,140.752l-12.872-9.504L421.5,192H232.78V48c13.232,0,24-10.768,24-24s-10.768-24-24-24h-112
	c-13.232,0-24,10.768-24,24s10.768,24,24,24v173.856L1.852,428c-0.704,1.216-1.072,2.6-1.072,4v8c0,22.056,17.944,40,40,40h160h112
	h88c22.056,0,40-17.944,40-40V200c0-1.832-0.72-3.44-1.76-4.792L479.22,140.752z M409.692,208L308.148,345.576
	c-1.12,0.432-2.168,0.928-3.136,1.488L232.78,221.856V208H409.692z M208.132,252.84L188.916,208h27.864v16
	c0,1.4,0.368,2.784,1.072,4l75.032,130.048c-1.552,1.296-2.984,1.952-5.136,1.952c-3.552,0-5.104-1.552-8.56-5.368
	c-4.072-4.488-9.632-10.632-20.432-10.632c-10.792,0-16.36,6.144-20.424,10.632c-3.456,3.816-5.008,5.368-8.56,5.368
	s-5.104-1.552-8.56-5.368c-2.904-3.208-6.616-7.232-12.424-9.28V256C208.78,254.912,208.564,253.84,208.132,252.84z M112.78,24
	c0-4.408,3.592-8,8-8h112c4.408,0,8,3.592,8,8s-3.592,8-8,8h-8c-4.416,0-8,3.584-8,8v88h-80V40c0-4.416-3.584-8-8-8h-8
	C116.372,32,112.78,28.408,112.78,24z M16.78,440v-5.856L135.708,228c0.704-1.216,1.072-2.6,1.072-4v-80h80v48h-40
	c-2.688,0-5.2,1.352-6.68,3.6c-1.48,2.24-1.736,5.08-0.672,7.552l23.352,54.488V464h-152C27.548,464,16.78,453.232,16.78,440z
	 M208.78,364.768c0.2,0.216,0.352,0.368,0.568,0.608c4.064,4.48,9.624,10.624,20.424,10.624s16.36-6.144,20.424-10.632
	c3.456-3.816,5.008-5.368,8.56-5.368c3.56,0,5.104,1.552,8.568,5.368c3.8,4.2,8.984,9.784,18.472,10.488L220.74,464h-11.96V364.768z
	 M240.628,464l63.64-86.216l32.512,56.36V440c0,13.232-10.768,24-24,24H240.628z M400.78,464h-56.208
	c5.08-6.704,8.208-14.96,8.208-24v-8c0-1.4-0.368-2.784-1.072-4l-37.08-64.264l2.704-3.656c3.096,0.192,4.72,1.72,7.952,5.296
	c4.064,4.48,9.632,10.624,20.424,10.624c10.8,0,16.36-6.144,20.424-10.632c3.464-3.816,5.008-5.368,8.568-5.368
	c3.576,0,5.128,1.552,8.592,5.376c4.072,4.48,9.648,10.624,20.448,10.624s16.376-6.144,20.448-10.624
	c0.224-0.248,0.384-0.408,0.592-0.632V440C424.78,453.232,414.012,464,400.78,464z M424.78,345.344
	c-5.816,2.048-9.536,6.072-12.448,9.28c-3.464,3.824-5.016,5.376-8.592,5.376s-5.128-1.552-8.592-5.376
	c-4.072-4.48-9.64-10.624-20.448-10.624c-10.8,0-16.36,6.144-20.424,10.632c-3.464,3.816-5.008,5.368-8.568,5.368
	c-3.552,0-5.104-1.552-8.56-5.368c-2.44-2.688-5.448-5.96-9.768-8.16l97.4-131.968V345.344z"/>
<rect x="160.78" y="432" width="16" height="16"/>
<rect x="128.78" y="432" width="16" height="16"/>
<rect x="96.78" y="432" width="16" height="16"/>
<rect x="160.78" y="400" width="16" height="16"/>
<rect x="128.78" y="400" width="16" height="16"/>
<rect x="96.78" y="400" width="16" height="16"/>
<rect x="64.78" y="432" width="16" height="16"/>
<path style="fill:#F8CF26;" d="M292.78,168c15.44,0,28-12.56,28-28s-12.56-28-28-28s-28,12.56-28,28S277.34,168,292.78,168z
	 M292.78,128c6.616,0,12,5.384,12,12s-5.384,12-12,12s-12-5.384-12-12S286.164,128,292.78,128z"/>
<path style="fill:#3FE7EF;" d="M380.78,128c19.848,0,36-16.152,36-36s-16.152-36-36-36s-36,16.152-36,36S360.932,128,380.78,128z
	 M380.78,72c11.024,0,20,8.976,20,20s-8.976,20-20,20s-20-8.976-20-20S369.756,72,380.78,72z"/>
<path style="fill:#E0634B;" d="M312.78,48c13.232,0,24-10.768,24-24s-10.768-24-24-24s-24,10.768-24,24S299.548,48,312.78,48z
	 M312.78,16c4.408,0,8,3.592,8,8s-3.592,8-8,8s-8-3.592-8-8S308.372,16,312.78,16z"/>
<g>
</g>
<g>
</g>
<g>
</g>
<g>
</g>
<g>
</g>
<g>
</g>
<g>
</g>
<g>
</g>
<g>
</g>
<g>
</g>
<g>
</g>
<g>
</g>
<g>
</g>
<g>
</g>
<g>
</g>
</svg>
