<?xml version="1.0" encoding="iso-8859-1"?>
<!-- Generator: Adobe Illustrator 19.0.0, SVG Export Plug-In . SVG Version: 6.00 Build 0)  -->
<svg version="1.1" id="Layer_1" xmlns="http://www.w3.org/2000/svg" xmlns:xlink="http://www.w3.org/1999/xlink" x="0px" y="0px"
	 viewBox="0 0 512.003 512.003" style="enable-background:new 0 0 512.003 512.003;" xml:space="preserve">
<path style="fill:#D1CFCF;" d="M283.811,28.52c-51.006,0-92.504,41.499-92.504,92.507c0,51.006,41.497,92.503,92.504,92.503
	c51.006,0,92.503-41.497,92.503-92.503C376.314,70.018,334.817,28.52,283.811,28.52z"/>
<path style="fill:#EAE5E5;" d="M283.811,28.52c-8.092,0-15.942,1.048-23.427,3.008c-20.768,16.978-34.05,42.786-34.05,71.641
	c0,60.348,57.252,104.865,115.932,89.493c20.767-16.977,34.048-42.783,34.048-71.636C376.314,70.018,334.817,28.52,283.811,28.52z"
	/>
<path style="fill:#C93F3F;" d="M296.689,29.42c-4.21-0.589-8.508-0.9-12.877-0.9s-8.667,0.312-12.877,0.9v78.727H192.21
	c-1.201,8.585-1.201,17.168-0.001,25.755h78.726v78.727c8.424,1.178,17.007,1.223,25.755,0v-78.727h78.725
	c1.2-8.585,1.201-17.168-0.001-25.755H296.69L296.689,29.42L296.689,29.42z"/>
<path style="fill:#DB3A3A;" d="M279.964,28.608c-0.844,0.036-1.687,0.076-2.525,0.135c-0.209,0.014-0.418,0.034-0.627,0.05
	c-0.852,0.064-1.702,0.137-2.548,0.224c-0.198,0.02-0.394,0.045-0.592,0.066c-0.839,0.093-1.676,0.193-2.508,0.308
	c-0.077,0.011-0.154,0.023-0.231,0.033v78.722h-44.465c0.479,8.982,2.249,17.626,5.121,25.755h39.344v48.374
	c7.892,4.796,16.556,8.44,25.755,10.708V133.9h78.725c1.162-8.289,1.225-16.991-0.001-25.755h-78.724V29.42
	c-0.006-0.001-0.011-0.001-0.017-0.002c-2.071-0.289-4.165-0.51-6.277-0.661c-0.094-0.007-0.188-0.012-0.282-0.018
	c-0.878-0.06-1.759-0.105-2.643-0.141c-0.227-0.008-0.455-0.018-0.683-0.026c-0.988-0.031-1.979-0.052-2.975-0.052
	c-1.064,0-2.123,0.02-3.178,0.056C280.41,28.584,280.188,28.599,279.964,28.608z"/>
<path style="fill:#74CDE8;" d="M419.49,450.871c-13.556-2.236-12.2-11.924,11.749-16.022c23.946-4.099,37.053-19.862,32.985-25.489
	c-4.066-5.626-40.216-18.483-42.927-24.445s-21.238-5.59-24.401,1.491s-38.86,5.777-39.311,0.746
	c-0.451-5.032,35.472-11.366,16.153-22.266c-19.315-10.9-30.837-7.825-31.516-27.668c-0.358-10.483-18.943-14.491-35.478-17.92
	l-13.283,25.809c-4.241,7.49-15.055,7.49-19.299,0L239.4,281.386c-5.705,0.233-22.743,1.342-25.957,6.644
	c-4.066,6.708-28.467,18.447-39.312,19.564c-10.844,1.119-40.667,10.063-33.889,16.21c6.779,6.149,14.911,12.296,13.556,19.564
	c-1.355,7.266,36.528,1.676,35.208,5.03c-1.319,3.354-16.304,24.035,0,29.065c16.304,5.032-5.385,19.004-8.097,22.918
	c-2.711,3.912-12.2,21.799,25.756,32.979c37.957,11.179,6.703,17.326-17.659,23.475c-24.364,6.147-82.653,6.147-98.92,20.121
	c-16.268,13.976-69.133,30.743-47.445,34.655c21.689,3.914,59.645-22.916,75.912-17.886c16.267,5.03,17.622,11.737,42.022,8.944
	c24.401-2.797,18.978-20.682,46.09-20.682s24.401,11.739,42.022,8.946c17.623-2.797,21.689-19.004,46.542-19.004
	c24.854,0,25.306,9.873,42.476,9.873c17.171,0,30.274-10.62,42.924-10.061c12.654,0.557,63.713,3.352,88.113-21.427
	C493.144,425.53,433.044,453.106,419.49,450.871z"/>
<path style="fill:#5BB4D8;" d="M153.797,343.366c-1.355,7.266,36.528,1.676,35.208,5.03c-1.319,3.354-16.304,24.035,0,29.065
	c16.304,5.032-5.385,19.004-8.097,22.918c-2.711,3.912-12.2,21.799,25.756,32.979c34.964,10.298,11.201,16.326-11.806,22.018
	c18.817-2.319,38.156-3.853,49.777-6.785c24.363-6.149,55.617-12.296,17.659-23.475c-37.956-11.179-28.467-29.067-25.756-32.979
	c2.711-3.914,24.401-17.886,8.097-22.918c-16.304-5.03-1.319-25.711,0-29.065c1.32-3.354-36.563,2.236-35.208-5.03
	c1.355-7.268-6.777-13.415-13.556-19.564c-6.778-6.147,23.045-15.091,33.889-16.21c4.18-0.431,10.373-2.442,16.64-5.131
	l-7.002-12.835c-5.705,0.233-22.743,1.342-25.957,6.644c-4.066,6.708-28.467,18.447-39.312,19.564
	c-10.844,1.119-40.667,10.063-33.889,16.21C147.02,329.951,155.152,336.098,153.797,343.366z"/>
<path style="fill:#74CDE8;" d="M149.909,404.903c0,0,14.855,7.304-1.529,11.662c-10.551,2.807-4.841,7.356-18.996,7.945
	c-14.155,0.587-16.279-5.565-33.266-6.454s-20.528,7.335-31.144,2.047c0,0-10.97-3.818,1.417-8.811
	c12.386-4.994,23.359-8.813,25.835-12.778c2.477-3.965,9.596-5.543,24.772-5.874C137.297,392.198,140.903,400.855,149.909,404.903z"
	/>
<path style="fill:#5BB4D8;" d="M107.061,419.67c7.9-3.18,14.054-5.95,15.829-8.793c3.598-5.76,19.849-5.991,27.206-5.878
	c-10.494-5.472-13.963-12.776-33.099-12.358c-15.176,0.331-22.295,1.909-24.772,5.874c-2.477,3.965-13.449,7.784-25.835,12.778
	c-12.387,4.993-1.417,8.811-1.417,8.811C77.43,426.308,82.38,413.265,107.061,419.67z"/>
<path style="fill:#305A84;" d="M284.16,0c-0.251,0-0.444,0-0.697,0c-0.577,0-1.156,0.004-1.832,0.014
	c-91.183,2.045-147.396,101.199-102.435,180.563l94.966,167.621c4.243,7.489,15.057,7.491,19.299,0l94.966-167.621
	C434.244,99.699,374.805,0,284.16,0z M283.811,210.953c-49.665,0-89.928-40.262-89.928-89.927c0-49.669,40.263-89.931,89.928-89.931
	c49.666,0,89.927,40.262,89.927,89.931C373.739,170.691,333.477,210.953,283.811,210.953z"/>
<path style="fill:#224772;" d="M209.414,176.456C169.274,105.602,208.978,19.973,283.371,0
	c-90.682,0.153-149.957,99.766-104.176,180.577l94.966,167.621c4.243,7.489,15.057,7.491,19.299,0l6.627-11.698L209.414,176.456z"/>
<g>
</g>
<g>
</g>
<g>
</g>
<g>
</g>
<g>
</g>
<g>
</g>
<g>
</g>
<g>
</g>
<g>
</g>
<g>
</g>
<g>
</g>
<g>
</g>
<g>
</g>
<g>
</g>
<g>
</g>
</svg>
