<?xml version="1.0" encoding="iso-8859-1"?>
<!-- Generator: Adobe Illustrator 19.0.0, SVG Export Plug-In . SVG Version: 6.00 Build 0)  -->
<svg version="1.1" id="Capa_1" xmlns="http://www.w3.org/2000/svg" xmlns:xlink="http://www.w3.org/1999/xlink" x="0px" y="0px"
	 viewBox="0 0 512 512" style="enable-background:new 0 0 512 512;" xml:space="preserve">
<path style="fill:#E5E5E5;" d="M301,167c-29.546,0-52.983-17.241-53.965-17.974C246.918,148.938,230.38,137,211,137
	s-35.874,11.895-36.035,12.026l-14.37,10.767c-4.351,3.281-10.181,3.911-15.117,1.699c-4.98-2.227-8.35-6.987-8.818-12.422
	c-0.352-4.013-0.66-8.042-0.66-12.07V45c0-8.291,6.709-15,15-15h210c8.291,0,15,6.709,15,15v80.896
	c0,4.761-2.256,9.229-6.079,12.056l-15,11.104C353.983,149.759,330.546,167,301,167z"/>
<g>
	<path style="fill:#FCBF29;" d="M256,257c-61.743,0-113.042-46.289-119.326-107.681c-0.527-5.229,1.714-10.371,5.933-13.521
		l14.399-10.796C158.017,124.241,181.454,107,211,107s52.983,17.241,53.965,17.974C265.082,125.062,281.62,137,301,137
		s35.874-11.895,36.035-12.026l15.044-11.133c4.526-3.354,10.605-3.896,15.674-1.333c5.054,2.549,8.247,7.72,8.247,13.389V137
		C376,203.167,322.167,257,256,257z"/>
	<path style="fill:#FCBF29;" d="M354.994,452H157.006c-4.673,0-9.097-2.183-11.924-5.903c-2.842-3.721-3.779-8.555-2.549-13.066
		C159.115,372.605,204.716,332,256,332s96.885,40.605,113.467,101.03c1.23,4.512,0.293,9.346-2.549,13.066
		C364.091,449.817,359.667,452,354.994,452z"/>
</g>
<path style="fill:#FEA832;" d="M354.994,452c4.673,0,9.097-2.183,11.924-5.903c2.842-3.721,3.779-8.555,2.549-13.066
	C352.885,372.605,307.284,332,256,332v120H354.994z"/>
<path style="fill:#E5E5E5;" d="M361,482h-6.006c-6.753,0-12.686-4.512-14.473-11.03C327.572,423.729,293.603,392,256,392
	s-71.572,31.729-84.521,78.97c-1.787,6.519-7.72,11.03-14.473,11.03H151c-8.291,0-15-6.709-15-15v-90c0-66.167,53.833-120,120-120
	c32.212,0,62.314,12.554,84.785,35.376C363.432,314.671,376,344.788,376,377v90C376,475.291,369.291,482,361,482z"/>
<path style="fill:#FCBF29;" d="M256,302c-8.291,0-15-6.709-15-15v-30c0-8.291,6.709-15,15-15c8.291,0,15,6.709,15,15v30
	C271,295.291,264.291,302,256,302z"/>
<path style="fill:#787780;" d="M91,482c-8.291,0-15-6.709-15-15V45c0-8.291,6.709-15,15-15s15,6.709,15,15v422
	C106,475.291,99.291,482,91,482z"/>
<path style="fill:#57555C;" d="M421,482c-8.291,0-15-6.709-15-15V45c0-8.291,6.709-15,15-15s15,6.709,15,15v422
	C436,475.291,429.291,482,421,482z"/>
<path style="fill:#FD3018;" d="M451,512H61c-8.291,0-15-6.709-15-15l0,0c0-24.814,20.186-45,45-45h330c24.814,0,45,20.186,45,45l0,0
	C466,505.291,459.291,512,451,512z"/>
<g>
	<path style="fill:#D9D9D9;" d="M340.521,470.97c1.787,6.519,7.72,11.03,14.473,11.03H361c8.291,0,15-6.709,15-15v-90
		c0-32.212-12.568-62.329-35.215-84.624C318.314,269.554,288.212,257,256,257v135C293.603,392,327.572,423.729,340.521,470.97z"/>
	<path style="fill:#D9D9D9;" d="M361,30H256v124.604C265.597,159.89,281.983,167,301,167c29.546,0,52.983-17.241,53.921-17.944
		l15-11.104c3.823-2.827,6.079-7.295,6.079-12.056V45C376,36.709,369.291,30,361,30z"/>
</g>
<path style="fill:#FEA832;" d="M367.753,112.508c-5.068-2.563-11.147-2.021-15.674,1.333l-15.044,11.133
	C336.874,125.105,320.38,137,301,137s-35.918-11.938-36.035-12.026c-0.35-0.262-3.651-2.651-8.965-5.577V257
	c66.167,0,120-53.833,120-120v-11.104C376,120.228,372.807,115.057,367.753,112.508z"/>
<path style="fill:#E61E14;" d="M421,452H256v60h195c8.291,0,15-6.709,15-15C466,472.186,445.814,452,421,452z"/>
<path style="fill:#FEA832;" d="M271,287v-30c0-8.291-6.709-15-15-15v60C264.291,302,271,295.291,271,287z"/>
<path style="fill:#FD3018;" d="M421,60H91c-24.814,0-45-20.186-45-45l0,0c0-8.291,6.709-15,15-15h390c8.291,0,15,6.709,15,15l0,0
	C466,39.814,445.814,60,421,60z"/>
<path style="fill:#E61E14;" d="M451,0H256v60h165c24.814,0,45-20.186,45-45C466,6.709,459.291,0,451,0z"/>
<g>
</g>
<g>
</g>
<g>
</g>
<g>
</g>
<g>
</g>
<g>
</g>
<g>
</g>
<g>
</g>
<g>
</g>
<g>
</g>
<g>
</g>
<g>
</g>
<g>
</g>
<g>
</g>
<g>
</g>
</svg>
