<svg height="512" viewBox="0 0 60 60" width="512" xmlns="http://www.w3.org/2000/svg"><g id="Page-1" fill="none" fill-rule="evenodd"><g id="019---Student-With-Degree" fill-rule="nonzero"><g id="colour" transform="translate(1)"><ellipse id="Oval" cx="5" cy="46" fill="#9d9d9d" rx="5" ry="6"/><path id="Shape" d="m31 52v6c0 .5522847-.4477153 1-1 1h-4c-.5522847 0-1-.4477153-1-1v-6z" fill="#e83247"/><path id="Shape" d="m58 46c0 3.31-2.24 6-5 6h-22c2.76 0 5-2.69 5-6s-2.24-6-5-6h22c2.76 0 5 2.69 5 6z" fill="#f4f4f4"/><path id="Shape" d="m53 40h-3c2.76 0 5 2.69 5 6s-2.24 6-5 6h3c2.76 0 5-2.69 5-6s-2.24-6-5-6z" fill="#ced7db"/><path id="Shape" d="m30 46c0 3.31-2.24 6-5 6h-20c2.76 0 5-2.69 5-6s-2.24-6-5-6h20c2.76 0 5 2.69 5 6z" fill="#f4f4f4"/><path id="Shape" d="m40.88 18.52c-.3588097 1.3543228-1.284635 2.487912-2.54 3.11.2868432 2.0338879-.4640303 4.076264-2 5.44-.14.13-.26.26-.38.39-2.14 2.33-2.27 4.54-4.69 4.54h-2.54c-2.42 0-2.55-2.21-4.73-4.54-.12-.13-.24-.26-.38-.39-1.5359697-1.363736-2.2868432-3.4061121-2-5.44-1.255365-.622088-2.1811903-1.7556772-2.54-3.11 0 0-.47-3.1.47-3.44.5134026-.1572729 1.0706597-.0687023 1.51.24-.06-.63-.06-1.39-.06-2.32 0 0 2.08 2 9 2s9-2 9-2c0 .93 0 1.68-.09 2.31.4384663-.3021501.9911468-.3868945 1.5-.23.94.34.47 3.44.47 3.44z" fill="#fddead"/><path id="Shape" d="m40.41 15.08c-.5088532-.1568945-1.0615337-.0721501-1.5.23.09-.63.09-1.38.09-2.31-.8818543.6764299-1.9088851 1.1385938-3 1.35 0 .3533333-.02.6866667-.06 1 .4384663-.3021501.9911468-.3868945 1.5-.23.94.34.47 3.44.47 3.44-.3588097 1.3543228-1.284635 2.487912-2.54 3.11.2868432 2.0338879-.4640303 4.076264-2 5.44-.14.13-.26.26-.38.39-2.1 2.25-2.32 4.36-4.5 4.51.0765674.0055176.1534326.0055176.23 0h2.54c2.42 0 2.55-2.21 4.73-4.54.12-.13.24-.26.38-.39 1.5359697-1.363736 2.2868432-3.4061121 2-5.44 1.255365-.622088 2.1811903-1.7556772 2.54-3.11 0 0 .44-3.11-.5-3.45z" fill="#ddc298"/><path id="Shape" d="m36 27.46v6.54l-6 6-6-6v-6.54c2.18 2.33 2.31 4.54 4.73 4.54h2.54c2.42 0 2.55-2.21 4.73-4.54z" fill="#ddc298"/><path id="Shape" d="m30 40h-20.00000919l.00000919-2.21c-.003871-1.5781926 1.2156737-2.8895309 2.79-3l11.21-.79z" fill="#3e54b8"/><path id="Shape" d="m36 46c0 3.31-2.24 6-5 6h-6c2.76 0 5-2.69 5-6s-2.24-6-5-6h6c2.76 0 5 2.69 5 6z" fill="#e83247"/><path id="Shape" d="m50 40h-20l6-6 11.23.8c1.5743263.1104691 2.793871 1.4218074 2.79 3z" fill="#3e54b8"/><path id="Shape" d="m50 37.78c.003871-1.5781926-1.2156737-2.8895309-2.79-3l-11.21-.78-.2.2 8.43.6c1.5743263.1104691 2.793871 1.4218074 2.79 3v2.2h3z" fill="#263995"/><path id="Shape" d="m43.26 6.47-4.26 1.15-8.75 2.38c-.1642822.0398706-.3357178.0398706-.5 0l-8.75-2.38-4.26-1.15c-.4448894-.11149979-.7568951-.51135113-.7568951-.97s.3120057-.85850021.7568951-.97l13-3.5c.1642822-.03987056.3357178-.03987056.5 0l13 3.5c.4461147.10683143.7623317.50349169.7670606.96219525.0047289.45870357-.3032431.86179876-.7470606.97780475z" fill="#3e54b8"/><path id="Shape" d="m43.26 4.53-13.01-3.53c-.1642822-.03987056-.3357178-.03987056-.5 0l-1.25.34 11.76 3.19c.4448894.11149979.7568951.51135113.7568951.97s-.3120057.85850021-.7568951.97l-4.26 1.15-7.5 2 1.25.34c.1642822.03987056.3357178.03987056.5 0l8.75-2.34 4.26-1.15c.4448894-.11149979.7568951-.51135113.7568951-.97s-.3120057-.85850021-.7568951-.97z" fill="#263995"/><path id="Shape" d="m39 7.62v5.38s-2 2-9 2-9-2-9-2v-5.38l8.75 2.38c.1642822.0398706.3357178.0398706.5 0z" fill="#3e54b8"/><path id="Shape" d="m36 8.43v4.57s-1.76 1.7-7.49 2h1.5c6.94 0 9-2 9-2v-5.38z" fill="#263995"/></g><g id="outline" fill="#000"><path id="Shape" d="m6.6 44.8c.4418278-.3313708.53137085-.9581722.2-1.4s-.9581722-.5313708-1.4-.2c-.88132045.6609903-1.4 1.6983494-1.4 2.8s.51867955 2.1390097 1.4 2.8c.17309617.1298221.38362979.2.6.2.31300804.0023716.6090686-.141958.8-.39.33580008-.436601.25532179-1.0625433-.18-1.4-.35862998-.3054078-.58157909-.7405181-.62-1.21.0304401-.464424.24672486-.8969935.6-1.2z"/><path id="Shape" d="m54 39h-2v-1.23c.0051613-2.1042568-1.6208982-3.8527079-3.72-4l-10.28-.7v-5.2l.07-.08c1.5935554-1.4083388 2.4401487-3.4786107 2.29-5.6 1.2575887-.8075353 2.1563241-2.0679132 2.51-3.52.27-1.78.29-4-1.09-4.52-.2489884-.0960662-.5131403-.1468646-.78-.15 0-.31 0-.64 0-1v-4.61l2-.54v2.42c-.0107478 1.0286717.5063291 1.991114 1.37 2.55.1610428.112792.3533994.1722477.55.17.3345191-.0017306.6460165-.1706148.83-.45.3032166-.4562975.1828266-1.071624-.27-1.38-.2989299-.1975801-.4791163-.5316758-.48-.89v-3c.6306981-.36396079 1.0137421-1.04194874 1-1.77.0039831-.90756454-.6036371-1.70403969-1.48-1.94l-13.01-3.49c-.3279556-.08467777-.6720444-.08467777-1 0l-13 3.49c-.8897788.22299959-1.5137902 1.02270227-1.5137902 1.94s.6240114 1.71700041 1.5137902 1.94l3.52 1v4.56 1c-.2635138.0041071-.5242135.0548928-.77.15-1.41.51-1.39 2.75-1.11 4.56.3524753 1.4420211 1.2480776 2.6922819 2.5 3.49-.1495311 2.1192332.6927119 4.1879003 2.28 5.6l.08.08v5.2l-10.29.73c-2.0951501.1522919-3.7155276 1.8993296-3.71 4v1.19h-4.01c-3.31 0-6 3.14-6 7s2.69 7 6 7h19v5c0 1.1045695.8954305 2 2 2h4c1.1045695 0 2-.8954305 2-2v-5h21c3.31 0 6-3.14 6-7s-2.69-7-6-7zm-4-1.22.0001018 1.22h-16.5801018l4-4 10.78.77c1.0296467.103431 1.8103561.9752232 1.8 2.01zm-14 8.22c0 2.76-1.79 5-4 5h-1.81c2.4137667-2.8963631 2.4137667-7.1036369 0-10h1.81c2.21 0 4 2.24 4 5zm-6.27-13h2.54c2 0 2.92-1.24 3.73-2.5v3.09l-5 5-5-5v-3.09c.81 1.26 1.71 2.5 3.73 2.5zm.27 13c0 2.76-1.79 5-4 5h-15.81c2.4137667-2.8963631 2.4137667-7.1036369 0-10h15.81c2.21 0 4 2.24 4 5zm1-44 13 3.5-13 3.5-13-3.51zm-.5 8.93c.3272876.0897828.6727124.0897828 1 0l7.49-2v3.57c-.76.5-3.05 1.5-7.99 1.5s-7.24-1.06-8-1.51v-3.57zm-6.84 11c.1139757-.4366153-.0785796-.8954705-.47-1.12h-.06c-.9694237-.4747036-1.6950442-1.334564-2-2.37-.1310981-.7845612-.1310981-1.5854388 0-2.37.183991.0291036.3605874.0936292.52.19.3094011.1786328.6905989.1786328 1 0 .3071179-.2049911.4762811-.5625406.44-.93 0-.1533333 0-.3133333 0-.48 2.5382469.8881639 5.2239269 1.2786231 7.91 1.15 2.7229524.1140316 5.4416212-.3107604 8-1.25v.48c-.0480529.3746247.1190631.7443612.4320162.955816s.7183427.2285464 1.0479838.044184c.158087-.0991074.3352581-.163843.52-.19.1267063.7748543.1267063 1.5651457 0 2.34-.3137792 1.0380308-1.0355692 1.9041789-2 2.4l-.08.05c-.4525112.1960903-.6944991.6928021-.57 1.17.194281 1.636616-.4304279 3.2638518-1.67 4.35-.8549516.8607945-1.6036266 1.8209785-2.23 2.86-.85 1.33-1.19 1.79-2.18 1.79h-2.54c-1 0-1.33-.46-2.18-1.79-.6269714-1.0412998-1.3792505-2.0017991-2.24-2.86-1.2674969-1.1090805-1.8914618-2.7817574-1.66-4.45zm-11.66 15.86c-.0025807-1.0521284.8104491-1.926354 1.86-2l10.76-.79 4 4h-16.6200061zm-10 8.21c0-2.76 1.79-5 4-5s4 2.24 4 5-1.79 5-4 5-4-2.24-4-5zm25 12v-5h4v5zm27-7h-17.81c2.4137667-2.8963631 2.4137667-7.1036369 0-10h17.81c2.21 0 4 2.24 4 5s-1.79 5-4 5z"/></g></g></g></svg>