<?xml version="1.0" encoding="UTF-8" standalone="no"?><!-- Generator: Gravit.io --><svg xmlns="http://www.w3.org/2000/svg" xmlns:xlink="http://www.w3.org/1999/xlink" style="isolation:isolate" viewBox="0 0 1097.1 790.89" width="1097.1pt" height="790.89pt"><defs><clipPath id="_clipPath_NolVMjKcmIFSgtV5KjdTY9Vvlj4UEdj1"><rect width="1097.1" height="790.89"/></clipPath></defs><g clip-path="url(#_clipPath_NolVMjKcmIFSgtV5KjdTY9Vvlj4UEdj1)"><g opacity="0.1"><path d=" M 1085.237 429.97 C 1067.877 504.17 1031.127 568.31 973.057 599.44 C 852.347 664.05 580.137 630.72 376.987 592.44 C 274.331 573.161 181.15 519.896 112.447 441.22 L 1085.237 429.97 Z " fill="rgb(64,62,168)"/></g><g opacity="0.1"><path d=" M 19.887 80.71 L 131.357 80.71 C 136.675 80.71 140.987 76.399 140.987 71.08 C 140.987 65.761 136.675 61.45 131.357 61.45 L 112.087 61.45 C 117.287 61.282 121.416 57.018 121.416 51.815 C 121.416 46.612 117.287 42.348 112.087 42.18 L 125.847 42.18 C 131.047 42.012 135.176 37.748 135.176 32.545 C 135.176 27.342 131.047 23.078 125.847 22.91 L 67.667 22.91 C 80.577 16.91 95.667 12.64 113.057 10.4 C 271.697 -9.97 328.337 3.51 348.317 17.4 C 372.967 34.5 400.467 47.08 429.857 53.14 C 527.737 73.33 710.787 97.63 876.697 45.36 C 959.157 19.36 1020.437 63.28 1057.177 136.64 L 0.537 136.64 C 1.917 115.32 6.047 95.64 13.627 78.4 C 15.368 79.897 17.591 80.717 19.887 80.71 Z " fill="rgb(64,62,168)"/></g><g opacity="0.1"><path d=" M 1094.697 275.1 C 1098.978 318.251 1097.526 361.78 1090.377 404.55 L 111.697 440.35 C 84.451 409.009 61.577 374.122 43.697 336.64 L 1094.697 275.1 Z  M 707.617 367.44 L 726.887 367.44 C 723.446 367.44 720.267 369.275 718.547 372.255 C 716.827 375.235 716.827 378.905 718.547 381.885 C 720.267 384.865 723.446 386.7 726.887 386.7 L 838.357 386.7 C 841.797 386.7 844.977 384.865 846.697 381.885 C 848.417 378.905 848.417 375.235 846.697 372.255 C 844.977 369.275 841.797 367.44 838.357 367.44 L 819.087 367.44 C 824.287 367.272 828.416 363.008 828.416 357.805 C 828.416 352.602 824.287 348.338 819.087 348.17 L 832.847 348.17 C 838.047 348.002 842.176 343.738 842.176 338.535 C 842.176 333.332 838.047 329.068 832.847 328.9 L 721.377 328.9 C 716.176 329.068 712.047 333.332 712.047 338.535 C 712.047 343.738 716.176 348.002 721.377 348.17 L 707.617 348.17 C 702.416 348.338 698.287 352.602 698.287 357.805 C 698.287 363.008 702.416 367.272 707.617 367.44 Z " fill="rgb(64,62,168)"/></g><g opacity="0.1"><path d=" M 0.487 137.28 L 1068.967 163.28 C 1081.967 196.69 1090.537 234.44 1094.537 273.61 L 19.207 273.61 C 12.188 250.612 6.996 227.095 3.677 203.28 C 0.477 180.27 -0.803 158.01 0.487 137.28 Z  M 877.617 222.44 L 896.887 222.44 C 893.446 222.44 890.267 224.275 888.547 227.255 C 886.827 230.235 886.827 233.905 888.547 236.885 C 890.267 239.865 893.446 241.7 896.887 241.7 L 1008.357 241.7 C 1013.675 241.7 1017.987 237.389 1017.987 232.07 C 1017.987 226.751 1013.675 222.44 1008.357 222.44 L 989.087 222.44 C 994.287 222.272 998.416 218.008 998.416 212.805 C 998.416 207.602 994.287 203.338 989.087 203.17 L 1002.847 203.17 C 1008.047 203.002 1012.176 198.738 1012.176 193.535 C 1012.176 188.332 1008.047 184.068 1002.847 183.9 L 891.377 183.9 C 886.176 184.068 882.047 188.332 882.047 193.535 C 882.047 198.738 886.176 203.002 891.377 203.17 L 877.617 203.17 C 872.416 203.338 868.287 207.602 868.287 212.805 C 868.287 218.008 872.416 222.272 877.617 222.44 Z " fill="rgb(64,62,168)"/></g><g opacity="0.1"><ellipse vector-effect="non-scaling-stroke" cx="533.4669363417142" cy="772.01" rx="348.83000000000004" ry="18.879999999999995" fill="rgb(108,99,255)"/></g><path d=" M 269.23 682.66 C 271.065 681.162 272.404 679.143 273.07 676.87 C 273.56 674.58 272.58 671.87 270.39 670.98 C 267.93 670.04 265.3 671.75 263.3 673.47 C 261.3 675.19 259.03 677.16 256.42 676.79 C 259.15 674.318 260.381 670.592 259.66 666.98 C 259.546 666.244 259.235 665.553 258.76 664.98 C 257.39 663.52 254.92 664.14 253.28 665.29 C 248.08 668.95 246.63 676.02 246.6 682.37 C 246.08 680.08 246.52 677.69 246.51 675.37 C 246.5 673.05 245.85 670.37 243.87 669.14 C 242.641 668.484 241.262 668.16 239.87 668.2 C 237.53 668.11 234.93 668.35 233.33 670.05 C 231.33 672.18 231.86 675.74 233.59 678.05 C 235.32 680.36 237.94 681.86 240.35 683.47 C 242.29 684.623 243.944 686.199 245.19 688.08 C 245.332 688.347 245.452 688.624 245.55 688.91 L 260.2 688.91 C 263.478 687.243 266.516 685.141 269.23 682.66 Z " fill="rgb(64,62,168)"/><mask id="_mask_sL9gkNSIk45RCKlu4V21sOu8uYcI7LWY" x="-200%" y="-200%" width="400%" height="400%"><rect x="-200%" y="-200%" width="400%" height="400%" style="fill:white;"/><path d=" M 152.8 698.44 C 152.8 698.44 138.74 650.73 155.43 615.62 C 162.535 600.935 164.682 584.34 161.55 568.33 C 160.005 560.747 157.765 553.323 154.86 546.15" fill="black" stroke="none"/></mask><path d=" M 152.8 698.44 C 152.8 698.44 138.74 650.73 155.43 615.62 C 162.535 600.935 164.682 584.34 161.55 568.33 C 160.005 560.747 157.765 553.323 154.86 546.15" fill="none" mask="url(#_mask_sL9gkNSIk45RCKlu4V21sOu8uYcI7LWY)" vector-effect="non-scaling-stroke" stroke-width="4" stroke="rgb(83,84,97)" stroke-linejoin="miter" stroke-linecap="butt" stroke-miterlimit="10"/><path d=" M 152.8 698.44 C 152.8 698.44 138.74 650.73 155.43 615.62 C 162.535 600.935 164.682 584.34 161.55 568.33 C 160.005 560.747 157.765 553.323 154.86 546.15" fill="none"/><path d=" M 165.21 523.95 C 165.21 529.8 154.63 546.76 154.63 546.76 C 154.63 546.76 144.04 529.76 144.04 523.95 C 144.216 518.231 148.903 513.685 154.625 513.685 C 160.347 513.685 165.034 518.231 165.21 523.95 L 165.21 523.95 Z " fill="rgb(108,99,255)"/><path d=" M 182.71 556.34 C 179.54 561.25 161.43 569.73 161.43 569.73 C 161.43 569.73 161.76 549.73 164.94 544.83 C 168.189 540.104 174.61 538.823 179.424 541.941 C 184.238 545.059 185.694 551.442 182.71 556.34 Z " fill="rgb(108,99,255)"/><path d=" M 181.95 611.69 C 176.73 614.32 156.82 612.5 156.82 612.5 C 156.82 612.5 167.2 595.41 172.42 592.78 C 175.809 590.985 179.903 591.163 183.123 593.244 C 186.344 595.325 188.188 598.984 187.945 602.811 C 187.701 606.638 185.408 610.034 181.95 611.69 L 181.95 611.69 Z " fill="rgb(108,99,255)"/><path d=" M 171.94 653.44 C 167.24 656.92 147.31 658.44 147.31 658.44 C 147.31 658.44 154.65 639.85 159.31 636.37 C 162.332 633.893 166.473 633.281 170.082 634.779 C 173.692 636.277 176.183 639.64 176.563 643.53 C 176.943 647.419 175.151 651.201 171.9 653.37 L 171.94 653.44 Z " fill="rgb(108,99,255)"/><path d=" M 139.21 570.86 C 143.4 574.93 162.94 579.16 162.94 579.16 C 162.94 579.16 158.15 559.75 153.94 555.67 C 151.249 552.92 147.277 551.845 143.567 552.864 C 139.856 553.883 136.99 556.835 136.081 560.574 C 135.171 564.313 136.362 568.251 139.19 570.86 L 139.21 570.86 Z " fill="rgb(108,99,255)"/><path d=" M 128.12 619.83 C 133.34 622.46 153.25 620.64 153.25 620.64 C 153.25 620.64 142.87 603.56 137.65 600.92 C 132.45 598.43 126.214 600.557 123.619 605.705 C 121.025 610.854 123.025 617.132 128.12 619.83 L 128.12 619.83 Z " fill="rgb(108,99,255)"/><path d=" M 123.88 668.91 C 128.58 672.38 148.5 673.91 148.5 673.91 C 148.5 673.91 141.17 655.32 136.5 651.84 C 131.803 648.707 125.474 649.81 122.113 654.347 C 118.753 658.885 119.543 665.261 123.91 668.84 L 123.88 668.91 Z " fill="rgb(108,99,255)"/><path d=" M 165.21 523.95 C 165.21 529.8 154.63 546.76 154.63 546.76 C 154.63 546.76 144.04 529.76 144.04 523.95 C 144.216 518.231 148.903 513.685 154.625 513.685 C 160.347 513.685 165.034 518.231 165.21 523.95 L 165.21 523.95 Z " fill="rgb(64,62,168)"/><path d=" M 182.71 556.34 C 179.54 561.25 161.43 569.73 161.43 569.73 C 161.43 569.73 161.76 549.73 164.94 544.83 C 168.189 540.104 174.61 538.823 179.424 541.941 C 184.238 545.059 185.694 551.442 182.71 556.34 Z " fill="rgb(64,62,168)"/><path d=" M 181.95 611.69 C 176.73 614.32 156.82 612.5 156.82 612.5 C 156.82 612.5 167.2 595.41 172.42 592.78 C 175.809 590.985 179.903 591.163 183.123 593.244 C 186.344 595.325 188.188 598.984 187.945 602.811 C 187.701 606.638 185.408 610.034 181.95 611.69 L 181.95 611.69 Z " fill="rgb(64,62,168)"/><path d=" M 171.94 653.44 C 167.24 656.92 147.31 658.44 147.31 658.44 C 147.31 658.44 154.65 639.85 159.31 636.37 C 162.332 633.893 166.473 633.281 170.082 634.779 C 173.692 636.277 176.183 639.64 176.563 643.53 C 176.943 647.419 175.151 651.201 171.9 653.37 L 171.94 653.44 Z " fill="rgb(64,62,168)"/><path d=" M 139.21 570.86 C 143.4 574.93 162.94 579.16 162.94 579.16 C 162.94 579.16 158.15 559.75 153.94 555.67 C 151.249 552.92 147.277 551.845 143.567 552.864 C 139.856 553.883 136.99 556.835 136.081 560.574 C 135.171 564.313 136.362 568.251 139.19 570.86 L 139.21 570.86 Z " fill="rgb(64,62,168)"/><path d=" M 128.12 619.83 C 133.34 622.46 153.25 620.64 153.25 620.64 C 153.25 620.64 142.87 603.56 137.65 600.92 C 132.45 598.43 126.214 600.557 123.619 605.705 C 121.025 610.854 123.025 617.132 128.12 619.83 L 128.12 619.83 Z " fill="rgb(64,62,168)"/><path d=" M 123.88 668.91 C 128.58 672.38 148.5 673.91 148.5 673.91 C 148.5 673.91 141.17 655.32 136.5 651.84 C 131.803 648.707 125.474 649.81 122.113 654.347 C 118.753 658.885 119.543 665.261 123.91 668.84 L 123.88 668.91 Z " fill="rgb(64,62,168)"/><path d=" M 119.55 695.44 C 119.55 695.44 136.67 692.04 141.23 687.51 C 141.23 687.51 166.33 675.05 168.61 680.71 C 168.61 680.71 199.41 705.63 180.01 709.03 C 180.01 709.03 134.38 713.56 128.68 711.29 C 122.98 709.02 119.55 695.44 119.55 695.44 Z " fill="rgb(168,168,168)"/><g opacity="0.2"><path d=" M 180.04 706.91 C 160.65 710.31 134.41 711.44 128.71 709.18 C 124.37 707.45 121.35 699.18 120.16 695.31 L 119.55 695.44 C 119.55 695.44 122.98 709.03 128.68 711.29 C 128.68 711.29 160.62 712.42 180.01 709.03 C 185.61 708.03 187.21 705.74 186.61 702.83 C 186.16 704.72 184.21 706.18 180.04 706.91 Z " fill="rgb(0,0,0)"/></g><linearGradient id="_lgradient_1" x1="0.5000182990037305" y1="1.0005196982720603" x2="0.5000182990037306" y2="0.00006754371399342318" gradientTransform="matrix(-424.144,0,0,712.478,793.287,72.482)" gradientUnits="userSpaceOnUse"><stop offset="0%" stop-opacity="0.25" style="stop-color:rgb(128,128,128)"/><stop offset="54%" stop-opacity="0.12" style="stop-color:rgb(128,128,128)"/><stop offset="100%" stop-opacity="0.1" style="stop-color:rgb(128,128,128)"/></linearGradient><path d=" M 372.817 261.98 C 367.447 255.98 369.547 246.63 369.547 246.63 C 369.547 246.63 394.887 182.05 397.697 181.34 C 400.507 180.63 407.557 164.34 407.557 164.34 C 407.557 164.34 475.127 100.11 477.557 100.11 C 479.987 100.11 504.657 82.37 507.817 82.02 C 510.977 81.67 515.917 79.89 521.197 77.02 C 526.477 74.15 579.977 77.38 582.087 79.86 C 584.197 82.34 594.087 84.12 594.087 84.12 C 594.087 84.12 614.147 85.18 616.967 88.73 C 619.787 92.28 640.537 94.16 640.537 94.16 C 640.537 94.16 650.747 97.96 636.887 108.05 L 636.887 108.05 C 641.327 108.75 646.517 109.29 651.787 109.67 C 653.107 109.76 654.447 109.85 655.787 109.92 L 656.577 109.92 C 657.462 107.244 659.188 104.926 661.497 103.31 C 663.007 102.49 664.567 101.765 666.167 101.14 C 668.645 99.822 670.966 98.229 673.087 96.39 C 683.347 88.231 694.294 80.977 705.807 74.71 C 707.584 73.597 709.567 72.853 711.637 72.52 C 715.927 72.11 719.757 75.12 723.957 76.13 C 731.337 77.9 738.777 73.4 746.367 73.33 C 755.847 73.24 764.477 80.62 767.367 89.72 C 768.437 93.09 768.917 96.84 771.227 99.51 C 774.227 103 779.297 103.51 783.407 105.58 C 789.477 108.746 793.285 115.024 793.287 121.87 L 793.287 121.95 C 793.287 122.48 793.287 123.01 793.197 123.54 C 792.727 127.82 790.747 131.77 789.297 135.83 C 787.807 139.99 786.866 144.327 786.497 148.73 C 786.492 148.777 786.492 148.823 786.497 148.87 C 786.437 149.6 786.387 150.33 786.357 151.07 C 786.357 151.22 786.357 151.38 786.357 151.54 C 786.357 152.24 786.357 152.95 786.357 153.66 C 786.357 157.48 786.487 161.33 786.477 165.15 L 786.477 165.35 L 786.477 167.08 C 786.477 167.22 786.477 167.36 786.477 167.5 C 786.477 168.01 786.477 168.5 786.417 169.04 L 786.417 169.58 C 786.417 170.05 786.347 170.53 786.297 171 C 786.297 171.2 786.297 171.41 786.247 171.61 C 786.247 172.07 786.137 172.52 786.077 172.97 L 785.987 173.61 C 785.917 174.06 785.837 174.51 785.757 174.96 L 785.637 175.58 C 785.537 176.06 785.417 176.58 785.297 177.02 C 785.247 177.19 785.217 177.35 785.177 177.52 Q 784.907 178.52 784.577 179.44 C 781.54 187.958 774.599 194.5 765.917 197.03 C 764.305 197.474 762.638 197.683 760.967 197.65 C 757.967 197.58 755.097 196.65 753.317 194.6 C 752.877 195.1 752.447 195.6 751.987 196.1 C 738.75 210.496 719.322 217.527 699.938 214.938 C 680.553 212.349 663.652 200.465 654.657 183.1 C 653.607 182.87 652.567 182.66 651.517 182.46 C 649.697 182.12 647.867 181.8 646.027 181.46 L 644.257 181.18 L 644.257 181.18 L 643.557 181.06 C 634.557 179.64 625.817 178.69 619.557 178.06 L 644.297 181.13 C 644.297 181.13 650.297 209.94 652.027 213.13 C 652.027 213.13 646.027 221.64 646.027 221.64 C 646.027 221.64 639.337 229.8 639.337 232.29 C 639.337 232.29 631.597 241.87 629.487 245.77 C 629.219 246.265 628.882 246.719 628.487 247.12 C 630.049 247.724 631.491 248.601 632.747 249.71 C 637.637 254.34 636.007 262.46 638.247 268.82 C 639.647 272.82 642.577 276.06 645.397 279.21 C 646.41 280.238 647.259 281.415 647.917 282.7 C 648.284 283.551 648.51 284.456 648.587 285.38 L 648.587 285.38 C 648.637 285.892 648.657 286.406 648.647 286.92 L 648.647 287.1 C 648.647 287.5 648.647 287.89 648.567 288.28 C 648.567 288.45 648.567 288.62 648.567 288.79 C 648.077 292.97 646.657 297.01 646.227 301.19 C 645.797 305.37 646.317 309.58 645.457 313.65 C 645.159 315.069 644.696 316.449 644.077 317.76 L 658.397 333.76 C 658.397 333.76 658.487 334.55 658.517 335.85 C 670.457 345.76 688.917 364.46 682.327 380.95 Q 681.247 383.66 680.327 386.14 C 685.177 389.23 686.777 392.9 679.507 396.56 C 678.357 397.14 677.247 397.64 676.157 398.09 C 672.427 409.04 670.967 412.09 664.717 404.02 C 664.047 403.14 663.267 402.02 662.417 400.81 C 653.617 400.63 648.527 396.56 648.527 396.56 C 648.527 396.56 623.897 395.14 617.527 399.05 C 614.337 401.05 606.837 401.45 600.197 401.4 C 600.286 408.553 599.952 415.706 599.197 422.82 C 599.197 422.82 600.257 452.98 597.437 459.37 C 597.437 459.37 593.057 476.76 593.057 476.76 C 593.057 476.76 597.787 487.4 594.977 493.08 C 594.977 493.08 597.437 506.92 597.437 506.92 L 597.437 527.85 L 595.437 527.71 C 595.587 529.12 595.777 530.6 596.027 532.01 C 596.607 535.28 597.477 538.21 598.817 539.16 C 602.337 541.69 602.687 555.16 602.687 555.16 C 602.687 555.16 608.317 571.49 607.267 574.33 C 606.217 577.17 613.947 582.84 612.187 587.1 C 610.427 591.36 606.827 618.32 603.697 626.1 C 600.567 633.88 610.077 631.78 610.077 631.78 L 607.267 652 C 607.267 652 604.447 672.58 606.557 674 C 606.557 674 620.807 685.71 612.457 691.74 C 611.807 692.21 611.147 692.64 610.457 693.05 C 610.42 693.984 610.443 694.919 610.527 695.85 C 610.687 697.44 611.087 698.71 611.977 698.85 C 614.457 699.21 619.387 701.69 620.427 700.63 C 621.467 699.57 627.427 703.31 633.427 704.53 L 634.257 704.66 L 642.047 702.66 C 653.318 698.366 665.69 697.909 677.247 701.36 C 677.247 701.36 682.897 702.24 685.637 706.46 C 687.027 708.62 687.637 711.66 686.397 715.9 C 682.637 728.44 657.007 732.76 657.007 732.76 C 657.007 732.76 648.127 734.59 637.457 737.01 C 637.807 737.01 638.167 737.01 638.527 737.01 C 644.632 736.968 649.755 741.6 650.327 747.678 C 650.898 753.756 646.727 759.262 640.721 760.358 C 634.716 761.455 628.869 757.777 627.256 751.889 C 625.644 746.001 628.801 739.857 634.527 737.74 C 622.527 740.5 609.237 743.86 603.837 746.23 C 599.816 747.744 595.697 748.98 591.507 749.93 C 591.083 755.023 587.402 759.252 582.415 760.374 C 577.429 761.496 572.292 759.251 569.727 754.83 C 553.397 758.24 537.667 761.13 537.667 761.13 L 511.397 761.56 L 511.217 761.56 C 517.663 761.604 522.859 766.854 522.837 773.3 C 522.815 779.746 517.583 784.96 511.137 784.96 C 504.691 784.96 499.459 779.746 499.437 773.3 C 499.415 766.854 504.611 761.604 511.057 761.56 L 471.287 762.21 C 472.591 766.631 471.188 771.405 467.699 774.418 C 464.21 777.43 459.282 778.122 455.099 776.187 C 450.915 774.252 448.251 770.049 448.287 765.44 C 448.289 764.475 448.41 763.515 448.647 762.58 L 413.567 763.15 L 406.567 755.45 C 406.176 754.702 405.941 753.882 405.877 753.04 C 405.667 750.51 406.977 746.67 415.937 745.04 C 416.597 744.92 434.877 745.21 451.027 745.48 L 451.027 739.14 C 451.027 739.14 451.477 735.65 451.757 731.54 C 451.837 730.33 451.907 729.07 451.937 727.83 C 451.023 728.456 450.008 728.919 448.937 729.2 C 442.247 730.27 433.097 710.75 433.097 710.75 C 433.097 710.75 433.097 699.75 430.987 690.88 C 428.877 682.01 424.987 652.2 424.987 652.2 L 416.527 616.37 C 416.527 616.37 413.027 543.27 414.787 540.43 C 414.787 540.43 412.667 532.62 412.667 532.62 C 412.667 532.62 409.857 517.01 414.077 511.69 C 414.077 511.69 411.617 501.04 411.617 501.04 C 411.617 501.04 409.857 482.59 414.787 475.5 C 419.717 468.41 412.477 463.44 412.477 463.44 L 410.717 434.7 C 403.327 427.25 396.647 382.9 396.287 373.32 C 396.195 367.927 394.996 362.611 392.767 357.7 C 392.767 357.7 387.847 350.25 387.137 345.28 C 387.137 345.28 381.137 330.03 381.137 330.03 L 371.987 295.96 C 368.297 282.22 369.237 272.06 371.687 264.82 C 372.047 263.8 372.427 262.87 372.817 261.98 Z  M 538.127 263.98 C 532.497 267.53 534.257 268.59 532.497 270.72 C 530.737 272.85 532.147 272.49 533.557 276.04 C 534.967 279.59 533.907 278.53 533.207 282.43 C 532.507 286.33 532.847 286.33 532.847 286.33 L 531.087 286.58 L 533.537 303.05 C 537.537 305.66 539.367 310.66 540.197 315.82 C 542.557 312.74 544.937 309.54 547.067 306.56 C 546.337 304.93 546.477 302.99 546.457 301.16 C 546.377 295.16 544.137 289.43 543.107 283.52 C 542.055 277.508 542.249 271.344 543.677 265.41 C 544.19 263.177 544.979 261.017 546.027 258.98 C 543.747 260.5 540.857 262.3 538.127 264.02 L 538.127 263.98 Z  M 531.797 611.71 C 531.797 611.71 527.347 608.71 523.027 605.98 C 521.577 616.51 520.207 627.46 519.237 637.36 C 520.787 633.92 521.867 631.58 521.867 631.58 C 523.454 629.672 524.405 627.315 524.587 624.84 C 524.757 620.98 531.797 611.75 531.797 611.75 L 531.797 611.71 Z  M 558.187 246.99 C 557.187 247.13 555.767 248.4 554.427 249.92 C 555.667 248.92 556.917 247.92 558.197 246.98 L 558.187 246.99 Z  M 622.597 378.27 C 626.657 379.55 640.417 379.36 648.597 378.88 C 645.537 373.65 642.497 368.33 639.797 363.56 C 638.205 363.972 636.583 364.263 634.947 364.43 L 608.157 340.9 C 598.08 344.434 587.088 344.364 577.057 340.7 L 576.327 341.84 C 576.017 342.34 575.687 342.84 575.327 343.4 L 575.997 342.31 C 575.997 342.31 586.337 348.47 585.287 351.31 C 585.287 351.31 586.687 361.24 590.557 368.84 C 591.557 370.74 592.427 372.62 593.267 374.51 C 602.027 375.33 618.537 376.99 622.597 378.27 Z  M 571.767 706.11 L 571.917 703.3 C 570.217 702.93 569.097 702.59 569.097 702.59 C 569.448 698.42 570.036 694.273 570.857 690.17 C 571.917 685.91 571.367 687.33 567.247 684.17 C 563.127 681.01 567.247 645.17 567.247 645.17 C 567.247 645.17 565.247 642.68 562.077 649.07 C 558.907 655.46 555.727 659.36 554.667 659.71 C 553.607 660.06 558.897 667.17 554.667 673.91 C 552.041 678.27 550.253 683.083 549.397 688.1 C 549.397 688.1 552.207 699.37 547.987 704.38 C 547.417 704.964 546.737 705.429 545.987 705.75 C 545.987 706.68 545.987 707.67 545.987 708.6 C 545.987 710.47 545.987 712.07 546.077 712.41 C 546.16 712.897 546.493 713.306 546.953 713.486 C 547.414 713.666 547.935 713.592 548.327 713.29 C 549.417 712.58 556.327 714.17 555.857 718.62 C 557.491 720.551 559.343 722.286 561.377 723.79 L 570.967 721.31 L 571.767 706.11 Z " fill="url(#_lgradient_1)"/><path d=" M 658.137 338.5 C 658.137 338.5 661.487 365.95 634.917 368.76 L 630.917 349.76 L 639.287 338.5 L 651.277 334.44 L 658.137 338.5 Z " fill="rgb(108,99,255)"/><g opacity="0.1"><path d=" M 651.277 334.44 L 658.137 338.49 C 658.137 338.49 661.487 365.94 634.917 368.75" fill="rgb(0,0,0)"/></g><path d=" M 609.927 183.29 C 609.927 183.29 627.857 184.39 645.837 187.37 Q 648.597 187.84 651.327 188.37 C 652.387 188.57 653.427 188.78 654.467 189.01 C 663.887 190.95 672.467 193.47 677.467 196.69 C 683.467 200.54 685.467 190.17 685.657 175.76 C 685.737 170.69 685.567 165.13 685.297 159.51 C 684.947 153.01 684.437 146.43 683.897 140.51 C 682.707 127.39 681.337 117.19 681.337 117.19 C 681.337 117.19 675.057 117.19 666.667 116.9 L 663.967 116.8 C 661.337 116.7 658.547 116.56 655.737 116.39 C 654.407 116.32 653.067 116.24 651.737 116.14 C 646.417 115.76 641.167 115.22 636.737 114.52 C 632.017 113.76 628.187 112.8 626.107 111.52 C 616.607 105.86 609.927 183.29 609.927 183.29 Z " fill="rgb(248,189,197)"/><path d=" M 530.037 284.65 L 533.537 307.88 C 533.537 307.88 541.167 317.38 540.167 322.66 C 540.167 322.66 530.367 561.28 530.367 561.28 C 530.367 561.28 513.117 659.82 519.107 672.49 C 519.107 672.49 519.457 714.73 519.457 714.73 L 483.557 709.1 L 471.557 278.31 L 530.037 284.65 Z " fill="rgb(71,68,99)"/><g opacity="0.1"><path d=" M 530.037 284.65 L 533.537 307.88 C 533.537 307.88 541.167 317.38 540.167 322.66 C 540.167 322.66 530.367 561.28 530.367 561.28 C 530.367 561.28 513.117 659.82 519.107 672.49 C 519.107 672.49 519.457 714.73 519.457 714.73 L 483.557 709.1 L 471.557 278.31 L 530.037 284.65 Z " fill="rgb(0,0,0)"/></g><path d=" M 450.847 720.71 C 451.987 722.6 451.897 728.16 451.577 732.89 C 451.297 736.96 450.847 740.42 450.847 740.42 L 450.847 764.35 C 450.847 764.35 489.207 750.98 510.327 736.9 C 519.037 731.09 521.517 725.69 521.037 721.37 C 520.337 715.22 513.637 711.21 510.327 711.21 C 507.167 711.21 497.187 705.7 489.007 700.83 C 482.577 697.02 477.237 693.61 477.237 693.61 C 477.237 693.61 448.737 717.19 450.847 720.71 Z " fill="rgb(87,89,136)"/><g opacity="0.1"><path d=" M 646.24 720.71 C 645.1 722.6 645.19 728.16 645.51 732.89 C 636.98 728.89 610.57 703.27 608.08 700.83 C 614.51 697.02 619.85 693.61 619.85 693.61 C 619.85 693.61 648.35 717.19 646.24 720.71 Z " fill="rgb(0,0,0)"/></g><path d=" M 372.007 300.84 L 381.157 334.63 C 381.157 334.63 386.437 344.83 387.157 349.76 C 387.157 349.76 392.787 362.08 392.787 362.08 C 395.009 366.944 396.207 372.213 396.307 377.56 C 396.657 387.07 403.307 431.06 410.737 438.45 L 412.497 466.96 C 412.497 466.96 419.497 471.88 414.607 478.96 C 414.607 478.96 411.437 504.3 411.437 504.3 C 411.437 504.3 418.127 509.58 413.897 514.86 C 413.897 514.86 412.497 535.63 412.497 535.63 C 412.497 535.63 416.367 540.55 414.607 543.37 C 414.607 543.37 416.347 618.69 416.347 618.69 L 424.807 654.23 C 424.807 654.23 428.687 683.8 430.807 692.6 C 430.807 692.6 432.917 712.3 432.917 712.3 C 432.917 712.3 442.067 731.66 448.757 730.61 C 448.757 730.61 487.817 697.87 487.817 697.87 L 483.247 590.87 C 483.247 590.87 479.377 545.47 481.837 536.67 C 481.837 536.67 486.057 483.88 486.057 483.88 L 490.987 414.55 L 540.207 337.12 C 540.207 337.12 543.777 314.59 533.577 307.91 L 531.727 295.74 L 530.057 284.68 L 471.627 278.34 L 382.237 255.12 C 382.237 255.12 375.347 259.37 371.737 269.98 C 369.267 277.13 368.317 287.21 372.007 300.84 Z " fill="rgb(71,68,99)"/><path d=" M 527.537 336.44 C 527.537 336.44 569.067 387.44 567.307 373.19 C 566.207 364.24 571.887 353.31 576.307 346.4 C 578.917 342.29 581.077 339.6 581.077 339.6 C 581.077 339.6 555.737 293.15 554.327 299.48 C 553.877 301.48 550.947 306.07 547.177 311.31 C 539.227 322.29 527.537 336.44 527.537 336.44 Z " fill="rgb(255,193,200)"/><g opacity="0.3"><path d=" M 450.847 759.37 L 450.847 764.37 C 450.847 764.37 489.207 751 510.327 736.92 C 519.037 731.11 521.517 725.71 521.037 721.39 C 509.377 727.29 487.687 738.54 481.117 743.61 C 475.537 747.91 461.117 754.72 450.847 759.37 Z " fill="rgb(255,255,255)"/></g><circle vector-effect="non-scaling-stroke" cx="637.21" cy="766.63" r="11.730000000000018" fill="rgb(71,68,99)"/><circle vector-effect="non-scaling-stroke" cx="579.6969363417141" cy="750.16" r="11.730000000000018" fill="rgb(71,68,99)"/><path d=" M 405.697 754.33 C 405.763 755.165 405.998 755.978 406.387 756.72 L 413.387 764.35 L 511.227 762.78 L 537.537 762.35 C 537.537 762.35 592.917 752.27 603.707 747.57 C 603.707 747.57 656.917 734.27 656.917 734.27 C 656.917 734.27 682.537 729.97 686.297 717.54 C 687.567 713.33 686.927 710.32 685.537 708.18 C 682.807 703.99 677.147 703.11 677.147 703.11 C 665.586 699.695 653.225 700.152 641.947 704.41 L 477.947 746.6 L 475.407 747.25 C 475.407 747.25 416.947 746.16 415.767 746.37 C 406.797 748.01 405.487 751.82 405.697 754.33 Z " fill="rgb(64,62,168)"/><g opacity="0.3"><path d=" M 405.697 754.33 C 415.537 753.05 432.697 751.16 437.117 752.98 C 437.117 752.98 468.327 749.12 511.267 762.78 L 537.537 762.35 C 537.537 762.35 592.917 752.27 603.707 747.57 C 603.707 747.57 656.917 734.27 656.917 734.27 C 656.917 734.27 682.537 729.97 686.297 717.54 C 687.567 713.33 686.927 710.32 685.537 708.18 C 683.787 713.28 680.417 720.67 675.037 722.74 C 666.587 725.99 631.857 732.61 631.857 732.61 L 563.117 749.44 C 563.117 749.44 523.427 758.05 507.977 752.44 C 501.647 750.16 489.767 748.13 477.977 746.54 L 475.437 747.19 C 475.437 747.19 416.977 746.1 415.797 746.31 C 406.797 748.01 405.487 751.82 405.697 754.33 Z " fill="rgb(255,255,255)"/></g><path d=" M 500.627 741.66 C 500.71 743.134 500.894 744.601 501.177 746.05 C 501.177 746.05 540.057 747.44 560.297 744.44 C 565.887 743.61 569.047 741.82 570.617 739.68 C 572.041 737.625 572.317 734.985 571.347 732.68 C 571.123 732.028 570.839 731.399 570.497 730.8 C 568.987 728.16 566.667 726.29 565.397 726.54 C 561.877 727.25 555.837 720.03 555.837 720.03 C 556.317 715.62 549.387 714.03 548.307 714.75 C 547.915 715.052 547.394 715.126 546.933 714.946 C 546.473 714.766 546.14 714.357 546.057 713.87 C 545.987 713.54 545.967 711.95 545.967 710.09 C 545.967 706.99 546.057 703.09 546.057 703.09 L 506.977 707.84 L 505.427 715.31 C 504.007 721.97 502.027 731.12 501.177 734.25 C 500.586 736.673 500.4 739.177 500.627 741.66 L 500.627 741.66 Z " fill="rgb(71,68,99)"/><g opacity="0.1"><path d=" M 500.627 741.66 C 500.71 743.134 500.894 744.601 501.177 746.05 C 501.177 746.05 540.057 747.44 560.297 744.44 C 565.887 743.61 569.047 741.82 570.617 739.68 C 565.427 739.37 558.677 739.2 554.497 740.22 C 548.537 741.7 512.887 741.7 500.627 741.66 Z " fill="rgb(0,0,0)"/></g><path d=" M 570.537 730.78 C 570.45 731.516 570.777 732.239 571.387 732.66 C 576.307 736.46 599.917 732.33 599.917 732.33 C 599.917 732.33 648.157 729.33 655.367 724.41 C 656.018 723.982 656.562 723.411 656.957 722.74 C 659.957 717.32 649.097 708.22 648.157 708.22 C 647.217 708.22 634.247 706.45 633.377 706.28 C 627.377 705.07 621.377 701.35 620.377 702.41 C 619.377 703.47 614.377 701 611.937 700.65 C 611.047 700.52 610.637 699.26 610.487 697.65 C 610.346 695.471 610.42 693.284 610.707 691.12 L 572.177 701.49 L 571.837 707.63 L 570.727 728.07 L 570.587 730.58 C 570.563 730.645 570.546 730.712 570.537 730.78 L 570.537 730.78 Z " fill="rgb(71,68,99)"/><g opacity="0.1"><path d=" M 599.877 732.33 C 599.877 732.33 648.117 729.33 655.327 724.41 C 655.978 723.982 656.522 723.411 656.917 722.74 C 647.147 723.54 630.857 724.89 627.917 725.64 C 623.687 726.64 599.917 728.1 599.917 728.1 L 570.687 728.1 L 570.547 730.61 C 569.277 737.69 599.877 732.33 599.877 732.33 Z " fill="rgb(0,0,0)"/></g><circle vector-effect="non-scaling-stroke" cx="638.4369363417142" cy="750.16" r="11.730000000000018" fill="rgb(71,68,99)"/><circle vector-effect="non-scaling-stroke" cx="511.0369363417142" cy="774.51" r="11.730000000000018" fill="rgb(71,68,99)"/><path d=" M 630.337 351.17 C 630.337 351.17 632.557 355.17 635.897 361.11 C 643.897 375.23 658.287 400.26 664.477 408.18 C 673.277 419.44 672.567 408.89 682.077 385.31 C 689.137 367.77 667.407 347.7 655.787 338.58 C 651.787 335.41 648.987 333.58 648.987 333.58 L 630.337 351.17 Z " fill="rgb(248,189,197)"/><path d=" M 587.757 378.27 C 587.757 378.27 616.967 380.73 622.597 382.49 C 622.597 382.49 652.507 383.19 654.597 382.49 C 654.597 382.49 698.247 391.29 679.237 400.79 C 679.237 400.79 648.237 400.79 648.237 400.79 C 648.237 400.79 623.597 399.38 617.237 403.26 C 617.237 403.26 587.677 405.02 587.677 405.02 L 587.757 378.27 Z " fill="rgb(255,193,200)"/><g opacity="0.1"><path d=" M 648.437 162.88 C 644.837 172.09 647.087 180.11 651.327 188.34 C 661.947 190.34 671.937 193.09 677.497 196.66 C 693.337 206.87 681.367 117.12 681.367 117.12 C 681.367 117.12 673.707 117.12 663.997 116.73 C 666.937 130.15 655.797 144.08 648.437 162.88 Z " fill="rgb(0,0,0)"/></g><path d=" M 647.537 160.88 C 647.576 191.398 670.516 217.024 700.843 220.429 C 731.17 223.834 759.221 203.932 766.026 174.183 C 772.831 144.434 756.222 114.316 727.43 104.197 C 698.639 94.079 666.839 107.184 653.537 134.65 C 649.577 142.826 647.525 151.795 647.537 160.88 L 647.537 160.88 Z " fill="rgb(248,189,197)"/><g opacity="0.1"><path d=" M 371.717 269.95 C 373.617 272.715 376.462 274.689 379.717 275.5 C 393.447 279.37 490.237 302.6 496.567 301.19 C 502.157 299.95 526.147 296.5 531.677 295.71 L 530.007 284.65 L 471.577 278.31 L 382.187 255.09 C 382.187 255.09 375.327 259.34 371.717 269.95 Z " fill="rgb(0,0,0)"/></g><g opacity="0.1"><path d=" M 609.927 183.29 C 621.367 183.976 632.766 185.244 644.077 187.09 C 643.916 186.575 643.937 186.021 644.137 185.52 L 620.737 182.63 C 620.737 182.63 624.157 127.63 636.737 114.45 C 632.017 113.69 628.187 112.73 626.107 111.45 C 616.607 105.86 609.927 183.29 609.927 183.29 Z " fill="rgb(0,0,0)"/></g><path d=" M 640.537 100.69 C 640.537 100.69 619.767 98.82 616.957 95.3 C 616.957 95.3 594.077 90.73 594.077 90.73 C 594.077 90.73 584.227 88.97 582.077 86.5 C 582.077 86.5 526.477 80.87 521.197 83.69 C 521.197 83.69 510.987 88.26 507.817 88.62 C 507.817 88.62 480.017 106.56 477.557 106.56 C 477.557 106.56 407.557 170.27 407.557 170.27 C 407.557 170.27 400.557 186.46 397.697 187.16 C 394.837 187.86 369.537 251.92 369.537 251.92 C 369.537 251.92 366.017 267.4 379.737 271.28 C 393.457 275.16 490.257 298.38 496.587 296.97 C 502.917 295.56 532.837 291.34 532.837 291.34 C 532.837 291.34 532.487 291.34 533.187 287.47 C 533.887 283.6 534.947 284.65 533.547 281.13 C 532.147 277.61 530.727 277.96 532.487 275.85 C 534.247 273.74 532.487 272.68 538.117 269.16 C 543.747 265.64 550.117 261.77 550.437 260.72 C 550.757 259.67 555.717 252.62 558.177 252.27 C 560.637 251.92 629.627 232.56 629.627 232.56 L 645.817 227.28 C 645.817 227.28 653.557 222 651.817 218.84 C 651.817 218.84 644.087 187.09 644.087 187.09 L 619.337 184.04 C 619.337 184.04 623.027 124.44 636.887 114.44 C 636.887 114.44 640.537 100.69 640.537 100.69 Z " fill="rgb(64,62,168)"/><g opacity="0.1"><path d=" M 630.337 351.17 C 630.337 351.17 632.557 355.17 635.897 361.11 C 636.417 342.75 649.257 339.19 655.787 338.58 C 651.787 335.41 648.987 333.58 648.987 333.58 L 630.337 351.17 Z " fill="rgb(0,0,0)"/></g><path d=" M 647.537 217.78 L 645.837 227.28 C 645.837 227.28 639.147 235.38 639.147 237.84 C 639.147 237.84 631.407 247.34 629.287 251.21 C 629.287 251.21 619.787 255.79 622.607 262.48 C 622.607 262.48 641.607 320.2 641.607 320.2 L 658.147 338.5 C 658.147 338.5 630.697 336.03 634.927 368.76 L 599.377 337.76 L 571.537 287.11 C 571.537 287.11 598.637 235.73 599.687 231.51 C 600.737 227.29 647.537 217.78 647.537 217.78 Z " fill="rgb(64,62,168)"/><g opacity="0.1"><path d=" M 565.227 235.38 C 565.227 235.38 542.707 219.54 542.707 217.78 C 542.707 216.02 565.227 235.38 565.227 235.38 Z " fill="rgb(0,0,0)"/></g><g opacity="0.1"><path d=" M 527.537 255.09 C 527.537 255.09 515.537 252.27 514.537 245.94 C 513.537 239.61 527.537 255.09 527.537 255.09 Z " fill="rgb(0,0,0)"/></g><g opacity="0.1"><path d=" M 517.717 271.28 C 517.717 271.28 500.817 262.91 501.527 261.46 C 502.237 260.01 517.717 271.28 517.717 271.28 Z " fill="rgb(0,0,0)"/></g><g opacity="0.1"><path d=" M 669.82 217.67 C 669.82 217.67 662.82 222.24 664.9 226.52 C 666.98 230.8 669.82 217.67 669.82 217.67 Z " fill="rgb(0,0,0)"/></g><g opacity="0.1"><path d=" M 690.55 219.54 C 690.55 219.54 670.61 238.54 675.12 238.9 C 679.63 239.26 690.55 219.54 690.55 219.54 Z " fill="rgb(0,0,0)"/></g><g opacity="0.1"><path d=" M 645.19 514.12 C 645.19 514.12 670.88 519.05 671.58 520.81 C 672.28 522.57 645.19 514.12 645.19 514.12 Z " fill="rgb(0,0,0)"/></g><g opacity="0.1"><path d=" M 654.34 531.01 C 654.34 531.01 668.06 539.46 668.41 541.92 C 668.76 544.38 654.34 531.01 654.34 531.01 Z " fill="rgb(0,0,0)"/></g><g opacity="0.1"><path d=" M 651.17 550.02 C 651.17 550.02 653.28 559.52 656.8 560.93 C 660.32 562.34 651.17 550.02 651.17 550.02 Z " fill="rgb(0,0,0)"/></g><g opacity="0.1"><path d=" M 653.477 134.34 C 653.477 134.44 653.477 134.55 653.527 134.65 C 654.007 137.78 655.287 141.17 658.227 142.21 C 660.003 142.71 661.902 142.535 663.557 141.72 C 668.557 139.53 673.007 134.27 678.347 135.54 C 680.887 136.14 682.667 138.07 683.927 140.44 C 684.801 142.146 685.472 143.948 685.927 145.81 C 686.927 149.73 687.727 153.99 686.197 157.72 C 685.945 158.33 685.644 158.919 685.297 159.48 C 683.877 161.75 681.877 163.68 680.477 165.97 C 678.737 168.83 678.287 173.12 680.997 175.08 C 682.374 175.985 684.085 176.224 685.657 175.73 C 687.642 175.106 689.551 174.261 691.347 173.21 C 694.887 171.36 699.347 170.21 702.707 172.35 C 703.867 173.07 704.797 174.11 705.907 174.87 C 708.214 176.299 710.951 176.869 713.637 176.48 C 719.997 175.83 722.377 171.8 727.237 168.68 C 730.797 166.38 738.237 165.4 740.357 170.1 C 741.717 173.1 739.697 176.88 741.027 179.94 C 742.357 183 746.587 183.94 748.547 186.78 C 751.127 190.52 748.727 195.93 750.617 200.08 C 750.906 200.723 751.294 201.317 751.767 201.84 C 773.791 178.108 773.092 141.205 750.184 118.324 C 727.277 95.444 690.373 94.788 666.667 116.84 L 663.967 116.74 C 661.337 116.64 658.547 116.5 655.737 116.33 C 655.073 117.737 654.553 119.208 654.187 120.72 C 653.099 125.175 652.858 129.796 653.477 134.34 L 653.477 134.34 Z " fill="rgb(0,0,0)"/></g><path d=" M 741.787 168.7 C 743.157 171.7 741.137 175.48 742.457 178.53 C 743.777 181.58 748.037 182.53 749.977 185.37 C 752.567 189.12 750.167 194.53 752.047 198.67 C 754.207 203.4 760.727 204.14 765.727 202.76 C 774.393 200.285 781.338 193.791 784.387 185.31 C 787.777 175.66 785.587 165.04 786.467 154.85 C 786.842 150.483 787.783 146.184 789.267 142.06 C 790.717 138.06 792.697 134.12 793.167 129.87 C 793.855 122.492 789.982 115.439 783.387 112.06 C 779.267 110.06 774.197 109.49 771.197 106.06 C 768.897 103.4 768.407 99.69 767.337 96.34 C 764.447 87.34 755.817 80 746.337 80.09 C 738.757 80.15 731.337 84.62 723.927 82.86 C 719.737 81.86 715.927 78.86 711.607 79.29 C 709.538 79.615 707.555 80.353 705.777 81.46 C 694.275 87.672 683.331 94.866 673.067 102.96 C 670.944 104.789 668.619 106.369 666.137 107.67 C 664.539 108.293 662.979 109.011 661.467 109.82 C 658.237 111.82 656.547 115.63 655.627 119.33 C 654.523 123.783 654.271 128.404 654.887 132.95 C 655.327 136.16 656.587 139.76 659.637 140.83 C 661.419 141.327 663.321 141.145 664.977 140.32 C 669.977 138.15 674.417 132.89 679.757 134.15 C 684.117 135.15 686.217 140.09 687.357 144.42 C 688.357 148.34 689.177 152.6 687.627 156.34 C 686.347 159.44 683.627 161.71 681.917 164.58 C 680.207 167.45 679.717 171.74 682.437 173.69 C 685.437 175.86 689.507 173.55 692.797 171.83 C 696.317 169.98 700.797 168.83 704.147 170.96 C 705.297 171.68 706.227 172.72 707.347 173.49 C 709.656 174.905 712.386 175.471 715.067 175.09 C 721.437 174.44 723.817 170.41 728.667 167.29 C 732.237 164.97 739.657 163.99 741.787 168.7 Z " fill="rgb(71,68,99)"/><g opacity="0.1"><path d=" M 547.167 311.26 C 547.437 312.76 549.497 312.93 549.917 314.39 C 553.917 328.5 562.717 341.19 576.297 346.39 C 578.907 342.28 581.067 339.59 581.067 339.59 C 581.067 339.59 555.727 293.14 554.317 299.47 C 553.867 301.44 550.937 306.02 547.167 311.26 Z " fill="rgb(0,0,0)"/></g><path d=" M 546.417 301.54 C 546.413 320.332 557.73 337.276 575.091 344.471 C 592.451 351.665 612.436 347.692 625.726 334.406 C 639.015 321.119 642.992 301.135 635.801 283.773 C 628.611 266.411 611.669 255.09 592.877 255.09 C 580.543 255.045 568.701 259.924 559.978 268.644 C 551.256 277.365 546.374 289.206 546.417 301.54 L 546.417 301.54 Z " fill="rgb(255,193,200)"/><g opacity="0.1"><path d=" M 572.097 701.52 L 571.757 707.66 C 575.827 708.56 583.567 709.74 588.077 706.98 C 593.907 703.41 602.517 702.54 610.407 697.68 C 610.266 695.501 610.34 693.314 610.627 691.15 L 572.097 701.52 Z " fill="rgb(0,0,0)"/></g><g opacity="0.1"><path d=" M 505.427 715.33 C 505.697 716.7 505.947 717.54 505.947 717.54 C 505.947 717.54 536.997 714.36 545.947 710.07 C 545.947 706.97 546.037 703.07 546.037 703.07 L 506.957 707.82 L 505.427 715.33 Z " fill="rgb(0,0,0)"/></g><path d=" M 512.437 575.71 C 514.547 581.34 515.607 582.4 513.487 585.21 C 511.367 588.02 512.437 602.81 515.797 604.21 C 519.157 605.61 531.797 614.06 531.797 614.06 C 531.797 614.06 524.797 623.21 524.587 627.06 C 524.403 629.52 523.452 631.86 521.867 633.75 C 521.867 633.75 511.027 656.98 508.867 664.37 C 508.867 664.37 504.727 683.37 504.727 683.37 C 504.727 683.37 508.517 693.93 505.897 699.92 C 505.897 699.92 505.897 714.7 505.897 714.7 C 505.897 714.7 543.707 710.83 547.897 705.86 C 547.897 705.86 549.297 689.71 549.297 689.71 C 550.161 684.728 551.952 679.952 554.577 675.63 C 558.807 668.94 553.577 661.91 554.577 661.55 C 555.577 661.19 558.807 657.33 561.987 651 C 565.167 644.67 567.147 647.12 567.147 647.12 C 567.147 647.12 563.027 682.67 567.147 685.84 C 571.267 689.01 571.827 687.6 570.767 691.84 C 569.946 695.91 569.358 700.023 569.007 704.16 C 569.007 704.16 581.677 708.03 588.007 704.16 C 588.007 704.16 603.867 699.58 612.237 693.6 C 612.237 693.6 608.447 677.41 606.337 676 C 606.337 676 607.037 654.18 607.037 654.18 L 609.857 634.12 C 609.857 634.12 600.357 636.23 603.477 628.49 C 603.477 628.49 610.207 594 611.967 589.78 C 611.967 589.78 605.967 579.92 607.037 577.11 C 607.037 577.11 602.467 558.11 602.467 558.11 C 602.467 558.11 602.107 544.74 598.597 542.23 C 597.257 541.29 596.387 538.37 595.807 535.14 C 595.192 531.328 594.827 527.48 594.717 523.62 C 594.717 523.62 514.127 517.99 501.107 525.73 C 495.247 529.21 495.657 535.62 498.107 542.11 C 501.107 550.03 507.267 558.11 508.817 561.04 C 511.727 566.44 510.327 570.08 512.437 575.71 Z " fill="rgb(87,89,136)"/><g opacity="0.1"><path d=" M 498.207 542.11 C 508.207 544.92 521.527 549.05 523.697 551.42 C 527.217 555.3 539.187 529.6 539.187 529.6 C 539.187 529.6 538.477 548.92 554.317 540.84 C 568.027 533.84 590.157 534.76 595.877 535.14 C 595.262 531.328 594.897 527.48 594.787 523.62 C 594.787 523.62 514.197 517.99 501.177 525.73 C 495.317 529.21 495.727 535.62 498.207 542.11 Z " fill="rgb(0,0,0)"/></g><path d=" M 539.187 329.35 C 539.187 329.35 532.187 320.9 530.737 324.07 C 530.737 324.07 521.027 333.57 521.027 333.57 C 521.027 333.57 518.657 340.96 514.487 342.02 C 514.487 342.02 478.997 385.31 478.997 385.31 L 490.267 408.18 L 499.417 463.79 C 499.417 463.79 499.017 472.59 501.507 475.79 C 501.507 475.79 513.507 478.25 509.097 482.12 C 509.097 482.12 498.357 489.51 494.837 507.12 C 494.837 507.12 487.097 534.92 487.097 534.92 C 487.097 534.92 520.177 543.37 523.697 547.24 C 523.697 547.24 539.187 525.42 539.187 525.42 C 539.187 525.42 538.477 544.73 554.317 536.66 C 554.317 536.66 597.257 531.05 597.257 531.05 L 597.257 510.25 C 597.257 510.25 591.977 502.15 594.787 496.52 C 594.787 496.52 592.867 480.33 592.867 480.33 C 592.867 480.33 594.437 469.42 597.257 463.09 C 597.257 463.09 599.017 426.84 599.017 426.84 C 599.017 426.84 601.157 407.48 599.207 397.62 C 597.552 389.074 594.63 380.823 590.537 373.14 C 586.667 365.6 584.217 358.56 585.267 355.74 C 586.317 352.92 575.977 346.82 575.977 346.82 L 570.247 356.09 L 568.787 361.63 C 568.787 361.63 538.477 339.91 539.187 329.35 Z " fill="rgb(220,230,242)"/><path d=" M 488.537 378.27 C 488.537 378.27 468.827 397.62 466.717 400.79 C 464.607 403.96 457.537 420.44 466.687 425.44 C 475.837 430.44 511.687 438.15 515.247 435.49 C 518.807 432.83 540.247 438.49 540.247 438.49 C 540.247 438.49 576.107 447.29 568.367 432.86 C 560.627 418.43 542.317 420.86 542.317 420.86 C 542.317 420.86 512.737 420.81 509.577 417.86 C 506.417 414.91 482.577 408.58 487.977 395.54 C 493.377 382.5 488.537 378.27 488.537 378.27 Z " fill="rgb(255,193,200)"/><g opacity="0.1"><path d=" M 546.417 464.85 C 546.417 464.85 592.327 504.62 587.757 504.62 C 583.187 504.62 546.417 464.85 546.417 464.85 Z " fill="rgb(0,0,0)"/></g><g opacity="0.1"><path d=" M 515.797 481.04 C 515.797 481.04 530.387 484.55 527.567 486.67 C 524.747 488.79 515.797 481.04 515.797 481.04 Z " fill="rgb(0,0,0)"/></g><g opacity="0.1"><path d=" M 567.247 384.6 C 567.247 384.6 549.037 386.23 552.247 391.93 C 555.457 397.63 567.247 384.6 567.247 384.6 Z " fill="rgb(0,0,0)"/></g><g opacity="0.1"><path d=" M 578.597 555.53 C 578.597 555.53 581.067 562.69 578.597 566.53 C 578.597 566.53 578.597 579.53 578.597 579.53 L 578.597 611.53 C 578.597 611.53 578.937 634.76 570.507 642.85 L 578.597 555.53 Z " fill="rgb(0,0,0)"/></g><g opacity="0.1"><path d=" M 602.707 655.25 C 602.707 655.25 597.787 662.46 597.077 665.1 C 596.367 667.74 602.707 655.25 602.707 655.25 Z " fill="rgb(0,0,0)"/></g><g opacity="0.1"><path d=" M 601.477 640.82 C 601.477 640.82 590.037 638.71 588.277 639.94 C 586.517 641.17 601.477 640.82 601.477 640.82 Z " fill="rgb(0,0,0)"/></g><g opacity="0.1"><path d=" M 604.817 683.93 C 604.817 683.93 608.167 684.28 601.477 687.93 C 601.477 687.93 581.767 696.2 581.597 694.62 C 581.427 693.04 604.817 683.93 604.817 683.93 Z " fill="rgb(0,0,0)"/></g><g opacity="0.1"><path d=" M 555.847 648.91 C 554.667 648.91 539.937 648.03 540.787 650.32 C 541.637 652.61 555.847 648.91 555.847 648.91 Z " fill="rgb(0,0,0)"/></g><g opacity="0.1"><path d=" M 535.837 628.32 C 535.837 628.32 532.497 622.52 531.267 624.98 C 530.037 627.44 535.837 628.32 535.837 628.32 Z " fill="rgb(0,0,0)"/></g><g opacity="0.1"><path d=" M 546.417 301.54 C 546.412 305.859 547.011 310.157 548.197 314.31 C 550.137 316.07 553.487 316.09 555.877 314.78 C 558.677 313.24 560.507 310.44 562.327 307.78 C 564.147 305.12 566.217 302.46 569.197 301.32 C 572.967 299.9 577.267 301.32 580.547 303.68 C 583.827 306.04 586.447 309.16 589.547 311.68 C 592.647 314.2 596.597 316.24 600.547 315.62 C 603.097 315.23 605.357 313.79 607.547 312.4 C 610.547 310.51 613.767 307.57 617.057 306.3 C 620.347 305.03 623.057 307.3 626.187 307.3 C 628.677 308.2 631.387 310.25 630.887 312.84 C 630.619 313.801 630.186 314.708 629.607 315.52 C 627.552 319.568 628.132 324.455 631.077 327.91 C 642.452 311.465 642.029 289.587 630.027 273.594 C 618.026 257.601 597.138 251.081 578.169 257.406 C 559.201 263.732 546.407 281.485 546.407 301.48 L 546.417 301.54 Z " fill="rgb(0,0,0)"/></g><path d=" M 626.197 305.95 C 628.687 306.85 631.397 308.9 630.907 311.5 C 630.629 312.456 630.193 313.358 629.617 314.17 C 626.697 319.38 629.167 326.86 634.617 329.28 C 635.471 329.725 636.447 329.879 637.397 329.72 C 638.15 329.486 638.836 329.075 639.397 328.52 C 642.328 325.9 644.349 322.415 645.167 318.57 C 646.027 314.57 645.497 310.33 645.937 306.22 C 646.377 302.11 647.787 298.06 648.277 293.92 C 648.624 291.874 648.406 289.772 647.647 287.84 C 646.987 286.565 646.138 285.399 645.127 284.38 C 642.317 281.25 639.387 278.05 637.977 274.08 C 635.747 267.76 637.367 259.71 632.487 255.08 C 630.227 252.96 627.067 252.17 624.267 250.83 C 621.631 249.43 619.106 247.829 616.717 246.04 C 607.667 239.82 596.667 235.04 585.907 237.24 C 581.608 238.281 577.491 239.967 573.697 242.24 C 566.649 246.125 559.957 250.622 553.697 255.68 C 550.99 257.682 548.626 260.11 546.697 262.87 C 545.26 265.233 544.226 267.818 543.637 270.52 C 542.2 276.415 542.003 282.545 543.057 288.52 C 544.057 294.38 546.327 300.07 546.417 306.02 C 546.417 308.02 546.257 310.18 547.287 311.9 C 548.937 314.64 553.027 314.9 555.827 313.38 C 558.627 311.86 560.457 309.04 562.267 306.38 C 564.077 303.72 566.157 301.06 569.137 299.93 C 572.907 298.5 577.207 299.93 580.487 302.28 C 583.767 304.63 586.377 307.76 589.487 310.28 C 592.597 312.8 596.487 314.84 600.487 314.22 C 603.037 313.83 605.297 312.4 607.487 311.01 C 610.487 309.11 613.707 306.17 616.987 304.91 C 620.267 303.65 623.077 305.95 626.197 305.95 Z " fill="rgb(121,79,106)"/><path d=" M 519.477 378.27 C 519.477 378.27 571.207 426.13 560.657 450.06 C 560.657 450.06 503.657 431.76 503.657 431.76 L 487.097 393.44 L 519.477 378.27 Z " fill="rgb(248,189,197)"/><g style="opacity:0.1;"><g opacity="0.1"><path d=" M 634.637 326.44 C 635.488 326.885 636.46 327.039 637.407 326.88 C 638.163 326.648 638.851 326.233 639.407 325.67 C 642.338 323.053 644.362 319.572 645.187 315.73 C 646.037 311.68 645.507 307.48 645.947 303.37 C 646.387 299.26 647.807 295.22 648.287 291.07 C 648.287 290.87 648.287 290.66 648.337 290.45 C 648.445 291.595 648.429 292.749 648.287 293.89 C 647.807 298.03 646.387 302.03 645.947 306.19 C 645.507 310.35 646.037 314.5 645.187 318.54 C 644.365 322.386 642.341 325.871 639.407 328.49 C 638.848 329.046 638.161 329.458 637.407 329.69 C 636.46 329.849 635.488 329.695 634.637 329.25 C 630.337 327.34 627.907 322.31 628.477 317.71 C 628.901 321.483 631.225 324.776 634.637 326.44 L 634.637 326.44 Z " fill="rgb(0,0,0)"/></g><g opacity="0.1"><path d=" M 543.127 285.69 C 544.127 291.55 546.397 297.24 546.477 303.19 C 546.477 305.19 546.317 307.35 547.357 309.07 C 548.997 311.81 553.087 312.07 555.887 310.55 C 558.687 309.03 560.517 306.22 562.337 303.55 C 564.157 300.88 566.217 298.23 569.207 297.1 C 572.967 295.68 577.267 297.1 580.547 299.46 C 583.827 301.82 586.447 304.93 589.547 307.46 C 592.647 309.99 596.597 312.02 600.547 311.41 C 603.097 311.01 605.357 309.58 607.547 308.19 C 610.547 306.29 613.767 303.36 617.047 302.09 C 620.327 300.82 623.047 303.09 626.177 303.09 C 628.667 304 631.377 306.04 630.897 308.65 C 630.836 308.932 630.745 309.207 630.627 309.47 C 629.647 307.763 628.057 306.491 626.177 305.91 C 623.057 305.91 620.297 303.67 617.047 304.91 C 613.797 306.15 610.517 309.11 607.547 311.01 C 605.377 312.4 603.117 313.83 600.547 314.22 C 596.547 314.84 592.627 312.83 589.547 310.28 C 586.467 307.73 583.817 304.58 580.547 302.28 C 577.277 299.98 572.967 298.5 569.207 299.93 C 566.207 301.06 564.147 303.75 562.337 306.38 C 560.527 309.01 558.687 311.8 555.887 313.38 C 553.087 314.96 548.997 314.64 547.357 311.9 C 546.357 310.18 546.507 308.03 546.477 306.02 C 546.397 300.07 544.157 294.38 543.127 288.52 C 542.599 285.51 542.385 282.454 542.487 279.4 C 542.55 281.509 542.764 283.611 543.127 285.69 L 543.127 285.69 Z " fill="rgb(0,0,0)"/></g></g><g opacity="0.1"><path d=" M 581.417 134.72 C 581.417 134.72 600.417 169.21 574.417 186.81 C 574.417 186.81 545.907 202.65 545.907 202.65 C 545.907 202.65 546.267 206.87 545.907 207.93 C 545.907 207.93 538.907 211.44 538.907 211.44 C 538.907 211.44 530.817 224.44 519.207 230.1 C 519.207 230.1 505.477 249.1 505.477 249.1 C 505.477 249.1 505.477 253.68 499.477 257.9 C 493.477 262.12 488.857 274.44 488.857 274.44 L 488.857 285.71 C 488.857 287.47 486.747 292.71 491.317 293.27 C 495.887 293.83 492.027 304.36 492.027 304.36 C 492.027 304.36 496.947 310.36 495.897 313.16 C 494.847 315.96 498.007 321.6 498.007 321.6 C 498.007 321.6 501.877 327.23 501.527 328.29 C 501.177 329.35 505.747 333.22 504.697 335.68 C 503.647 338.14 509.967 341.31 508.917 344.13 C 507.867 346.95 513.417 348.35 513.417 348.35 L 528.627 383.55 C 528.627 383.55 496.627 390.55 488.367 408.18 L 448.027 334.27 C 448.027 334.27 425.507 279.02 424.797 275.5 C 424.797 275.5 429.727 259.31 429.727 259.31 L 457.177 209.31 L 498.357 151.24 C 498.357 151.24 531.087 81.58 581.417 134.72 Z " fill="rgb(0,0,0)"/></g><g opacity="0.1"><path d=" M 540.787 149.27 C 540.787 149.27 590.227 166.62 564.187 184.22 C 564.187 184.22 535.677 200.05 535.677 200.05 C 535.677 200.05 536.027 204.28 535.677 205.33 C 535.677 205.33 528.677 208.85 528.677 208.85 C 528.677 208.85 520.577 221.85 508.967 227.51 C 508.967 227.51 495.237 246.51 495.237 246.51 C 495.237 246.51 495.237 251.09 489.237 255.31 C 489.237 255.31 478.677 271.85 478.677 271.85 L 478.677 283.11 C 478.677 284.87 476.567 290.11 481.147 290.68 C 485.727 291.25 481.847 301.77 481.847 301.77 C 481.847 301.77 486.777 307.77 485.717 310.56 C 484.657 313.35 487.827 319.01 487.827 319.01 C 487.827 319.01 491.697 324.64 491.347 325.7 C 490.997 326.76 495.577 330.63 494.517 333.09 C 493.457 335.55 499.797 338.72 498.737 341.54 C 497.677 344.36 503.247 345.76 503.247 345.76 L 518.447 380.95 C 518.447 380.95 492.087 382.31 483.767 399.95 L 437.857 331.72 C 437.857 331.72 415.327 276.47 414.627 272.95 C 413.927 269.43 419.537 256.72 419.537 256.72 L 446.987 206.72 L 509.607 170.6 C 509.607 170.6 490.457 96.12 540.787 149.27 Z " fill="rgb(0,0,0)"/></g><path d=" M 578.597 134.72 C 578.597 134.72 597.597 169.21 571.597 186.81 C 571.597 186.81 543.087 202.65 543.087 202.65 C 543.087 202.65 543.437 206.87 543.087 207.93 C 543.087 207.93 536.087 211.44 536.087 211.44 C 536.087 211.44 527.987 224.44 516.377 230.1 C 516.377 230.1 502.647 249.1 502.647 249.1 C 502.647 249.1 502.647 253.68 496.647 257.9 C 490.647 262.12 486.037 274.44 486.037 274.44 L 486.037 285.71 C 486.037 287.47 483.927 292.71 488.507 293.27 C 493.087 293.83 489.207 304.36 489.207 304.36 C 489.207 304.36 494.137 310.36 493.077 313.16 C 492.017 315.96 495.187 321.6 495.187 321.6 C 495.187 321.6 499.057 327.23 498.707 328.29 C 498.357 329.35 502.937 333.22 501.877 335.68 C 500.817 338.14 507.157 341.31 506.097 344.13 C 505.037 346.95 510.607 348.35 510.607 348.35 L 525.807 383.55 C 525.807 383.55 493.867 390.55 485.557 408.18 L 445.217 334.27 C 445.217 334.27 422.687 279.02 421.987 275.5 C 421.987 275.5 426.917 259.31 426.917 259.31 L 454.367 209.31 L 495.537 151.26 C 495.537 151.26 528.277 81.58 578.597 134.72 Z " fill="rgb(64,62,168)"/><g style="opacity:0.1;"><g opacity="0.1"><path d=" M 786.467 152.04 C 786.837 147.669 787.778 143.366 789.267 139.24 C 790.717 135.24 792.697 131.3 793.167 127.05 C 793.167 126.92 793.167 126.8 793.167 126.67 C 793.272 127.734 793.272 128.806 793.167 129.87 C 792.697 134.12 790.717 138.03 789.267 142.06 C 787.778 146.182 786.837 150.483 786.467 154.85 C 786.327 156.49 786.267 158.15 786.247 159.85 C 786.217 157.2 786.247 154.61 786.467 152.04 Z " fill="rgb(0,0,0)"/></g><g opacity="0.1"><path d=" M 752.047 195.86 C 754.197 200.58 760.727 201.33 765.727 199.94 C 774.386 197.458 781.327 190.971 784.387 182.5 C 785.777 178.203 786.453 173.706 786.387 169.19 C 786.447 174.7 786.237 180.14 784.387 185.31 C 781.328 193.784 774.387 200.275 765.727 202.76 C 760.727 204.14 754.197 203.4 752.047 198.67 C 751.137 196.67 751.227 194.35 751.267 192.07 C 751.285 193.371 751.55 194.657 752.047 195.86 L 752.047 195.86 Z " fill="rgb(0,0,0)"/></g><g opacity="0.1"><path d=" M 654.887 130.12 C 655.317 133.32 656.587 136.92 659.637 137.99 C 661.414 138.487 663.313 138.309 664.967 137.49 C 669.967 135.31 674.417 130.05 679.757 131.32 C 684.117 132.32 686.207 137.25 687.357 141.59 C 688.191 144.332 688.553 147.196 688.427 150.06 C 688.236 148.146 687.878 146.252 687.357 144.4 C 686.207 140.07 684.117 135.17 679.757 134.13 C 674.417 132.87 670.007 138.13 664.967 140.3 C 663.315 141.126 661.415 141.307 659.637 140.81 C 656.587 139.74 655.317 136.14 654.887 132.93 C 654.612 130.886 654.512 128.821 654.587 126.76 C 654.637 127.88 654.737 129.01 654.887 130.12 Z " fill="rgb(0,0,0)"/></g><g opacity="0.1"><path d=" M 682.437 170.86 C 685.437 173.03 689.507 170.72 692.797 168.99 C 696.317 167.14 700.797 165.99 704.147 168.12 C 705.297 168.84 706.227 169.88 707.347 170.65 C 709.652 172.076 712.385 172.642 715.067 172.25 C 721.437 171.6 723.817 167.57 728.667 164.45 C 732.227 162.16 739.667 161.18 741.787 165.88 C 742.295 167.264 742.437 168.755 742.197 170.21 C 742.131 169.69 741.993 169.182 741.787 168.7 C 739.657 163.99 732.227 164.97 728.667 167.27 C 723.817 170.39 721.437 174.42 715.067 175.07 C 712.384 175.454 709.652 174.884 707.347 173.46 C 706.227 172.7 705.297 171.66 704.147 170.94 C 700.767 168.84 696.317 169.94 692.797 171.81 C 689.507 173.53 685.457 175.81 682.437 173.67 C 680.677 172.41 680.257 170.17 680.647 167.96 C 680.852 169.119 681.493 170.157 682.437 170.86 L 682.437 170.86 Z " fill="rgb(0,0,0)"/></g><g opacity="0.1"><path d=" M 742.457 175.72 C 743.827 178.86 748.037 179.72 749.977 182.55 C 751.427 184.65 751.307 187.27 751.257 189.9 C 751.275 188.298 750.831 186.725 749.977 185.37 C 748.037 182.54 743.827 181.67 742.457 178.53 C 741.978 177.164 741.847 175.699 742.077 174.27 C 742.139 174.768 742.266 175.256 742.457 175.72 L 742.457 175.72 Z " fill="rgb(0,0,0)"/></g></g></g></svg>