<?xml version="1.0" encoding="UTF-8" standalone="no"?><!-- Generator: Gravit.io --><svg xmlns="http://www.w3.org/2000/svg" xmlns:xlink="http://www.w3.org/1999/xlink" style="isolation:isolate" viewBox="0 0 1124.677 770.768" width="1124.677pt" height="770.768pt"><defs><clipPath id="_clipPath_70jtbqq7O8I3BG49lBY4KZOr3dMNC8FN"><rect width="1124.677" height="770.768"/></clipPath></defs><g clip-path="url(#_clipPath_70jtbqq7O8I3BG49lBY4KZOr3dMNC8FN)"><g opacity="0.1"><path d=" M 1060.812 437.402 C 1023.149 485.286 1037.781 555.238 1061.713 611.262 C 1069.726 630.019 1078.789 649.864 1075.408 669.979 C 1071.274 694.576 1049.321 712.563 1026.272 722.095 C 984.254 739.472 933.974 735.331 895.365 711.313 C 862.001 690.557 838.107 656.803 804.173 636.992 C 747.384 603.838 675.101 616.358 613.437 639.196 C 569.81 655.353 522.114 676.365 478.764 659.48 C 448.261 647.599 427.176 618.68 415.688 588.027 C 410.141 573.227 406.116 557.207 395.524 545.477 C 389.227 538.503 381.009 533.552 372.59 529.378 C 295.719 491.264 198.63 511.675 123.965 469.401 C 73.539 440.85 41.257 386.995 26.963 330.838 C 12.669 274.681 14.334 215.796 17.963 157.962 C 20.542 116.862 25.17 72.984 51.431 41.263 C 79.211 7.707 126.889 -4.771 169.983 1.607 C 213.077 7.985 252.139 30.718 286.503 57.492 C 329.451 90.954 369.281 132.623 422.012 146.178 C 457.922 155.409 495.698 150.36 532.734 148.611 C 594.65 145.688 656.592 152.188 718.167 159.307 C 777.115 166.121 836.488 173.621 892.644 192.797 C 932.385 206.368 964.245 231.001 1001.77 248.21 C 1026.23 259.427 1052.903 262.525 1076.062 276.812 C 1104.591 294.412 1130.745 325.025 1123.435 360.847 C 1116.486 394.905 1080.802 411.987 1060.812 437.402 Z " fill="rgb(108,99,255)"/></g><mask id="_mask_huATJEPyzJIe7oFziJv2OyFlgHuMH9tn" x="-200%" y="-200%" width="400%" height="400%"><rect x="-200%" y="-200%" width="400%" height="400%" style="fill:white;"/><path d=" M 735.045 146.859 C 735.045 146.859 674.504 128.929 670.504 179.929 C 670.504 179.929 686.504 314.929 670.504 341.929 C 670.504 341.929 597.411 407.938 627.458 411.434 C 627.458 411.434 672.504 419.929 663.504 437.929 C 663.504 437.929 607.504 472.929 617.504 485.929 C 617.504 485.929 632.504 514.929 622.504 530.929 C 622.504 530.929 577.504 556.929 583.504 567.929 C 583.504 567.929 611.504 584.929 600.504 596.929 C 600.504 596.929 557.616 636.225 570.06 636.077" fill="black" stroke="none"/></mask><path d=" M 735.045 146.859 C 735.045 146.859 674.504 128.929 670.504 179.929 C 670.504 179.929 686.504 314.929 670.504 341.929 C 670.504 341.929 597.411 407.938 627.458 411.434 C 627.458 411.434 672.504 419.929 663.504 437.929 C 663.504 437.929 607.504 472.929 617.504 485.929 C 617.504 485.929 632.504 514.929 622.504 530.929 C 622.504 530.929 577.504 556.929 583.504 567.929 C 583.504 567.929 611.504 584.929 600.504 596.929 C 600.504 596.929 557.616 636.225 570.06 636.077" fill="none" mask="url(#_mask_huATJEPyzJIe7oFziJv2OyFlgHuMH9tn)" vector-effect="non-scaling-stroke" stroke-width="6" stroke="rgb(83,84,97)" stroke-linejoin="miter" stroke-linecap="butt" stroke-miterlimit="10"/><path d=" M 735.045 146.859 C 735.045 146.859 674.504 128.929 670.504 179.929 C 670.504 179.929 686.504 314.929 670.504 341.929 C 670.504 341.929 597.411 407.938 627.458 411.434 C 627.458 411.434 672.504 419.929 663.504 437.929 C 663.504 437.929 607.504 472.929 617.504 485.929 C 617.504 485.929 632.504 514.929 622.504 530.929 C 622.504 530.929 577.504 556.929 583.504 567.929 C 583.504 567.929 611.504 584.929 600.504 596.929 C 600.504 596.929 557.616 636.225 570.06 636.077" fill="none"/><path d="M 695.812 112.881 L 823.484 112.881 C 830.643 112.881 836.454 118.693 836.454 125.851 L 836.454 171.152 C 836.454 178.31 830.643 184.121 823.484 184.121 L 695.812 184.121 C 688.654 184.121 682.842 178.31 682.842 171.152 L 682.842 125.851 C 682.842 118.693 688.654 112.881 695.812 112.881 Z" style="stroke:none;fill:#6C63FF;stroke-miterlimit:10;"/><g opacity="0.1"><rect x="695.087" y="173.188" width="129.123" height="1.336" transform="matrix(1,0,0,1,0,0)" fill="rgb(0,0,0)"/></g><g opacity="0.3"><rect x="695.087" y="124.012" width="129.123" height="48.978" transform="matrix(1,0,0,1,0,0)" fill="rgb(0,0,0)"/></g><g opacity="0.1"><circle vector-effect="non-scaling-stroke" cx="725.14106" cy="149.52335" r="17.81007999999997" fill="rgb(0,0,0)"/></g><g opacity="0.1"><circle vector-effect="non-scaling-stroke" cx="794.15514" cy="149.52335" r="17.81007999999997" fill="rgb(0,0,0)"/></g><rect x="746.29" y="184.119" width="26.714" height="15.588" transform="matrix(1,0,0,1,0,0)" fill="rgb(108,99,255)"/><rect x="703.992" y="195.253" width="111.313" height="89.05" transform="matrix(1,0,0,1,0,0)" fill="rgb(108,99,255)"/><rect x="701.765" y="302.113" width="115.766" height="11.131" transform="matrix(1,0,0,1,0,0)" fill="rgb(108,99,255)"/><path d=" M 720.689 339.96 L 720.689 353.317 L 720.689 373.353 L 720.689 384.485 L 720.689 391.164 L 740.725 391.164 L 740.725 384.485 L 740.725 373.353 L 740.725 353.317 L 740.725 339.96 L 740.725 324.376 L 720.689 324.376 L 720.689 339.96 L 720.689 339.96 Z " fill="rgb(108,99,255)"/><path d=" M 780.798 324.376 L 780.798 339.96 L 780.798 353.317 L 780.798 373.353 L 780.798 384.485 L 780.798 391.164 L 800.834 391.164 L 800.834 384.485 L 800.834 373.353 L 800.834 353.317 L 800.834 339.96 L 800.834 324.376 L 780.798 324.376 L 780.798 324.376 Z " fill="rgb(108,99,255)"/><path d=" M 688.83 215.29 L 688.83 235.881 C 683.33 236.841 678.206 239.311 674.029 243.015 C 670.156 246.603 667.144 251.019 665.218 255.935 C 662.763 262.246 661.3 268.899 660.879 275.657 C 660.249 284.495 660.663 293.375 662.111 302.116 L 639.849 302.116 C 638.921 291.481 639.116 280.778 640.431 270.184 C 641.482 261.427 643.892 252.889 647.576 244.876 C 654.026 231.348 663.2 224.009 671.259 220.022 C 676.72 217.23 682.706 215.618 688.83 215.29 L 688.83 215.29 Z " fill="rgb(108,99,255)"/><g opacity="0.3"><rect x="720.689" y="324.376" width="20.036" height="15.584" transform="matrix(1,0,0,1,0,0)" fill="rgb(0,0,0)"/></g><g opacity="0.3"><rect x="720.689" y="353.317" width="20.036" height="20.036" transform="matrix(1,0,0,1,0,0)" fill="rgb(0,0,0)"/></g><g opacity="0.3"><rect x="720.689" y="384.485" width="20.036" height="6.679" transform="matrix(1,0,0,1,0,0)" fill="rgb(0,0,0)"/></g><g opacity="0.3"><rect x="780.798" y="324.376" width="20.036" height="15.584" transform="matrix(1,0,0,1,0,0)" fill="rgb(0,0,0)"/></g><g opacity="0.3"><rect x="780.798" y="353.317" width="20.036" height="20.036" transform="matrix(1,0,0,1,0,0)" fill="rgb(0,0,0)"/></g><g opacity="0.3"><rect x="780.798" y="384.485" width="20.036" height="6.679" transform="matrix(1,0,0,1,0,0)" fill="rgb(0,0,0)"/></g><g opacity="0.3"><path d=" M 688.83 215.29 L 688.83 235.881 C 683.33 236.841 678.206 239.311 674.029 243.015 L 671.259 220.022 C 676.72 217.23 682.706 215.618 688.83 215.29 L 688.83 215.29 Z " fill="rgb(0,0,0)"/></g><g opacity="0.3"><path d=" M 665.218 255.935 C 662.763 262.246 661.3 268.899 660.879 275.657 L 640.431 270.184 C 641.482 261.427 643.892 252.889 647.576 244.876 L 665.218 255.935 Z " fill="rgb(0,0,0)"/></g><path d=" M 830.466 215.29 L 830.466 235.881 C 835.966 236.841 841.09 239.311 845.267 243.015 C 849.14 246.603 852.152 251.019 854.078 255.935 C 856.533 262.246 857.997 268.899 858.417 275.657 C 859.047 284.495 858.634 293.375 857.185 302.116 L 879.447 302.116 C 880.375 291.481 880.18 280.778 878.865 270.184 C 877.815 261.427 875.404 252.889 871.72 244.876 C 865.27 231.348 856.097 224.009 848.037 220.022 C 842.577 217.23 836.59 215.618 830.466 215.29 Z " fill="rgb(108,99,255)"/><g opacity="0.3"><path d=" M 830.466 215.29 L 830.466 235.881 C 835.966 236.841 841.09 239.311 845.267 243.015 L 848.037 220.022 C 842.577 217.23 836.59 215.618 830.466 215.29 L 830.466 215.29 Z " fill="rgb(0,0,0)"/></g><g opacity="0.3"><path d=" M 854.078 255.935 C 856.533 262.246 857.997 268.899 858.417 275.657 L 878.865 270.184 C 877.815 261.427 875.404 252.889 871.72 244.876 L 854.078 255.935 Z " fill="rgb(0,0,0)"/></g><g opacity="0.1"><rect x="746.29" y="184.119" width="26.714" height="1.845" transform="matrix(1,0,0,1,0,0)" fill="rgb(0,0,0)"/></g><g opacity="0.1"><path d=" M 817.283 211.119 L 817.283 248.402 C 815.951 246.965 815.212 245.077 815.213 243.118 L 815.213 216.399 C 815.212 214.441 815.951 212.555 817.283 211.119 L 817.283 211.119 Z " fill="rgb(0,0,0)"/></g><g opacity="0.1"><path d=" M 704.387 213.578 L 704.387 241.487 C 704.254 243.252 703.522 244.918 702.312 246.209 L 702.312 208.855 C 703.522 210.147 704.254 211.813 704.387 213.578 Z " fill="rgb(0,0,0)"/></g><g opacity="0.1"><rect x="709.559" y="284.305" width="100.18" height="1.319" transform="matrix(1,0,0,1,0,0)" fill="rgb(0,0,0)"/></g><g opacity="0.1"><rect x="707.331" y="313.247" width="48.976" height="1.022" transform="matrix(1,0,0,1,0,0)" fill="rgb(0,0,0)"/></g><g opacity="0.1"><rect x="760.763" y="313.247" width="48.976" height="1.022" transform="matrix(1,0,0,1,0,0)" fill="rgb(0,0,0)"/></g><rect x="712.794" y="46.953" width="7.666" height="65.928" transform="matrix(1,0,0,1,0,0)" fill="rgb(108,99,255)"/><rect x="800.698" y="46.953" width="7.666" height="65.928" transform="matrix(1,0,0,1,0,0)" fill="rgb(108,99,255)"/><g opacity="0.1"><circle vector-effect="non-scaling-stroke" cx="716.37153" cy="47.46383" r="8.688220000000001" fill="rgb(0,0,0)"/></g><circle vector-effect="non-scaling-stroke" cx="716.37153" cy="46.95276" r="8.688220000000001" fill="rgb(108,99,255)"/><g opacity="0.1"><circle vector-effect="non-scaling-stroke" cx="804.78698" cy="47.46383" r="8.688220000000001" fill="rgb(0,0,0)"/></g><circle vector-effect="non-scaling-stroke" cx="804.78698" cy="46.95276" r="8.688220000000001" fill="rgb(108,99,255)"/><g opacity="0.5"><path d=" M 624.005 428.925 C 620.587 432.347 619.808 437.047 618.593 441.405 C 615.126 453.849 606.963 465.327 595.585 473.757 C 587.252 479.933 576.079 486.77 578.055 495.984 C 578.527 498.186 579.774 500.241 580.102 502.461 C 581.521 512.071 566.83 517.135 561.143 525.544 C 556.907 531.809 558.039 539.57 559.298 546.705 C 560.839 555.439 562.703 564.757 569.868 571.187 C 571.802 572.922 574.106 574.428 575.455 576.52 C 578.478 581.208 575.851 587.352 578.598 592.159 C 582.262 598.57 593.801 598.848 600.497 594.526 C 607.194 590.203 610.288 583.097 613.256 576.435 C 621.276 558.427 631.136 540.361 647.805 527.248 C 663.787 514.675 687.036 504.922 689.778 486.621 C 690.954 478.775 687.975 470.175 692.525 463.262 C 694.675 459.995 698.269 457.574 700.703 454.453 C 707.955 445.153 702.556 431.7 691.939 425.095 C 675.908 415.124 637.948 414.963 624.005 428.925 Z " fill="rgb(222,227,243)"/></g><rect x="834.004" y="105.429" width="74" height="9" transform="matrix(0.954,-0.298,0.298,0.954,6.852,264.764)" fill="rgb(108,99,255)"/><path d=" M 936.425 428.945 C 936.425 428.945 897.701 421.2 887.375 410.874 C 887.375 410.874 830.58 382.476 825.417 395.384 C 825.417 395.384 755.714 452.179 799.601 459.924 C 799.601 459.924 902.864 470.25 915.772 465.087 C 928.68 459.924 936.425 428.945 936.425 428.945 Z " fill="rgb(168,168,168)"/><g opacity="0.2"><path d=" M 799.601 455.128 C 843.488 462.873 902.864 465.455 915.772 460.291 C 925.602 456.359 932.433 437.467 935.134 428.676 C 935.951 428.849 936.425 428.945 936.425 428.945 C 936.425 428.945 928.68 459.924 915.772 465.087 C 902.864 470.25 843.488 467.669 799.601 459.924 C 786.932 457.688 783.31 452.438 784.674 445.794 C 785.757 450.129 790.172 453.464 799.601 455.128 Z " fill="rgb(0,0,0)"/></g><linearGradient id="_lgradient_0" x1="0.49993833780026264" y1="0.9999999761447134" x2="0.4999383378002627" y2="8.944546392442021e-8" gradientTransform="matrix(183.073,0,0,419.194,839.954,71.75)" gradientUnits="userSpaceOnUse"><stop offset="0%" stop-opacity="0.25" style="stop-color:rgb(128,128,128)"/><stop offset="53.513999999999996%" stop-opacity="0.12" style="stop-color:rgb(128,128,128)"/><stop offset="100%" stop-opacity="0.1" style="stop-color:rgb(128,128,128)"/></linearGradient><path d=" M 1022.421 91.337 C 1021.73 89.618 1020.63 88.093 1019.216 86.896 C 1008.826 77.425 992.019 80.296 979.117 74.511 C 976.146 73.178 973.097 71.329 969.87 71.836 C 965.363 72.543 961.173 77.674 957.244 75.398 L 957.526 76.255 C 957.432 76.209 957.338 76.162 957.244 76.108 Q 958.689 80.509 960.134 84.91 C 961.243 88.289 962.413 91.767 964.571 94.58 C 958.088 100.234 954.919 108.792 956.157 117.305 C 957.394 125.817 962.869 133.119 970.693 136.692 C 970.83 136.987 970.965 137.283 971.096 137.581 C 971.219 137.636 971.345 137.684 971.468 137.738 C 972.325 139.706 972.964 141.762 973.375 143.869 C 970.031 144.331 964.202 148.029 958.467 153.489 L 947 153.097 C 939.592 152.85 932.423 150.413 926.399 146.093 L 892.11 121.441 C 889.666 121.681 887.363 122.699 885.54 124.345 C 881.282 119.909 877.669 115.274 877.977 112.559 C 877.977 112.559 862.031 82.715 856.232 97.637 C 850.434 112.559 867.105 128.192 867.105 128.192 L 877.68 141.892 C 877.263 144.294 876.999 146.719 876.889 149.154 C 889.936 164.076 935.599 177.578 935.599 177.578 L 942.719 177.922 C 942.734 178.053 942.746 178.163 942.759 178.272 C 942.322 180.14 942.108 182.054 942.122 183.973 C 942.126 184.248 942.131 184.537 942.136 184.826 C 942.134 185.015 942.119 185.205 942.122 185.394 C 942.484 209.198 945.746 282.033 945.746 282.033 C 946.381 281.75 947.036 281.492 947.703 281.248 L 947.196 287.718 C 947.196 287.718 916.754 291.981 894.285 300.508 C 894.285 300.508 871.091 318.984 871.091 318.984 L 871.091 406.764 C 864.671 410.058 854.545 414.387 849.347 412.07 C 843.704 409.555 840.606 411.668 840.046 413.873 L 840.046 413.873 L 840.046 413.874 C 839.932 414.307 839.923 414.762 840.021 415.199 L 840.028 415.226 C 840.076 415.422 840.149 415.611 840.244 415.789 L 840.266 415.83 C 840.37 416.015 840.499 416.184 840.649 416.333 C 842.823 418.465 889.936 436.94 900.808 434.098 C 901.144 434.01 901.473 433.899 901.793 433.766 C 901.898 433.723 901.991 433.666 902.092 433.618 C 902.293 433.523 902.496 433.431 902.684 433.32 C 902.796 433.253 902.896 433.173 903.004 433.101 C 903.166 432.992 903.332 432.887 903.484 432.766 C 903.59 432.682 903.685 432.585 903.786 432.495 C 903.926 432.37 904.068 432.249 904.199 432.114 C 904.294 432.015 904.379 431.906 904.469 431.802 C 904.592 431.661 904.717 431.522 904.831 431.37 C 904.914 431.262 904.987 431.144 905.065 431.03 C 905.174 430.871 905.286 430.713 905.386 430.544 C 905.456 430.428 905.518 430.305 905.583 430.185 C 905.681 430.006 905.779 429.829 905.868 429.642 C 905.925 429.522 905.976 429.397 906.03 429.273 C 906.116 429.076 906.202 428.878 906.28 428.673 C 906.326 428.553 906.366 428.428 906.409 428.305 C 906.485 428.087 906.559 427.869 906.626 427.644 C 906.661 427.527 906.692 427.408 906.724 427.289 C 906.79 427.049 906.854 426.808 906.912 426.562 C 906.937 426.453 906.959 426.341 906.982 426.231 C 907.038 425.969 907.092 425.705 907.139 425.437 C 907.156 425.338 907.171 425.238 907.187 425.138 C 907.233 424.852 907.276 424.565 907.312 424.273 C 907.323 424.19 907.332 424.106 907.341 424.023 C 907.377 423.711 907.41 423.398 907.436 423.083 C 907.441 423.017 907.446 422.951 907.451 422.885 Q 907.49 422.38 907.513 421.873 C 907.516 421.827 907.517 421.782 907.519 421.737 Q 907.542 421.194 907.549 420.651 L 907.55 420.583 C 907.534 416.344 907.065 412.118 906.15 407.979 L 906.15 407.979 L 908.781 333.195 C 923.016 333.416 937.254 332.892 951.434 331.624 L 952.994 367.303 C 952.994 367.303 952.994 390.752 960.967 401.411 C 967.79 410.533 975.674 450.876 977.806 462.322 C 974.876 467.907 969.273 474.814 959.517 474.601 C 959.517 474.601 941.159 473.014 942.195 478.064 L 942.197 478.072 C 942.225 478.204 942.264 478.334 942.312 478.459 L 942.324 478.492 C 942.381 478.637 942.448 478.779 942.523 478.915 L 942.54 478.943 C 942.613 479.074 942.699 479.208 942.794 479.346 C 942.813 479.374 942.832 479.402 942.853 479.43 C 942.96 479.579 943.076 479.731 943.21 479.889 L 943.243 479.927 C 943.365 480.069 943.501 480.216 943.646 480.366 C 943.686 480.407 943.726 480.448 943.768 480.49 C 943.932 480.655 944.104 480.823 944.296 480.996 C 953.719 489.523 1008.804 490.945 1008.804 490.945 L 1008.804 490.912 L 1008.804 490.89 L 1008.803 490.783 L 1008.803 490.752 C 1008.803 490.698 1008.802 490.63 1008.801 490.554 L 1008.8 490.525 C 1008.768 488.058 1008.441 475.11 1005.141 465.364 L 1005.905 465.364 C 1005.905 465.364 997.932 393.595 991.409 385.068 C 991.409 385.068 989.675 347.225 993.588 323.508 C 993.828 323.421 994.071 323.336 994.308 323.247 C 1012.58 316.423 1013.877 299.616 1011.995 287.268 C 1015.452 288.378 1017.502 289.139 1017.502 289.139 C 1017.502 289.139 1017.439 288.602 1017.321 287.652 C 1017.436 287.694 1017.502 287.718 1017.502 287.718 C 1017.502 287.718 1017.153 285.461 1016.58 281.939 C 1015.273 272.256 1012.74 255.335 1010.044 247.346 C 1009.609 245.59 1009.191 244.089 1008.804 242.951 C 1007.247 238.151 1006.178 233.206 1005.613 228.191 C 1004.874 221.692 1004.5 215.157 1004.493 208.617 C 1004.553 199.877 1005.222 191.152 1006.496 182.506 C 1007.603 174.953 1008.599 166.364 1008.515 160.366 C 1008.591 158.278 1008.445 156.186 1008.079 154.128 C 1007.111 149.7 1002.84 146.82 998.398 144.988 C 998.112 144.87 997.819 144.773 997.53 144.664 C 997.638 142.985 997.78 141.083 997.963 139.078 C 999.04 139.823 1000.376 140.094 1001.657 139.826 C 1003.567 139.408 1004.936 137.814 1006.157 136.315 C 1012.581 128.426 1019.177 120.202 1021.644 110.401 C 1022.63 106.023 1023.086 101.543 1023.003 97.057 Q 1023.005 96.689 1023.003 96.319 C 1023.099 94.637 1022.902 92.951 1022.421 91.337 L 1022.421 91.337 Z " fill="url(#_lgradient_0)"/><path d=" M 963.933 129.798 C 963.933 129.798 973.665 144.397 971.58 151.349 C 971.58 151.349 994.521 154.129 994.521 154.129 C 994.521 154.129 995.216 127.017 1000.082 120.761 C 1004.948 114.504 963.933 129.798 963.933 129.798 Z " fill="rgb(247,196,167)"/><path d=" M 899.628 139.183 C 899.628 139.183 879.468 122.499 880.163 116.242 C 880.163 116.242 864.869 87.044 859.308 101.643 C 853.747 116.242 869.736 131.536 869.736 131.536 L 889.201 157.258 L 899.628 139.183 Z " fill="rgb(247,196,167)"/><path d=" M 879.121 400.919 C 879.121 400.919 860.351 412.737 852.704 409.261 C 852.704 409.261 842.276 411.346 844.362 413.432 C 844.362 413.432 891.634 433.592 902.062 430.811 C 902.062 430.811 907.186 405.258 907.186 405.258 L 879.121 400.919 Z " fill="rgb(83,84,97)"/><path d=" M 978.532 451.667 C 978.532 451.667 974.013 470.784 958.371 470.437 C 958.371 470.437 934.735 468.351 943.773 476.693 C 952.81 485.036 1005.644 486.426 1005.644 486.426 C 1005.644 486.426 1005.644 457.924 995.911 451.667 C 986.179 445.41 978.532 451.667 978.532 451.667 Z " fill="rgb(83,84,97)"/><path d=" M 950.029 316.802 L 952.115 365.464 C 952.115 365.464 952.115 388.405 959.762 398.833 C 959.762 398.833 976.446 461.399 976.446 461.399 L 1002.863 461.399 C 1002.863 461.399 995.216 391.186 988.959 382.844 C 988.959 382.844 986.179 320.973 995.911 307.069 L 950.029 316.802 Z " fill="rgb(87,89,136)"/><g opacity="0.1"><path d=" M 950.029 316.802 L 952.115 365.464 C 952.115 365.464 952.115 388.405 959.762 398.833 C 959.762 398.833 976.446 461.399 976.446 461.399 L 1002.863 461.399 C 1002.863 461.399 995.216 391.186 988.959 382.844 C 988.959 382.844 986.179 320.973 995.911 307.069 L 950.029 316.802 Z " fill="rgb(0,0,0)"/></g><path d=" M 1004.948 273.005 C 1004.948 273.005 1020.938 311.24 991.74 322.363 C 991.74 322.363 909.709 332.096 909.709 332.096 L 906.928 412.737 C 906.928 412.737 874.254 416.908 873.559 406.48 L 873.559 318.192 C 873.559 318.192 874.254 308.46 895.805 300.117 C 895.805 300.117 946.553 287.604 946.553 287.604 L 947.944 269.529 L 1004.948 273.005 Z " fill="rgb(87,89,136)"/><g opacity="0.1"><path d=" M 979.329 147.049 C 984.881 146.435 990.499 147.23 995.663 149.359 C 999.923 151.151 1004.02 153.968 1004.948 158.3 C 1006.048 163.431 1004.829 174.938 1003.43 184.672 C 1001.192 199.936 1000.907 215.422 1002.583 230.757 C 1003.3 237.144 1004.288 242.713 1005.644 245.198 C 1009.815 252.845 1013.986 288.995 1013.986 288.995 C 1013.986 288.995 968.104 271.615 945.163 282.043 C 945.163 282.043 942.035 210.787 941.687 187.498 C 941.418 169.466 964.28 148.916 971.927 148.22 C 976.409 147.813 974.876 147.511 979.329 147.049 Z " fill="rgb(0,0,0)"/></g><path d=" M 979.329 145.659 C 984.881 145.045 990.499 145.839 995.663 147.968 C 999.923 149.761 1004.02 152.578 1004.948 156.91 C 1006.048 162.041 1004.829 173.548 1003.43 183.282 C 1001.192 198.545 1000.907 214.032 1002.583 229.367 C 1003.124 234.27 1004.149 239.107 1005.644 243.808 C 1008.772 253.193 1013.986 287.604 1013.986 287.604 C 1013.986 287.604 968.104 270.225 945.163 280.652 C 945.163 280.652 942.035 209.396 941.687 186.108 C 941.418 168.075 964.28 147.525 971.927 146.83 C 976.409 146.423 974.876 146.121 979.329 145.659 Z " fill="rgb(225,75,90)"/><g opacity="0.1"><path d=" M 991.74 184.022 L 942.382 181.241 C 942.382 181.241 939.241 157.043 946.366 157.292 L 995.216 158.996 C 995.216 158.996 1005.644 171.509 991.74 184.022 Z " fill="rgb(0,0,0)"/></g><path d=" M 991.74 182.632 L 935.43 179.851 C 935.43 179.851 891.634 166.643 879.121 152.044 C 879.121 152.044 879.816 126.322 893.719 124.932 L 926.606 149.049 C 932.356 153.265 939.241 155.653 946.366 155.901 L 995.216 157.605 C 995.216 157.605 1005.644 170.119 991.74 182.632 Z " fill="rgb(225,75,90)"/><g opacity="0.1"><path d=" M 994.173 132.926 C 994.999 126.334 997.989 124.148 1000.082 121.456 C 1004.948 115.199 963.933 130.493 963.933 130.493 C 966.047 133.751 967.901 137.172 969.477 140.722 C 972.752 142.23 976.316 143.009 979.922 143.006 C 985.969 143.006 989.847 136.497 994.173 132.926 Z " fill="rgb(0,0,0)"/></g><circle vector-effect="non-scaling-stroke" cx="979.92191" cy="117.28476" r="25.026520000000005" fill="rgb(247,196,167)"/><g opacity="0.1"><path d=" M 964.118 99.743 C 961.453 96.832 960.172 92.949 958.963 89.192 L 956.191 80.581 C 959.96 82.808 963.978 77.789 968.3 77.097 C 971.396 76.601 974.32 78.41 977.17 79.714 C 989.545 85.373 1005.665 82.565 1015.63 91.83 C 1016.991 93.008 1018.046 94.499 1018.704 96.175 C 1019.168 97.765 1019.356 99.422 1019.262 101.075 C 1019.342 105.463 1018.905 109.845 1017.959 114.13 C 1015.593 123.719 1009.266 131.764 1003.104 139.483 C 1001.934 140.95 1000.62 142.509 998.789 142.918 C 995.212 143.717 992.444 139.85 991.06 136.456 C 989.226 131.961 987.874 127.284 987.026 122.504 C 986.811 120.46 986.253 118.466 985.374 116.608 C 983.22 112.789 977.911 109.175 974.682 106.217 C 971.508 103.31 967.083 102.981 964.118 99.743 Z " fill="rgb(0,0,0)"/></g><path d=" M 964.118 99.048 C 961.453 96.137 960.172 92.254 958.963 88.497 L 956.191 79.886 C 959.96 82.113 963.978 77.094 968.3 76.402 C 971.396 75.906 974.32 77.715 977.17 79.018 C 989.545 84.678 1005.665 81.869 1015.63 91.135 C 1016.991 92.313 1018.046 93.804 1018.704 95.48 C 1019.168 97.07 1019.356 98.727 1019.262 100.38 C 1019.342 104.768 1018.905 109.15 1017.959 113.435 C 1015.593 123.024 1009.266 131.069 1003.104 138.788 C 1001.934 140.255 1000.62 141.814 998.789 142.223 C 995.212 143.021 992.444 139.155 991.06 135.761 C 989.226 131.266 987.874 126.589 987.026 121.809 C 986.811 119.765 986.253 117.771 985.374 115.912 C 983.22 112.094 977.911 108.48 974.682 105.522 C 971.508 102.615 967.083 102.286 964.118 99.048 Z " fill="rgb(99,38,82)"/><ellipse vector-effect="non-scaling-stroke" cx="986.52613" cy="120.06549" rx="2.0855400000000373" ry="4.518680000000003" fill="rgb(247,196,167)"/><g opacity="0.1"><path d=" M 999.039 240.679 C 999.039 240.679 997.649 244.851 990.697 244.155 C 990.697 244.155 963.585 242.07 963.585 244.155" fill="rgb(0,0,0)"/></g><g opacity="0.5"><path d=" M 943.773 475.998 C 942.817 475.261 942.111 474.249 941.75 473.098 C 941.568 474.001 942.126 475.173 943.773 476.693 C 952.81 485.036 1005.644 486.426 1005.644 486.426 C 1005.644 486.426 1005.644 486.18 1005.636 485.731 C 1005.302 485.722 952.781 484.314 943.773 475.998 Z " fill="rgb(255,255,255)"/></g><g opacity="0.5"><path d=" M 902.062 429.421 C 891.634 432.202 846.447 414.127 844.362 412.042 C 844.083 411.76 843.883 411.409 843.783 411.025 C 843.537 411.873 843.757 412.788 844.362 413.432 C 846.447 415.517 891.634 433.592 902.062 430.811 C 907.429 429.38 908.625 422.654 908.525 416.462 C 908.423 422.236 907.029 428.097 902.062 429.421 Z " fill="rgb(255,255,255)"/></g><g><mask id="_mask_0HtiPr9f4ltIgbbRvhyXH3ZjUNud4x8L" x="-200%" y="-200%" width="400%" height="400%"><rect x="-200%" y="-200%" width="400%" height="400%" style="fill:white;"/><path d=" M 340.072 493.395 C 340.072 493.395 356.248 523.05 396.686 514.962 C 396.686 514.962 417.58 589.774 417.58 589.774 C 417.58 589.774 410.963 629.32 415.619 629.092" fill="black" stroke="none"/></mask><path d=" M 340.072 493.395 C 340.072 493.395 356.248 523.05 396.686 514.962 C 396.686 514.962 417.58 589.774 417.58 589.774 C 417.58 589.774 410.963 629.32 415.619 629.092" fill="none" mask="url(#_mask_0HtiPr9f4ltIgbbRvhyXH3ZjUNud4x8L)" vector-effect="non-scaling-stroke" stroke-width="6" stroke="rgb(83,84,97)" stroke-linejoin="miter" stroke-linecap="butt" stroke-miterlimit="10"/><path d=" M 340.072 493.395 C 340.072 493.395 356.248 523.05 396.686 514.962 C 396.686 514.962 417.58 589.774 417.58 589.774 C 417.58 589.774 410.963 629.32 415.619 629.092" fill="none"/><g opacity="0.7"><linearGradient id="_lgradient_1" x1="0.5001516514171453" y1="1.0000136756516151" x2="0.5001516514171455" y2="0.000045560785258969005" gradientTransform="matrix(206.279,0,0,443.788,239.543,148.47)" gradientUnits="userSpaceOnUse"><stop offset="0%" stop-opacity="0.25" style="stop-color:rgb(128,128,128)"/><stop offset="54%" stop-opacity="0.12" style="stop-color:rgb(128,128,128)"/><stop offset="100%" stop-opacity="0.1" style="stop-color:rgb(128,128,128)"/></linearGradient><path d=" M 362.468 386.512 L 362.07 386.418 L 362.07 371.186 C 393.504 363.423 417.299 337.693 422.587 305.749 L 422.782 305.749 C 426.671 305.749 429.818 299.839 429.818 292.553 C 429.818 288.031 428.605 284.047 426.759 281.668 Q 427.176 277.49 427.183 273.196 C 427.209 250.164 417.803 228.125 401.154 212.208 C 400.023 206.576 398.005 201.16 395.176 196.161 C 389.178 185.593 379.196 174.593 383.267 163.136 L 356.914 165.832 L 356.672 148.47 C 348.449 149.946 345.005 159.476 340.126 166.263 C 328.392 182.587 304.843 184.858 289.267 197.569 C 283.977 201.89 272.074 215.025 274.312 223.639 C 263.844 238.04 258.218 255.393 258.244 273.196 Q 258.244 277.483 258.669 281.668 C 256.822 284.047 255.609 288.031 255.609 292.553 C 255.609 299.845 258.763 305.749 262.645 305.749 L 262.841 305.749 C 268.128 337.693 291.923 363.423 323.357 371.186 L 323.357 386.418 L 322.959 386.512 C 313.888 385.454 222.335 378.465 242.412 529.031 L 254.726 574.43 L 257.469 574.323 C 258.211 583.727 265.624 591.227 275.019 592.079 C 284.414 592.93 293.055 586.884 295.475 577.767 C 312.91 577.706 332.604 577.652 342.653 577.652 C 352.702 577.652 372.429 577.713 389.831 577.767 C 392.213 586.934 400.878 593.032 410.312 592.178 C 419.745 591.324 427.175 583.769 427.871 574.323 L 430.614 574.43 L 442.927 529.031 C 463.099 378.465 371.54 385.454 362.468 386.512 Z " fill="url(#_lgradient_1)"/></g><g opacity="0.1"><path d=" M 264.472 570.959 C 264.472 570.959 322.858 570.73 342.714 570.73 C 342.714 570.73 420.956 570.959 420.956 570.959 L 420.956 562.461 L 264.472 562.461 L 264.472 570.959 Z " fill="rgb(0,0,0)"/></g><path d=" M 420.962 569.254 C 420.962 569.254 362.576 569.025 342.72 569.025 C 342.72 569.025 264.478 569.254 264.478 569.254 L 264.478 461.863 C 264.478 418.653 299.504 383.624 342.714 383.621 L 342.714 383.621 C 363.466 383.619 383.369 391.861 398.043 406.535 C 412.718 421.208 420.962 441.11 420.962 461.863 L 420.962 569.254 Z " fill="rgb(108,99,255)"/><path d=" M 335.307 344.503 L 350.134 344.503 C 356.373 344.503 361.43 349.56 361.43 355.799 L 361.43 387.024 C 361.43 397.357 353.053 405.734 342.72 405.734 L 342.72 405.734 C 332.387 405.734 324.011 397.357 324.011 387.024 L 324.011 355.799 C 324.011 349.56 329.068 344.503 335.307 344.503 L 335.307 344.503 Z " fill="rgb(253,183,151)"/><g opacity="0.1"><path d=" M 324.004 372.851 C 336.294 375.875 349.134 375.875 361.423 372.851 L 361.423 346.201 L 324.004 346.201 L 324.004 372.851 Z " fill="rgb(0,0,0)"/></g><circle vector-effect="non-scaling-stroke" cx="342.72041509936025" cy="276.46508494212725" r="81.64558855037421" fill="rgb(51,51,51)"/><circle vector-effect="non-scaling-stroke" cx="342.7204150993603" cy="295.1746898468524" r="78.24200408463719" fill="rgb(253,183,151)"/><path d=" M 291.053 203.359 C 306.103 191.072 328.87 188.882 340.213 173.097 C 344.931 166.539 348.254 157.326 356.207 155.897 L 356.443 172.679 L 381.912 170.064 C 377.983 181.131 387.628 191.787 393.424 201.997 C 397.698 209.55 400.034 218.043 400.224 226.719 C 391.382 232.03 380.416 226.234 370.569 223.14 C 360.999 220.134 350.828 219.824 340.8 219.541 C 335.657 219.393 330.454 219.258 325.433 220.383 C 321.032 221.374 316.914 223.309 312.749 225.054 C 305.975 227.892 284.583 238.594 278.288 231.693 C 271.158 223.868 285.244 208.104 291.053 203.359 Z " fill="rgb(51,51,51)"/><g opacity="0.1"><path d=" M 295.306 255.936 C 299.458 258.45 304.337 259.44 309.143 260.101 C 329.185 262.838 349.593 260.545 368.527 253.429 C 371.627 261.287 379.196 266.686 387.243 269.254 C 395.291 271.821 403.884 271.949 412.329 272.051 C 414.189 272.051 416.184 272.051 417.721 271.019 C 421.481 268.478 419.662 262.662 417.471 258.686 L 406.573 238.952 C 403.351 233.115 400.035 227.157 395.048 222.736 C 388.793 217.202 380.49 214.607 372.301 212.97 C 352.946 209.119 332.963 209.785 313.908 214.917 C 293.54 220.397 267.377 239.032 295.306 255.936 Z " fill="rgb(0,0,0)"/></g><path d=" M 295.306 254.237 C 299.458 256.751 304.337 257.742 309.143 258.402 C 329.185 261.14 349.593 258.847 368.527 251.73 C 371.627 259.589 379.196 264.987 387.243 267.555 C 395.291 270.123 403.884 270.251 412.329 270.352 C 414.189 270.352 416.184 270.352 417.721 269.321 C 421.481 266.78 419.662 260.964 417.471 256.987 L 406.573 237.226 C 403.351 231.389 400.035 225.432 395.048 221.01 C 388.793 215.477 380.49 212.882 372.301 211.244 C 352.946 207.394 332.963 208.06 313.908 213.192 C 293.54 218.692 267.377 237.327 295.306 254.237 Z " fill="rgb(51,51,51)"/><ellipse vector-effect="non-scaling-stroke" cx="420.11320801036766" cy="295.17468984685223" rx="6.807168931474166" ry="12.758386918099575" fill="rgb(253,183,151)"/><ellipse vector-effect="non-scaling-stroke" cx="265.3276221883523" cy="295.17468984685223" rx="6.807168931474166" ry="12.758386918099575" fill="rgb(253,183,151)"/><path d=" M 361.113 386.061 C 361.113 386.061 460.08 370.647 439.672 523.734 L 427.77 567.616 L 393.747 566.269 C 393.747 566.269 415.86 515.242 402.253 481.219 C 388.645 447.197 361.113 386.061 361.113 386.061 Z " fill="rgb(108,99,255)"/><path d=" M 324.321 386.061 C 324.321 386.061 225.381 370.647 245.762 523.734 L 257.665 567.616 L 291.687 566.269 C 291.687 566.269 269.574 515.242 283.181 481.219 C 296.789 447.197 324.321 386.061 324.321 386.061 Z " fill="rgb(108,99,255)"/><g opacity="0.1"><path d=" M 281.483 453.519 C 281.483 453.519 274.676 506.089 286.585 521.395" fill="rgb(0,0,0)"/></g><g opacity="0.1"><path d=" M 403.951 454.867 C 403.951 454.867 410.758 506.089 398.849 521.395" fill="rgb(0,0,0)"/></g><circle vector-effect="non-scaling-stroke" cx="406.46517129132314" cy="566.1404519468396" r="18.70960490472504" fill="rgb(253,183,151)"/><circle vector-effect="non-scaling-stroke" cx="278.9689191361781" cy="566.1404519468396" r="18.70960490472504" fill="rgb(253,183,151)"/><defs><linearGradient id="_lgradient_2" x1="0" y1="0.5" x2="6.123233995736766e-17" y2="-0.5"><stop offset="0%" style="stop-color:rgba(128,128,128,0.1)"/></linearGradient><linearGradient id="_lgradient_3" x1="0" y1="0.5" x2="6.123233995736766e-17" y2="-0.5"><stop offset="0%" style="stop-color:rgba(128,128,128,0.1)"/></linearGradient></defs><g style="mix-blend-mode:normal;" opacity="0.7"><path d="M 295.461 459.194 L 389.879 459.194 C 397.817 459.194 404.261 465.638 404.261 473.576 L 404.261 553.995 C 404.261 561.933 397.817 568.378 389.879 568.378 L 295.461 568.378 C 287.523 568.378 281.078 561.933 281.078 553.995 L 281.078 473.576 C 281.078 465.638 287.523 459.194 295.461 459.194 Z" style="stroke:none;fill:url(#_lgradient_3);stroke-miterlimit:10;"/></g></g><g><path d=" M 229.109 600.1 L 450.225 600.1 C 455.095 600.1 459.766 602.034 463.21 605.478 C 466.653 608.922 468.588 613.592 468.588 618.462 L 468.588 618.462 L 210.746 618.462 L 210.746 618.462 C 210.746 613.592 212.681 608.922 216.124 605.478 C 219.568 602.034 224.239 600.1 229.109 600.1 L 229.109 600.1 Z " fill="rgb(83,84,97)"/><path d=" M 262.37 473.857 L 416.964 473.857 C 438.503 473.857 455.964 491.318 455.964 512.857 L 455.964 604.308 L 223.37 604.308 L 223.37 512.857 C 223.37 491.318 240.831 473.857 262.37 473.857 Z " fill="rgb(83,84,97)"/><circle vector-effect="non-scaling-stroke" cx="339.47566" cy="544.82063" r="13.77197000000001" fill="rgb(255,255,255)"/></g><g><rect x="37.615" y="618.704" width="560.778" height="150.562" transform="matrix(1,0,0,1,0,0)" fill="rgb(214,214,227)"/><g opacity="0.1"><rect x="37.615" y="628.838" width="560.778" height="19.544" transform="matrix(1,0,0,1,0,0)" fill="rgb(0,0,0)"/></g><rect x="0" y="616.533" width="636.004" height="19.544" transform="matrix(1,0,0,1,0,0)" fill="rgb(214,214,227)"/></g></g></svg>