<?xml version="1.0" encoding="utf-8"?>
<!-- Generator: Adobe Illustrator 22.1.0, SVG Export Plug-In . SVG Version: 6.00 Build 0)  -->
<svg version="1.1" id="Layer_1" xmlns="http://www.w3.org/2000/svg" xmlns:xlink="http://www.w3.org/1999/xlink" x="0px" y="0px"
	 viewBox="0 0 26 26" style="enable-background:new 0 0 26 26;" xml:space="preserve">
<style type="text/css">
	.st0{fill:#FFFFFF;}
	.st1{fill:#CAD5EC;}
</style>
<path class="st0" d="M10.1,23.2L10.1,23.2L10.1,23.2c-0.1,0-0.3-0.1-0.4-0.1c0,0-0.1,0-0.1-0.1h0c-0.4-0.2-0.8-0.5-1.1-0.9
	c-0.1-0.1-0.1-0.2-0.2-0.3c0,0,0,0,0,0c0,0,0,0,0,0c0,0,0,0,0,0L4.4,15l-3,0.1l-1.2,0c0,0.5,0.1,0.9,0.3,1.4c0,0.1,0.1,0.1,0.1,0.2
	c0,0,0,0,0,0c0,0.1,0.1,0.1,0.1,0.2c0,0,0,0,0,0c0,0.1,0.1,0.1,0.1,0.2l0,0c0,0,0,0,0,0c0,0.1,0.1,0.1,0.1,0.2c0,0,0,0,0,0
	c0,0,0.1,0.1,0.1,0.1c0,0,0,0,0,0c0,0,0.1,0.1,0.1,0.1c0,0,0,0,0,0c0,0,0.1,0.1,0.1,0.1c0,0,0,0,0,0c0.1,0,0.1,0.1,0.2,0.1
	c0,0,0,0,0,0C1.9,18,1.9,18,2,18.1c0,0,0,0,0,0l10.7,7c0,0,0,0,0,0c0,0,0,0,0,0c0.1,0.1,0.3,0.2,0.4,0.2c0.1,0.1,0.3,0.1,0.5,0.2
	c0,0,0,0,0,0c0,0,0.1,0,0.1,0c0,0,0,0,0,0c0,0,0.1,0,0.1,0l0,0c0,0,0.1,0,0.1,0c0,0,0,0,0,0c0,0,0.1,0,0.1,0c0,0,0,0,0,0
	c0,0,0.1,0,0.1,0c0,0,0,0,0,0c0,0,0.1,0,0.1,0c0,0,0,0,0,0c0.1,0,0.2,0,0.2,0c0,0,0,0,0,0c0,0,0.1,0,0.1,0c0,0,0,0,0,0
	c0,0,0,0,0.1,0h0l-0.5-1.7l-0.5-1.8L12.6,23C11.8,23.4,10.9,23.5,10.1,23.2z"/>
<path class="st1" d="M14.2,14.8l-2.6,0.1l-0.8-2.5c-0.6-1.8,0.5-3.8,2.3-4.3c1.1-0.3,2.2-0.1,3,0.5c0.8,0.6,1.4,1.6,1.4,2.7
	C17.6,13.1,16.1,14.7,14.2,14.8z M23,13.4l-5.2-9.2c-0.9-1.5-2.8-2.1-4.3-1.2l-5,2.9L4.2,8.3C3.7,8.6,3.3,8.9,3.1,9.4
	C3,9.5,3,9.5,3,9.6c-0.2,0.4-0.3,0.9-0.3,1.3c0,0.1,0,0.1,0,0.2c0,0,0,0,0,0c0,0.1,0,0.1,0,0.2c0,0,0,0,0,0c0,0.1,0,0.1,0,0.2
	c0,0,0,0,0,0c0,0,0,0,0,0c0,0.1,0,0.1,0,0.2c0,0,0,0,0,0c0,0,0,0.1,0,0.1c0,0,0,0,0,0c0,0.1,0,0.1,0,0.2c0,0,0,0,0,0
	c0,0.1,0,0.1,0.1,0.2c0,0,0,0,0,0c0,0,0,0.1,0.1,0.1c0,0,0,0,0,0c0,0,0,0.1,0.1,0.1c0,0,0,0,0,0l1,1.8l2.1-0.1l1.5,0
	c1,0.1,2,0.4,2.9,0.9c1.2,0.7,2,1.8,2.6,3.2l0.5,1.7l0.6,1.9l1.6-0.9l6-3.4C23.3,16.9,23.8,14.9,23,13.4z"/>
<path class="st0" d="M24,7.9l-10.7-7C11.5-0.3,9.1,0.2,7.9,2L4,7.9l-3.2,4.8c-0.4,0.6-0.6,1.2-0.6,1.8l0.5,0l3.3-0.1l0,0l0,0l-1-1.8
	c0,0,0,0,0,0c0,0-0.1-0.1-0.1-0.1c0,0,0,0,0,0c0,0,0-0.1-0.1-0.2c0,0,0,0,0,0c0-0.1,0-0.1-0.1-0.2c0,0,0,0,0,0c0-0.1,0-0.1,0-0.2
	c0,0,0,0,0,0c0,0,0-0.1,0-0.1c0,0,0,0,0,0c0-0.1,0-0.1,0-0.2c0,0,0,0,0,0c0,0,0,0,0,0c0-0.1,0-0.1,0-0.2c0,0,0,0,0,0
	c0-0.1,0-0.1,0-0.2c0,0,0,0,0,0c0-0.1,0-0.1,0-0.2c0-0.5,0.1-0.9,0.3-1.3C3,9.5,3,9.5,3.1,9.4c0.3-0.5,0.7-0.8,1.1-1.1l4.1-2.4
	l5-2.9c1.5-0.9,3.5-0.3,4.3,1.2l5.2,9.2c0.9,1.5,0.3,3.5-1.2,4.3l-6,3.4L14.2,22l0.2,0.5l0.6,2l0.4,1.2c0.1,0,0.1,0,0.2,0l0,0l0,0
	c1-0.2,1.9-0.8,2.5-1.7l2.5-3.7l4.6-7C26.3,11.5,25.8,9.1,24,7.9z"/>
</svg>
