<?xml version="1.0" encoding="utf-8"?>
<!-- Generator: Adobe Illustrator 22.1.0, SVG Export Plug-In . SVG Version: 6.00 Build 0)  -->
<svg version="1.1" id="Layer_1" xmlns="http://www.w3.org/2000/svg" xmlns:xlink="http://www.w3.org/1999/xlink" x="0px" y="0px"
	 viewBox="0 0 85.7 25.1" style="enable-background:new 0 0 85.7 25.1;" xml:space="preserve">
<style type="text/css">
	.st0{opacity:0;fill:#FFFFFF;}
	.st1{fill:#304894;}
	.st2{fill:#2727C4;}
	.st3{fill:#CAD8ED;}
	.st4{fill:#A7B7D9;}
</style>
<rect class="st0" width="85.7" height="25.1"/>
<polygon class="st1" points="29.2,19.3 32.5,19.3 28.3,14 32.1,10.1 28.9,10.1 25,13.8 25,6.5 22.3,6.5 22.3,19.3 25,19.3 25,17 
	26.3,15.7 "/>
<path class="st1" d="M42,14.7c0-2.9-2-4.7-4.7-4.7c-2.7,0-4.8,1.9-4.8,4.6c0,2.7,2,4.6,5.1,4.6c1.6,0,2.9-0.5,3.7-1.5L40,16.4
	c-0.6,0.6-1.3,0.9-2.3,0.9c-1.4,0-2.3-0.7-2.6-1.8h6.8C41.9,15.2,42,14.9,42,14.7z M35.1,13.9c0.2-1.2,1-1.9,2.2-1.9
	c1.2,0,2,0.7,2.2,1.9H35.1z"/>
<path class="st1" d="M52.9,14.7c0-2.9-2-4.7-4.7-4.7c-2.8,0-4.8,1.9-4.8,4.6c0,2.7,2,4.6,5.1,4.6c1.6,0,2.9-0.5,3.7-1.5l-1.4-1.5
	c-0.6,0.6-1.3,0.9-2.3,0.9c-1.4,0-2.3-0.7-2.6-1.8h6.8C52.9,15.2,52.9,14.9,52.9,14.7z M46,13.9c0.2-1.2,1-1.9,2.2-1.9
	c1.2,0,2,0.7,2.2,1.9H46z"/>
<path class="st1" d="M70.9,14.7c0-2.9-2-4.7-4.7-4.7c-2.7,0-4.8,1.9-4.8,4.6c0,2.7,2,4.6,5.1,4.6c1.6,0,2.9-0.5,3.7-1.5l-1.4-1.5
	c-0.6,0.6-1.3,0.9-2.3,0.9c-1.4,0-2.3-0.7-2.6-1.8h6.8C70.8,15.2,70.9,14.9,70.9,14.7z M64,13.9c0.2-1.2,1-1.9,2.2-1.9
	c1.2,0,2,0.7,2.2,1.9H64z"/>
<rect x="71.9" y="6.5" class="st1" width="2.7" height="12.8"/>
<path class="st2" d="M76.6,9.6L76.6,9.6L76.6,9.6L76.6,9.6z"/>
<path class="st3" d="M36,0C36,0,36,0,36,0C36,0,36,0,36,0z"/>
<path class="st3" d="M92.3,17.8L92.3,17.8L92.3,17.8L92.3,17.8z"/>
<path class="st1" d="M82.4,10v0.2v1c-0.8-0.8-1.7-1.3-2.7-1.3c-1.2,0-2.2,0.4-3,1.3c-0.8,0.9-1.2,2-1.2,3.3c0,1.3,0.4,2.5,1.2,3.4
	c0.8,0.9,1.8,1.3,3,1.3c1,0,1.9-0.4,2.7-1.2v0.9v0.3h2v-0.3v-8.8V10H82.4z M81.8,16.7c-0.5,0.5-1.1,0.8-1.8,0.8
	c-0.7,0-1.3-0.3-1.7-0.8c-0.5-0.5-0.7-1.2-0.7-2.1c0-0.8,0.2-1.4,0.7-2c0.5-0.5,1.1-0.8,1.7-0.8c0.7,0,1.3,0.3,1.8,0.8
	c0.3,0.3,0.5,0.7,0.6,1.1v1.9C82.3,16,82.1,16.4,81.8,16.7z"/>
<g>
	<path class="st1" d="M8.3,20.9L8.3,20.9L8.3,20.9c-0.1,0-0.2-0.1-0.3-0.1c0,0-0.1,0-0.1,0h0C7.6,20.5,7.3,20.3,7,20
		c-0.1-0.1-0.1-0.2-0.2-0.2c0,0,0,0,0,0c0,0,0,0,0,0c0,0,0,0,0,0l-3-5.2l-2.3,0.1l-0.9,0c0,0.4,0.1,0.7,0.3,1c0,0,0,0.1,0.1,0.1
		c0,0,0,0,0,0c0,0,0,0.1,0.1,0.1c0,0,0,0,0,0c0,0,0.1,0.1,0.1,0.1l0,0c0,0,0,0,0,0c0,0,0.1,0.1,0.1,0.1c0,0,0,0,0,0
		c0,0,0.1,0.1,0.1,0.1c0,0,0,0,0,0c0,0,0.1,0.1,0.1,0.1c0,0,0,0,0,0c0,0,0.1,0.1,0.1,0.1c0,0,0,0,0,0c0,0,0.1,0.1,0.1,0.1
		c0,0,0,0,0,0c0,0,0.1,0.1,0.1,0.1c0,0,0,0,0,0l8.3,5.4c0,0,0,0,0,0c0,0,0,0,0,0c0.1,0.1,0.2,0.1,0.3,0.2c0.1,0.1,0.2,0.1,0.4,0.1
		c0,0,0,0,0,0c0,0,0.1,0,0.1,0c0,0,0,0,0,0c0,0,0.1,0,0.1,0l0,0c0,0,0,0,0.1,0c0,0,0,0,0,0c0,0,0.1,0,0.1,0c0,0,0,0,0,0
		c0,0,0.1,0,0.1,0c0,0,0,0,0,0c0,0,0.1,0,0.1,0c0,0,0,0,0,0c0.1,0,0.1,0,0.2,0c0,0,0,0,0,0c0,0,0,0,0.1,0c0,0,0,0,0,0c0,0,0,0,0.1,0
		h0l-0.4-1.3l-0.4-1.4l-0.9,0.5C9.6,21,8.9,21,8.3,20.9z"/>
	<path class="st4" d="M11.4,14.3l-2,0l-0.6-1.9C8.4,11,9.2,9.5,10.6,9.1c0.8-0.3,1.7-0.1,2.3,0.4c0.7,0.5,1.1,1.2,1.1,2.1
		C14.1,13,12.9,14.3,11.4,14.3z M18.2,13.2l-4-7.1C13.5,5,12,4.6,10.8,5.2L6.9,7.5L3.7,9.3c-0.4,0.2-0.7,0.5-0.9,0.9
		c0,0-0.1,0.1-0.1,0.2c-0.2,0.3-0.2,0.7-0.3,1c0,0,0,0.1,0,0.1c0,0,0,0,0,0c0,0,0,0.1,0,0.1c0,0,0,0,0,0c0,0,0,0.1,0,0.1
		c0,0,0,0,0,0c0,0,0,0,0,0c0,0,0,0.1,0,0.1c0,0,0,0,0,0c0,0,0,0.1,0,0.1c0,0,0,0,0,0c0,0,0,0.1,0,0.1c0,0,0,0,0,0c0,0,0,0.1,0,0.1
		c0,0,0,0,0,0c0,0,0,0.1,0.1,0.1c0,0,0,0,0,0c0,0,0,0.1,0.1,0.1c0,0,0,0,0,0L3.6,14l1.6,0l1.1,0c0.8,0.1,1.6,0.3,2.2,0.7
		c0.9,0.6,1.6,1.4,2,2.5l0.4,1.3l0.5,1.5l1.2-0.7l4.6-2.6C18.5,15.9,18.9,14.4,18.2,13.2z"/>
	<path class="st1" d="M19,9l-8.3-5.4C9.4,2.7,7.5,3.1,6.6,4.4L3.6,9l-2.4,3.7c-0.3,0.4-0.4,0.9-0.5,1.4l0.4,0L3.6,14l0,0l0,0
		l-0.8-1.4c0,0,0,0,0,0c0,0,0-0.1-0.1-0.1c0,0,0,0,0,0c0,0,0-0.1-0.1-0.1c0,0,0,0,0,0c0,0,0-0.1,0-0.1c0,0,0,0,0,0c0,0,0-0.1,0-0.1
		c0,0,0,0,0,0c0,0,0-0.1,0-0.1c0,0,0,0,0,0c0,0,0-0.1,0-0.1c0,0,0,0,0,0c0,0,0,0,0,0c0,0,0-0.1,0-0.1c0,0,0,0,0,0c0,0,0-0.1,0-0.1
		c0,0,0,0,0,0c0,0,0-0.1,0-0.1c0-0.4,0.1-0.7,0.3-1c0-0.1,0.1-0.1,0.1-0.2c0.2-0.3,0.5-0.7,0.9-0.9l3.2-1.8l3.9-2.2
		C12,4.6,13.5,5,14.2,6.2l4.1,7.1c0.7,1.2,0.3,2.7-0.9,3.3l-4.6,2.6l-1.2,0.7l0.1,0.4l0.5,1.5l0.3,0.9c0,0,0.1,0,0.1,0l0,0l0,0
		c0.8-0.1,1.5-0.6,1.9-1.3l1.9-2.9l3.5-5.4C20.8,11.8,20.4,9.9,19,9z"/>
</g>
<path class="st1" d="M58.9,17.2c-0.7,0-1.2-0.4-1.2-1.2v-3.8h2.3V10h-2.3V8.8H55V10h-1.4v2.1H55V16c0,2.2,1.3,3.4,3.5,3.4
	c0.8,0,1.7-0.2,2.2-0.6L60,16.8C59.7,17.1,59.3,17.2,58.9,17.2z"/>
</svg>
