<?xml version="1.0" encoding="UTF-8" standalone="no"?><!-- Generator: Gravit.io --><svg xmlns="http://www.w3.org/2000/svg" xmlns:xlink="http://www.w3.org/1999/xlink" style="isolation:isolate" viewBox="0 0 98.287 25.064" width="98.287pt" height="25.064pt"><defs><clipPath id="_clipPath_4QqcLwuD8xn6TRDdUT0e8T6pm2faOlOA"><rect width="98.287" height="25.064"/></clipPath></defs><g clip-path="url(#_clipPath_4QqcLwuD8xn6TRDdUT0e8T6pm2faOlOA)"><path d=" M 35.213 19.347 L 38.477 19.347 L 34.263 13.994 L 38.131 10.057 L 34.92 10.057 L 30.982 13.787 L 30.982 6.535 L 28.289 6.535 L 28.289 19.347 L 30.982 19.347 L 30.982 16.982 L 32.278 15.704 L 35.213 19.347 Z  M 48.786 14.737 C 48.786 11.749 46.679 9.919 43.951 9.919 C 41.119 9.919 38.995 11.922 38.995 14.702 C 38.995 17.465 41.084 19.486 44.296 19.486 C 45.971 19.486 47.266 18.967 48.129 17.983 L 46.696 16.429 C 46.057 17.033 45.349 17.327 44.365 17.327 C 42.949 17.327 41.965 16.619 41.706 15.462 L 48.734 15.462 C 48.751 15.238 48.786 14.944 48.786 14.737 Z  M 43.968 11.957 C 45.177 11.957 46.057 12.716 46.247 13.891 L 41.671 13.891 C 41.861 12.699 42.742 11.957 43.968 11.957 Z  M 59.682 14.737 C 59.682 11.749 57.575 9.919 54.847 9.919 C 52.015 9.919 49.891 11.922 49.891 14.702 C 49.891 17.465 51.98 19.486 55.192 19.486 C 56.867 19.486 58.162 18.967 59.026 17.983 L 57.592 16.429 C 56.953 17.033 56.245 17.327 55.261 17.327 C 53.845 17.327 52.861 16.619 52.602 15.462 L 59.63 15.462 C 59.647 15.238 59.682 14.944 59.682 14.737 Z  M 54.864 11.957 C 56.073 11.957 56.953 12.716 57.143 13.891 L 52.567 13.891 C 52.757 12.699 53.638 11.957 54.864 11.957 Z  M 66.744 16.999 C 66.451 17.223 66.054 17.344 65.656 17.344 C 64.931 17.344 64.499 16.913 64.499 16.118 L 64.499 12.337 L 66.813 12.337 L 66.813 10.264 L 64.499 10.264 L 64.499 8.002 L 61.806 8.002 L 61.806 10.264 L 60.372 10.264 L 60.372 12.337 L 61.806 12.337 L 61.806 16.153 C 61.806 18.363 63.083 19.486 65.276 19.486 C 66.105 19.486 66.917 19.296 67.47 18.898 L 66.744 16.999 Z  M 78.089 14.737 C 78.089 11.749 75.983 9.919 73.254 9.919 C 70.422 9.919 68.298 11.922 68.298 14.702 C 68.298 17.465 70.388 19.486 73.6 19.486 C 75.275 19.486 76.57 18.967 77.433 17.983 L 76 16.429 C 75.361 17.033 74.653 17.327 73.669 17.327 C 72.253 17.327 71.268 16.619 71.009 15.462 L 78.037 15.462 C 78.055 15.238 78.089 14.944 78.089 14.737 Z  M 73.272 11.957 C 74.48 11.957 75.361 12.716 75.551 13.891 L 70.975 13.891 C 71.165 12.699 72.046 11.957 73.272 11.957 Z  M 79.885 19.347 L 82.579 19.347 L 82.579 6.535 L 79.885 6.535 L 79.885 19.347 Z  M 88.83 9.919 C 87.345 9.919 85.843 10.316 84.824 11.042 L 85.791 12.924 C 86.464 12.388 87.483 12.06 88.467 12.06 C 89.918 12.06 90.608 12.734 90.608 13.891 L 88.467 13.891 C 85.635 13.891 84.478 15.03 84.478 16.671 C 84.478 18.277 85.773 19.486 87.949 19.486 C 89.313 19.486 90.28 19.037 90.781 18.19 L 90.781 19.347 L 93.302 19.347 L 93.302 14.046 C 93.302 11.231 91.662 9.919 88.83 9.919 Z  M 88.623 17.672 C 87.673 17.672 87.103 17.223 87.103 16.55 C 87.103 15.928 87.5 15.462 88.761 15.462 L 90.608 15.462 L 90.608 16.412 C 90.298 17.258 89.521 17.672 88.623 17.672 Z " fill="rgb(255,255,255)"/><path d=" M 82.564 9.645 L 82.567 9.646 L 82.56 9.642 L 82.564 9.645 Z " fill="rgb(39,39,196)"/><path d=" M 42.032 0.004 C 42.028 0.003 42.024 0.001 42.02 0 C 42.024 0.001 42.028 0.003 42.032 0.004 Z " fill="rgb(202,216,237)"/><path d=" M 98.285 17.798 L 98.285 17.798 L 98.287 17.784 L 98.285 17.798 Z " fill="rgb(202,216,237)"/><path d=" M 9.709 22.605 L 9.709 22.605 L 9.701 22.603 C 9.571 22.564 9.443 22.518 9.319 22.462 C 9.28 22.445 9.242 22.426 9.203 22.407 L 9.202 22.407 C 8.779 22.197 8.4 21.891 8.103 21.496 C 8.028 21.397 7.958 21.292 7.894 21.182 C 7.893 21.181 7.893 21.18 7.891 21.179 C 7.891 21.177 7.889 21.175 7.888 21.173 C 7.886 21.169 7.883 21.165 7.881 21.161 L 4.074 14.497 L 1.161 14.567 L 0 14.595 C 0.03 15.056 0.144 15.508 0.336 15.929 C 0.362 15.987 0.39 16.043 0.419 16.099 C 0.427 16.115 0.435 16.13 0.443 16.145 C 0.472 16.199 0.503 16.253 0.535 16.307 C 0.545 16.322 0.554 16.338 0.564 16.354 C 0.596 16.405 0.629 16.456 0.664 16.507 L 0.666 16.51 C 0.676 16.523 0.685 16.537 0.695 16.551 C 0.732 16.603 0.77 16.654 0.809 16.704 C 0.817 16.714 0.826 16.724 0.834 16.734 C 0.871 16.78 0.91 16.826 0.949 16.871 C 0.959 16.882 0.969 16.893 0.979 16.904 C 1.023 16.952 1.067 16.997 1.113 17.044 C 1.126 17.056 1.139 17.069 1.152 17.082 C 1.198 17.126 1.246 17.169 1.294 17.211 C 1.308 17.223 1.322 17.236 1.337 17.248 C 1.387 17.29 1.437 17.331 1.49 17.371 C 1.503 17.381 1.516 17.39 1.53 17.4 C 1.581 17.438 1.634 17.476 1.688 17.511 C 1.694 17.515 1.699 17.519 1.705 17.523 L 12.255 24.443 C 12.26 24.446 12.265 24.449 12.27 24.452 C 12.274 24.455 12.277 24.457 12.281 24.46 C 12.411 24.543 12.544 24.618 12.68 24.684 C 12.826 24.755 12.976 24.816 13.127 24.868 C 13.13 24.868 13.132 24.869 13.135 24.87 C 13.17 24.882 13.204 24.893 13.238 24.903 C 13.243 24.905 13.248 24.906 13.253 24.907 C 13.286 24.916 13.318 24.926 13.351 24.935 L 13.369 24.94 C 13.4 24.948 13.432 24.956 13.464 24.964 C 13.471 24.965 13.477 24.967 13.483 24.968 C 13.516 24.976 13.547 24.982 13.579 24.989 C 13.585 24.99 13.592 24.992 13.599 24.993 C 13.631 24.999 13.664 25.005 13.696 25.011 C 13.701 25.011 13.707 25.013 13.713 25.014 C 13.749 25.019 13.785 25.025 13.821 25.03 C 13.823 25.03 13.826 25.03 13.828 25.031 C 13.904 25.041 13.981 25.049 14.058 25.055 C 14.067 25.055 14.077 25.056 14.087 25.057 C 14.115 25.058 14.142 25.06 14.17 25.061 C 14.185 25.061 14.198 25.062 14.213 25.062 C 14.236 25.063 14.26 25.064 14.283 25.064 L 14.286 25.064 L 13.782 23.428 L 13.246 21.69 L 12.139 22.322 C 11.371 22.761 10.495 22.836 9.709 22.605 Z " fill="rgb(255,255,255)"/><path d=" M 13.68 14.261 L 11.122 14.323 L 10.369 11.877 C 9.813 10.078 10.823 8.17 12.622 7.616 C 13.675 7.291 14.765 7.503 15.6 8.095 C 16.429 8.698 16.979 9.666 17.006 10.771 C 17.051 12.653 15.562 14.215 13.68 14.261 Z  M 22.309 12.917 L 17.162 3.908 C 16.307 2.412 14.401 1.891 12.904 2.747 L 7.946 5.579 L 3.895 7.894 C 3.414 8.169 3.035 8.552 2.769 8.996 C 2.731 9.059 2.695 9.124 2.662 9.19 C 2.459 9.588 2.345 10.026 2.325 10.473 C 2.323 10.525 2.322 10.577 2.323 10.629 C 2.323 10.643 2.323 10.657 2.323 10.672 C 2.324 10.722 2.327 10.773 2.33 10.824 C 2.332 10.839 2.333 10.854 2.334 10.869 C 2.338 10.919 2.344 10.969 2.35 11.019 C 2.35 11.02 2.35 11.021 2.35 11.022 C 2.352 11.036 2.355 11.05 2.357 11.063 C 2.364 11.115 2.373 11.166 2.383 11.217 C 2.385 11.228 2.388 11.239 2.39 11.249 C 2.4 11.297 2.411 11.345 2.424 11.392 C 2.427 11.404 2.43 11.416 2.432 11.428 C 2.447 11.478 2.463 11.53 2.479 11.58 C 2.484 11.594 2.488 11.608 2.494 11.622 C 2.511 11.672 2.529 11.721 2.549 11.771 C 2.555 11.784 2.561 11.799 2.567 11.813 C 2.587 11.862 2.61 11.911 2.633 11.96 C 2.639 11.972 2.645 11.984 2.651 11.996 C 2.675 12.044 2.7 12.091 2.726 12.137 C 2.729 12.142 2.731 12.147 2.734 12.152 L 3.749 13.93 L 5.823 13.88 L 7.266 13.845 C 8.287 13.918 9.243 14.207 10.095 14.732 C 11.252 15.443 12.106 16.522 12.661 17.858 L 13.162 19.485 L 13.752 21.401 L 15.278 20.53 L 21.148 17.175 C 22.644 16.32 23.165 14.414 22.309 12.917 Z " fill="rgb(202,213,236)"/><g><path d=" M 23.338 7.546 L 12.788 0.626 C 11.035 -0.524 8.683 -0.034 7.533 1.718 L 3.724 7.525 L 0.613 12.269 C 0.256 12.812 0.059 13.414 0.006 14.02 L 0.513 14.007 L 3.742 13.93 L 3.749 13.929 L 3.752 13.934 L 2.734 12.152 C 2.731 12.147 2.729 12.142 2.726 12.138 C 2.7 12.091 2.675 12.044 2.651 11.996 C 2.645 11.984 2.639 11.972 2.633 11.96 C 2.61 11.912 2.587 11.862 2.567 11.812 C 2.561 11.798 2.555 11.785 2.549 11.771 C 2.529 11.721 2.511 11.672 2.494 11.623 C 2.488 11.608 2.484 11.594 2.479 11.58 C 2.463 11.529 2.447 11.478 2.433 11.428 C 2.43 11.416 2.427 11.404 2.424 11.392 C 2.411 11.345 2.4 11.297 2.39 11.249 C 2.388 11.238 2.385 11.228 2.383 11.218 C 2.373 11.166 2.365 11.114 2.357 11.063 C 2.355 11.049 2.352 11.035 2.351 11.021 C 2.351 11.021 2.351 11.019 2.35 11.019 C 2.344 10.969 2.338 10.919 2.334 10.869 C 2.333 10.854 2.332 10.838 2.33 10.824 C 2.327 10.773 2.324 10.723 2.323 10.672 C 2.323 10.657 2.323 10.644 2.323 10.629 C 2.323 10.577 2.323 10.525 2.325 10.473 C 2.345 10.027 2.46 9.588 2.662 9.19 C 2.695 9.124 2.731 9.059 2.769 8.996 C 3.035 8.552 3.414 8.168 3.895 7.894 L 7.946 5.58 L 12.904 2.746 C 14.401 1.892 16.307 2.412 17.162 3.908 L 22.31 12.917 C 23.165 14.414 22.644 16.32 21.148 17.175 L 15.278 20.529 L 13.752 21.401 L 13.906 21.901 L 14.5 23.826 L 14.87 25.026 C 14.921 25.018 14.972 25.01 15.023 25.001 L 15.033 25 C 15.033 25 15.034 24.999 15.034 24.999 C 16.013 24.816 16.921 24.251 17.51 23.351 L 19.922 19.676 L 24.43 12.801 C 25.58 11.048 25.091 8.696 23.338 7.546 Z " fill="rgb(255,255,255)"/></g></g></svg>