<svg width="2178" height="2234" viewBox="0 0 2178 2234" fill="none" xmlns="http://www.w3.org/2000/svg">
<g clip-path="url(#clip0)">
<rect width="2178" height="2234" fill="white"/>
<path d="M355 1287C562.107 1287 730 1119.33 730 912.5C730 705.669 562.107 538 355 538C147.893 538 -20 705.669 -20 912.5C-20 1119.33 147.893 1287 355 1287Z" fill="#F2F2F2"/>
<path d="M416 1232C623.107 1232 791 1064.33 791 857.5C791 650.669 623.107 483 416 483C208.893 483 41 650.669 41 857.5C41 1064.33 208.893 1232 416 1232Z" fill="#6C63FF"/>
<path d="M603 1846C346.047 1846 137 1636.73 137 1379.5C137 1122.27 346.047 913 603 913C859.953 913 1069 1122.27 1069 1379.5C1069 1636.73 859.953 1846 603 1846ZM603 919.098C349.405 919.098 143.092 1125.63 143.092 1379.5C143.092 1633.37 349.405 1839.9 603 1839.9C856.595 1839.9 1062.91 1633.37 1062.91 1379.5C1062.91 1125.63 856.594 919.098 603 919.098Z" fill="#3F3D56"/>
<path d="M874.499 1519L625 1236.39L1371.5 703L2118 1236.39L1864.51 1519H874.499Z" fill="#6C63FF"/>
<path d="M874.499 1519L625 1236.39L1371.5 703L2118 1236.39L1864.51 1519H874.499Z" fill="#403EA8"/>
<path d="M2083 1274H625V1908H2083V1274Z" fill="#6C63FF"/>
<path d="M2083 1274H625V1908H2083V1274Z" fill="url(#paint0_linear)"/>
<path d="M2118 2136H625V1238L1371.5 1688L2118 1238V2136Z" fill="#6C63FF"/>
<path d="M1928 936.021L1769.68 815L1350.31 1360.24L1117.4 1182.19L996 1340.02L1308.05 1578.21L1388.08 1638L1928 936.021Z" fill="#3AD29F"/>
<path d="M1304.65 238.375L1317.53 227.67L1314.02 227.985L1314.95 226.955L1312.94 228.081L901.382 264.741L939.221 395.397L977.603 510.153L999.43 492.013L1033.7 538.923L1304.65 238.375Z" fill="url(#paint1_linear)"/>
<path d="M951.937 389.665L987.203 494.552L1305.08 234.536L995.889 309.773L951.937 389.665Z" fill="#6C63FF"/>
<path opacity="0.2" d="M951.937 389.665L987.203 494.552L1305.08 234.536L995.889 309.773L951.937 389.665Z" fill="black"/>
<path d="M917.554 270.399L1305.08 234.536L952.171 389.82L917.554 270.399Z" fill="#6C63FF"/>
<path d="M1039.29 521.156L1303.13 233.659L965.104 421.022L1039.29 521.156Z" fill="#6C63FF"/>
<path d="M1897.81 258.979L1853.56 335.681L2178 388.502L1969.04 243.011L1897.81 258.979Z" fill="#6C63FF"/>
<path opacity="0.2" d="M1897.81 258.979L1853.56 335.681L2178 388.502L1969.04 243.011L1897.81 258.979Z" fill="black"/>
<path d="M1951.09 174.907L2178 388.503L1897.81 258.979L1951.09 174.907Z" fill="#6C63FF"/>
<path d="M1865.53 380.766L2177.12 386.718L1886.23 283.413L1865.53 380.766Z" fill="#6C63FF"/>
</g>
<defs>
<linearGradient id="paint0_linear" x1="1354" y1="1908" x2="1354" y2="1274" gradientUnits="userSpaceOnUse">
<stop stop-opacity="0.12"/>
<stop offset="0.55135" stop-opacity="0.09"/>
<stop offset="1" stop-opacity="0.02"/>
</linearGradient>
<linearGradient id="paint1_linear" x1="1181.77" y1="495.893" x2="1097.94" y2="207.608" gradientUnits="userSpaceOnUse">
<stop stop-color="#808080" stop-opacity="0.25"/>
<stop offset="0.53514" stop-color="#808080" stop-opacity="0.12"/>
<stop offset="1" stop-color="#808080" stop-opacity="0.1"/>
</linearGradient>
<clipPath id="clip0">
<rect width="2178" height="2234" fill="white"/>
</clipPath>
</defs>
</svg>
