<svg width="5157" height="2234" viewBox="0 0 5157 2234" fill="none" xmlns="http://www.w3.org/2000/svg">
<rect width="5157" height="2234" fill="#E5E5E5"/>
<g clip-path="url(#clip0)">
<rect width="2178" height="2234" fill="white"/>
<path d="M357 1685C564.107 1685 732 1517.33 732 1310.5C732 1103.67 564.107 936 357 936C149.893 936 -18 1103.67 -18 1310.5C-18 1517.33 149.893 1685 357 1685Z" fill="#F2F2F2"/>
<path d="M418 1630C625.107 1630 793 1462.33 793 1255.5C793 1048.67 625.107 881 418 881C210.893 881 43 1048.67 43 1255.5C43 1462.33 210.893 1630 418 1630Z" fill="#6C63FF"/>
<path d="M989 2032H505V2037H989V2032Z" fill="#3F3D56"/>
<path d="M747 2039C490.047 2039 281 1829.73 281 1572.5C281 1315.27 490.047 1106 747 1106C1003.95 1106 1213 1315.27 1213 1572.5C1213 1829.73 1003.95 2039 747 2039ZM747 1112.1C493.405 1112.1 287.092 1318.63 287.092 1572.5C287.092 1826.37 493.405 2032.9 747 2032.9C1000.59 2032.9 1206.91 1826.37 1206.91 1572.5C1206.91 1318.63 1000.59 1112.1 747 1112.1Z" fill="#3F3D56"/>
<path d="M2078 558.673H2066.07V232.044C2066.07 207.218 2061.17 182.636 2051.66 159.7C2042.15 136.764 2028.22 115.924 2010.65 98.3695C1993.08 80.8152 1972.22 66.8903 1949.26 57.3899C1926.3 47.8896 1901.7 42.9999 1876.85 43H1184.22C1159.37 42.9999 1134.76 47.8896 1111.81 57.3899C1088.85 66.8902 1067.99 80.8151 1050.42 98.3695C1032.85 115.924 1018.91 136.764 1009.4 159.7C999.894 182.636 995 207.218 995 232.044V2023.96C995 2048.78 999.894 2073.36 1009.4 2096.3C1018.91 2119.24 1032.85 2140.08 1050.42 2157.63C1067.99 2175.18 1088.85 2189.11 1111.81 2198.61C1134.76 2208.11 1159.37 2213 1184.22 2213H1876.85C1901.7 2213 1926.3 2208.11 1949.26 2198.61C1972.22 2189.11 1993.08 2175.18 2010.65 2157.63C2028.22 2140.08 2042.15 2119.24 2051.66 2096.3C2061.17 2073.36 2066.07 2048.78 2066.07 2023.96V791.173H2078L2078 558.673Z" fill="#3F3D56"/>
<rect x="1143" y="377" width="752" height="745" fill="#6560BC"/>
<path d="M1879.92 97H1789.66C1793.81 107.186 1795.39 118.238 1794.27 129.181C1793.15 140.125 1789.36 150.624 1783.23 159.755C1777.1 168.885 1768.82 176.367 1759.12 181.54C1749.42 186.713 1738.59 189.419 1727.6 189.42H1331.44C1320.45 189.419 1309.63 186.713 1299.93 181.54C1290.23 176.367 1281.95 168.885 1275.82 159.755C1269.69 150.624 1265.89 140.125 1264.77 129.181C1263.65 118.238 1265.23 107.186 1269.38 97H1185.08C1166.55 97 1148.2 100.652 1131.09 107.748C1113.97 114.844 1098.42 125.245 1085.32 138.357C1072.22 151.468 1061.83 167.034 1054.74 184.165C1047.65 201.297 1044 219.658 1044 238.201V2027.8C1044 2046.34 1047.65 2064.7 1054.74 2081.83C1061.83 2098.97 1072.22 2114.53 1085.32 2127.64C1098.42 2140.75 1113.97 2151.16 1131.09 2158.25C1148.2 2165.35 1166.55 2169 1185.08 2169H1879.92C1898.45 2169 1916.8 2165.35 1933.91 2158.25C1951.03 2151.16 1966.58 2140.75 1979.68 2127.64C1992.78 2114.53 2003.17 2098.97 2010.26 2081.83C2017.35 2064.7 2021 2046.34 2021 2027.8V238.201C2021 219.658 2017.35 201.297 2010.26 184.166C2003.17 167.034 1992.78 151.468 1979.68 138.357C1966.58 125.245 1951.03 114.844 1933.91 107.748C1916.8 100.652 1898.45 97 1879.92 97V97ZM1864.76 927.206C1864.73 936.898 1860.87 946.184 1854.02 953.037C1847.18 959.889 1837.9 963.752 1828.22 963.78H1651.6C1641.92 963.752 1632.64 959.889 1625.79 953.037C1618.95 946.184 1615.09 936.898 1615.06 927.206V918.063C1615.09 908.371 1618.95 899.085 1625.79 892.232C1632.64 885.38 1641.92 881.517 1651.6 881.489H1828.22C1837.9 881.517 1847.18 885.38 1854.02 892.232C1860.87 899.085 1864.73 908.372 1864.76 918.063V927.206ZM1884.55 765.671C1884.52 775.363 1880.66 784.649 1873.82 791.502C1866.97 798.355 1857.69 802.217 1848.01 802.245H1214.62C1204.94 802.217 1195.66 798.355 1188.82 791.502C1181.97 784.649 1178.11 775.363 1178.08 765.671V756.528C1178.11 746.837 1181.97 737.55 1188.82 730.698C1195.66 723.845 1204.94 719.982 1214.62 719.954H1848.01C1857.69 719.982 1866.97 723.845 1873.82 730.698C1880.66 737.55 1884.52 746.837 1884.55 756.528V765.671ZM1884.55 604.137C1884.52 613.828 1880.66 623.114 1873.82 629.967C1866.97 636.82 1857.69 640.682 1848.01 640.711H1214.62C1204.94 640.682 1195.66 636.82 1188.82 629.967C1181.97 623.114 1178.11 613.828 1178.08 604.137V594.993C1178.11 585.302 1181.97 576.016 1188.82 569.163C1195.66 562.31 1204.94 558.448 1214.62 558.419H1848.01C1857.69 558.448 1866.97 562.31 1873.82 569.163C1880.66 576.016 1884.52 585.302 1884.55 594.993V604.137ZM1884.55 442.602C1884.52 452.293 1880.66 461.579 1873.82 468.432C1866.97 475.285 1857.69 479.147 1848.01 479.176H1214.62C1204.94 479.147 1195.66 475.285 1188.82 468.432C1181.97 461.579 1178.11 452.293 1178.08 442.602V433.458C1178.11 423.767 1181.97 414.481 1188.82 407.628C1195.66 400.775 1204.94 396.913 1214.62 396.884H1848.01C1857.69 396.913 1866.97 400.775 1873.82 407.628C1880.66 414.481 1884.52 423.767 1884.55 433.458V442.602Z" fill="#6C63FF"/>
<path d="M1188.01 1301.98C1166.24 1288.49 1139.98 1289.52 1130 1290.55C1133.8 1300.11 1145.21 1324.51 1166.98 1338.01C1188.81 1351.54 1215.03 1350.47 1225 1349.45C1221.2 1339.89 1209.79 1315.49 1188.01 1301.98Z" fill="#D0CDE1"/>
<path d="M783 772H625V930H783V772Z" fill="#F2F2F2"/>
<path d="M816 734H658V892H816V734Z" fill="#6C63FF"/>
<path d="M966 835H709V576H966V835ZM720.174 823.739H954.826V587.261H720.174V823.739Z" fill="#3F3D56"/>
<rect x="1044" y="1427" width="977" height="742" rx="140" fill="white"/>
<rect x="1124" y="1943" width="389" height="96" rx="48" fill="#3AD29F"/>
<rect x="1113" y="1726" width="389" height="55" rx="27.5" fill="#F1F1F1"/>
<rect x="1113" y="1630" width="505" height="55" rx="27.5" fill="#F1F1F1"/>
<rect x="1261" y="1509" width="543" height="55" rx="27.5" fill="#F1F1F1"/>
<rect x="1124" y="1908" width="817" height="2" fill="#C4C4C4"/>
<rect x="1553" y="1943" width="388" height="96" rx="48" fill="#3AD29F"/>
</g>
<g clip-path="url(#clip1)">
<rect x="2979" width="2178" height="2234" fill="white"/>
<path d="M3334 1287C3541.11 1287 3709 1119.33 3709 912.5C3709 705.669 3541.11 538 3334 538C3126.89 538 2959 705.669 2959 912.5C2959 1119.33 3126.89 1287 3334 1287Z" fill="#F2F2F2"/>
<path d="M3395 1232C3602.11 1232 3770 1064.33 3770 857.5C3770 650.669 3602.11 483 3395 483C3187.89 483 3020 650.669 3020 857.5C3020 1064.33 3187.89 1232 3395 1232Z" fill="#6C63FF"/>
<path d="M3582 1846C3325.05 1846 3116 1636.73 3116 1379.5C3116 1122.27 3325.05 913 3582 913C3838.95 913 4048 1122.27 4048 1379.5C4048 1636.73 3838.95 1846 3582 1846ZM3582 919.098C3328.41 919.098 3122.09 1125.63 3122.09 1379.5C3122.09 1633.37 3328.41 1839.9 3582 1839.9C3835.59 1839.9 4041.91 1633.37 4041.91 1379.5C4041.91 1125.63 3835.59 919.098 3582 919.098Z" fill="#3F3D56"/>
<path d="M3853.5 1519L3604 1236.39L4350.5 703L5097 1236.39L4843.51 1519H3853.5Z" fill="#6C63FF"/>
<path d="M3853.5 1519L3604 1236.39L4350.5 703L5097 1236.39L4843.51 1519H3853.5Z" fill="#403EA8"/>
<path d="M5062 1274H3604V1908H5062V1274Z" fill="#6C63FF"/>
<path d="M5062 1274H3604V1908H5062V1274Z" fill="url(#paint0_linear)"/>
<path d="M5097 2136H3604V1238L4350.5 1688L5097 1238V2136Z" fill="#6C63FF"/>
<path d="M4907 936.021L4748.68 815L4329.31 1360.24L4096.4 1182.19L3975 1340.02L4287.05 1578.21L4367.08 1638L4907 936.021Z" fill="#3AD29F"/>
<path d="M4283.65 238.375L4296.53 227.67L4293.02 227.985L4293.95 226.955L4291.94 228.081L3880.38 264.741L3918.22 395.397L3956.6 510.153L3978.43 492.013L4012.7 538.923L4283.65 238.375Z" fill="url(#paint1_linear)"/>
<path d="M3930.94 389.665L3966.2 494.552L4284.08 234.536L3974.89 309.773L3930.94 389.665Z" fill="#6C63FF"/>
<path opacity="0.2" d="M3930.94 389.665L3966.2 494.552L4284.08 234.536L3974.89 309.773L3930.94 389.665Z" fill="black"/>
<path d="M3896.55 270.399L4284.08 234.536L3931.17 389.82L3896.55 270.399Z" fill="#6C63FF"/>
<path d="M4018.29 521.156L4282.13 233.659L3944.1 421.022L4018.29 521.156Z" fill="#6C63FF"/>
<path d="M4876.81 258.979L4832.56 335.681L5157 388.502L4948.04 243.011L4876.81 258.979Z" fill="#6C63FF"/>
<path opacity="0.2" d="M4876.81 258.979L4832.56 335.681L5157 388.502L4948.04 243.011L4876.81 258.979Z" fill="black"/>
<path d="M4930.09 174.907L5157 388.503L4876.81 258.979L4930.09 174.907Z" fill="#6C63FF"/>
<path d="M4844.53 380.766L5156.12 386.718L4865.23 283.413L4844.53 380.766Z" fill="#6C63FF"/>
</g>
<defs>
<linearGradient id="paint0_linear" x1="4333" y1="1908" x2="4333" y2="1274" gradientUnits="userSpaceOnUse">
<stop stop-opacity="0.12"/>
<stop offset="0.55135" stop-opacity="0.09"/>
<stop offset="1" stop-opacity="0.02"/>
</linearGradient>
<linearGradient id="paint1_linear" x1="4160.77" y1="495.893" x2="4076.94" y2="207.608" gradientUnits="userSpaceOnUse">
<stop stop-color="#808080" stop-opacity="0.25"/>
<stop offset="0.53514" stop-color="#808080" stop-opacity="0.12"/>
<stop offset="1" stop-color="#808080" stop-opacity="0.1"/>
</linearGradient>
<clipPath id="clip0">
<rect width="2178" height="2234" fill="white"/>
</clipPath>
<clipPath id="clip1">
<rect x="2979" width="2178" height="2234" fill="white"/>
</clipPath>
</defs>
</svg>
