<?xml version="1.0" encoding="UTF-8" standalone="no"?><!-- Generator: Gravit.io --><svg xmlns="http://www.w3.org/2000/svg" xmlns:xlink="http://www.w3.org/1999/xlink" style="isolation:isolate" viewBox="0 0 1150 627.49" width="1150pt" height="627.49pt"><defs><clipPath id="_clipPath_C4g9FbDR9umjk8Ehm1Tl11xPIg0823OW"><rect width="1150" height="627.49"/></clipPath></defs><g clip-path="url(#_clipPath_C4g9FbDR9umjk8Ehm1Tl11xPIg0823OW)"><g opacity="0.1"><path d=" M 1137.81 582.18 C 1133.347 593.194 1127.852 603.761 1121.4 613.74 C 1118.374 618.499 1115.054 623.064 1111.46 627.41 C 1111.428 627.454 1111.391 627.494 1111.35 627.53 L 0 627.53 L 0.15 627.41 C 1.15 626.63 7.02 621.88 16.15 613.74 C 22.7 607.91 30.92 600.33 40.15 591.21 C 115.64 516.96 260.65 341.21 139.88 180.21 C 27.61 30.54 148.49 3.38 228.23 0.21 C 258.867 -0.99 289.43 4.006 318.09 14.9 C 354.93 28.9 422.26 50.36 509.98 60.2 C 512.86 60.52 515.76 60.84 518.7 61.13 C 565.142 65.859 611.897 66.708 658.48 63.67 L 658.48 63.67 C 659.85 63.59 661.23 63.49 662.62 63.39 C 708.702 60.154 754.434 53.08 799.34 42.24 C 802.25 41.53 805.12 40.86 807.98 40.19 C 957.61 5.57 1095.55 123.56 1061.06 256.9 C 1048.31 306.22 1051.55 358.79 1094.06 401.32 C 1163.66 470.74 1155.23 539.11 1137.81 582.18 Z " fill="rgb(108,99,255)"/></g><path d=" M 1137.81 582.18 C 1133.347 593.194 1127.852 603.761 1121.4 613.74 C 1118.374 618.499 1115.054 623.064 1111.46 627.41 L 0.15 627.41 C 1.15 626.63 7.02 621.88 16.15 613.74 C 22.7 607.91 30.92 600.33 40.15 591.21 L 157.28 567.01 C 158.793 566.698 160.335 566.54 161.88 566.54 L 286.75 566.36 L 286.88 566.36 L 348.73 566.28 L 348.87 566.28 L 401.07 566.22 L 435.24 566.22 L 435.24 566.22 L 470.24 566.22 L 613.66 566.02 L 613.89 566.02 L 625 566.02 L 644.52 566.02 L 668.89 566.02 L 675.37 566.02 L 700 565.74 L 708.14 565.74 L 779.78 565.64 L 802.66 565.64 L 802.66 565.64 L 813.66 565.64 L 813.66 565.64 L 896.41 565.53 L 921.05 565.53 L 999.43 565.42 L 1065.59 565.34 C 1067.433 565.341 1069.269 565.559 1071.06 565.99 L 1137.81 582.18 Z " fill="rgb(69,75,105)"/><path d=" M 16.15 613.74 L 1121.4 613.74 C 1118.374 618.499 1115.054 623.064 1111.46 627.41 L 0.15 627.41 C 1.13 626.58 7 621.83 16.15 613.74 Z " fill="none"/><g opacity="0.4"><path d=" M 16.15 613.74 L 1121.4 613.74 C 1118.374 618.499 1115.054 623.064 1111.46 627.41 L 0.15 627.41 C 1.13 626.58 7 621.83 16.15 613.74 Z " fill="rgb(0,0,0)"/></g><path d=" M 733.22 302.74 L 731 303.17 L 630.64 322.45 C 601.49 328.05 571.92 333.68 542.31 331.53 C 520.86 329.97 500.82 323.61 480.21 318.03 C 468.56 314.87 456.21 313.61 452.26 300.57 C 446.81 282.57 455.68 255.92 457.77 237.68 C 459.77 219.78 460.95 201.43 457.39 183.74 C 456.599 179.765 455.557 175.843 454.27 172 C 450.7 161.41 445.09 150.4 448.12 139.65 C 450.51 131.12 457.8 125.03 464.62 119.39 C 477.98 108.39 491.62 96.06 496.92 79.57 C 499.52 71.57 500.01 62.96 502.81 55.02 C 508.12 39.92 521.46 28.63 536.3 22.65 C 551.14 16.67 567.46 15.4 583.47 15.4 C 597.607 15.401 611.728 16.34 625.74 18.21 C 641.02 20.21 656.44 23.5 669.87 31.08 C 683.3 38.66 694.62 51.08 697.75 66.22 C 702.18 87.63 689.88 110.43 696.48 131.22 C 699.8 141.73 707.48 150.22 712.81 159.84 C 721.591 176.099 723.395 195.226 717.81 212.84 C 711.43 232.61 695.81 252.61 703.81 271.78 C 708.9 283.97 721.9 290.48 730.96 300.14 Q 732.17 301.44 733.22 302.74 Z " fill="rgb(69,75,105)"/><g opacity="0.1"><path d=" M 731 300.22 L 731 303.17 L 630.64 322.45 C 601.49 328.05 571.92 333.68 542.31 331.53 C 520.86 329.97 500.82 323.61 480.21 318.03 C 468.56 314.87 456.21 313.61 452.26 300.57 C 446.81 282.57 455.68 255.92 457.77 237.68 C 459.77 219.78 490.56 154.43 487 136.74 L 671 144.74 C 672.24 154.51 720.87 203.55 717.84 212.92 C 711.46 232.69 695.84 252.69 703.84 271.86 C 708.94 284.05 721.94 290.56 731 300.22 Z " fill="rgb(0,0,0)"/></g><path d=" M 543 250.74 C 544.09 256.93 544.67 263.74 541.51 269.14 C 537.3 276.38 528.12 278.69 519.91 280.33 L 491.41 286.03 C 489.47 286.42 487.41 286.86 485.96 288.19 C 484.25 289.72 483.67 292.14 483.42 294.42 C 482.27 304.74 485.92 314.91 489.25 324.74 C 495.98 344.65 501.63 364.98 510.14 384.19 C 518.65 403.4 530.33 421.74 547 434.58 C 563.67 447.42 585.73 454.26 606.14 449.24 C 623.92 444.87 638.5 432.32 651.07 419.01 C 661.44 408.01 671.14 396.01 676.17 381.74 C 679.64 371.94 680.77 361.5 681.86 351.16 Q 684.39 327.38 686.92 303.6 C 687.71 296.16 688.23 287.79 683.4 282.08 C 681.28 279.57 678.4 277.9 675.46 276.35 C 664.52 270.54 653 265.74 642.82 258.74 C 632.64 251.74 623.61 242.1 620.52 230.14 C 618.67 222.96 619 215.14 615.85 208.45 C 612.33 200.95 604.85 195.87 596.85 193.64 C 588.85 191.41 580.41 191.71 572.17 192.64 C 563.93 193.57 532.17 195.95 528.76 205.24 C 526.93 210.24 534.52 220.97 536.32 225.89 C 539.283 233.958 541.518 242.274 543 250.74 L 543 250.74 Z " fill="rgb(239,183,185)"/><g opacity="0.1"><path d=" M 543 250.74 C 544.09 256.93 544.67 263.74 541.51 269.14 C 537.3 276.38 528.12 278.69 519.91 280.33 L 491.41 286.03 C 489.47 286.42 487.41 286.86 485.96 288.19 C 484.25 289.72 483.67 292.14 483.42 294.42 C 482.27 304.74 485.92 314.91 489.25 324.74 C 495.98 344.65 501.63 364.98 510.14 384.19 C 518.65 403.4 530.33 421.74 547 434.58 C 563.67 447.42 585.73 454.26 606.14 449.24 C 623.92 444.87 638.5 432.32 651.07 419.01 C 661.44 408.01 671.14 396.01 676.17 381.74 C 679.64 371.94 680.77 361.5 681.86 351.16 Q 684.39 327.38 686.92 303.6 C 687.71 296.16 688.23 287.79 683.4 282.08 C 681.28 279.57 678.4 277.9 675.46 276.35 C 664.52 270.54 653 265.74 642.82 258.74 C 632.64 251.74 623.61 242.1 620.52 230.14 C 618.67 222.96 619 215.14 615.85 208.45 C 612.33 200.95 604.85 195.87 596.85 193.64 C 588.85 191.41 580.41 191.71 572.17 192.64 C 563.93 193.57 532.17 195.95 528.76 205.24 C 526.93 210.24 534.52 220.97 536.32 225.89 C 539.283 233.958 541.518 242.274 543 250.74 L 543 250.74 Z " fill="rgb(0,0,0)"/></g><path d=" M 611.59 359.48 L 628.3 324.1 C 636.13 307.52 644.13 290.1 643.3 271.79 C 643.14 268.15 643.1 263.6 646.3 261.95 C 647.689 261.383 649.203 261.19 650.69 261.39 C 668.282 262.29 685.642 265.801 702.2 271.81 C 705.41 272.97 708.7 274.31 710.95 276.87 C 713.2 279.43 714.11 282.87 714.88 286.17 C 717.503 297.328 719.417 308.64 720.61 320.04 C 723.61 348.26 722.12 376.73 720.61 405.04 L 716.17 491.47 C 716.194 492.696 715.945 493.912 715.44 495.03 C 714.34 497.03 711.86 497.7 709.63 498.08 C 701.04 499.55 692.26 499.25 683.56 498.92 C 622.36 496.6 560.84 493.04 500.04 500.46 Q 500.45 486.97 499.61 473.46 C 497.2 434.57 487.12 396.63 477.22 358.95 C 471.45 336.95 465.86 312.95 475.15 292.22 C 476.516 288.946 478.48 285.955 480.94 283.4 C 484.89 279.53 490.28 277.49 495.62 276.03 C 504.831 273.524 514.372 272.445 523.91 272.83 L 586.96 410.1 C 589.84 416.38 592.21 422.99 595.08 429.19 C 597.66 418.48 594.56 405.93 597.66 394.32 C 601 382.27 606.26 370.74 611.59 359.48 Z " fill="rgb(255,255,255)"/><path d=" M 605 453.93 C 616.28 454.64 627.24 448.86 635 440.69 C 642.76 432.52 647.88 422.16 652.21 411.69 C 658.435 396.766 663.382 381.34 667 365.58 C 670 352.18 672.13 338.31 670.06 324.73 C 667.2 305.98 656.59 288.94 654.78 270.06 C 654.47 266.76 654.67 262.9 657.32 260.91 C 658.96 259.68 661.12 259.51 663.16 259.39 C 682.02 258.27 702.74 258.48 717.35 270.45 C 721.8 274.09 725.41 278.64 729.76 282.39 C 740.12 291.39 754.76 295.97 761.41 307.92 C 763.73 312.08 764.84 316.79 766.46 321.27 C 770.28 331.87 776.89 341.19 783.46 350.36 C 777.09 377.24 769.77 404.14 763.4 431.02 C 759.67 446.79 755.91 462.62 750.05 477.72 C 746.21 487.62 741.38 497.72 742.56 508.32 C 743.03 512.49 744.42 516.48 745.63 520.5 C 749.872 534.61 751.859 549.3 751.52 564.03 L 466.18 564.73 C 479.85 545.13 483.86 521.09 482.47 497.24 C 481.8 485.81 479.22 474.31 473.47 464.42 C 464.41 448.92 448.47 438.82 432.76 430.17 C 421.76 424.17 409.95 457.93 398.06 454.06 C 399.98 440.48 400.86 388.06 400.06 374.39 C 399.8 369.91 399.4 365.31 400.78 361.03 C 401.72 358.1 403.45 355.48 404.62 352.63 C 409.31 341.22 404.84 326.63 412.42 316.92 C 417.66 310.17 426.85 308.25 434.32 304.09 C 441.99 299.81 447.92 293.09 454.6 287.35 C 467.707 276.22 483.723 269.069 500.76 266.74 C 505.73 274.579 508.751 283.494 509.57 292.74 C 510.08 298.55 509.71 304.44 510.52 310.22 C 511.63 318.05 514.87 325.4 518.08 332.64 C 531.45 362.83 544.87 393.11 561.81 421.46 C 566.6 429.46 571.81 437.46 578.75 443.69 C 585.69 449.92 595.68 454.37 605 453.93 Z " fill="rgb(64,62,168)"/><path d=" M 605 453.93 C 616.28 454.64 627.24 448.86 635 440.69 C 642.76 432.52 647.88 422.16 652.21 411.69 C 658.435 396.766 663.382 381.34 667 365.58 C 670 352.18 672.13 338.31 670.06 324.73 C 667.2 305.98 656.59 288.94 654.78 270.06 C 654.47 266.76 654.67 262.9 657.32 260.91 C 658.96 259.68 661.12 259.51 663.16 259.39 C 682.02 258.27 702.74 258.48 717.35 270.45 C 721.8 274.09 725.41 278.64 729.76 282.39 C 740.12 291.39 754.76 295.97 761.41 307.92 C 763.73 312.08 764.84 316.79 766.46 321.27 C 770.28 331.87 776.89 341.19 783.46 350.36 C 777.09 377.24 769.77 404.14 763.4 431.02 C 759.67 446.79 755.91 462.62 750.05 477.72 C 746.21 487.62 741.38 497.72 742.56 508.32 C 743.03 512.49 744.42 516.48 745.63 520.5 C 749.872 534.61 751.859 549.3 751.52 564.03 L 466.18 564.73 C 479.85 545.13 483.86 521.09 482.47 497.24 C 481.8 485.81 479.22 474.31 473.47 464.42 C 464.41 448.92 448.47 438.82 432.76 430.17 C 421.76 424.17 409.95 457.93 398.06 454.06 C 399.98 440.48 400.86 388.06 400.06 374.39 C 399.8 369.91 399.4 365.31 400.78 361.03 C 401.72 358.1 403.45 355.48 404.62 352.63 C 409.31 341.22 404.84 326.63 412.42 316.92 C 417.66 310.17 426.85 308.25 434.32 304.09 C 441.99 299.81 447.92 293.09 454.6 287.35 C 467.707 276.22 483.723 269.069 500.76 266.74 C 505.73 274.579 508.751 283.494 509.57 292.74 C 510.08 298.55 509.71 304.44 510.52 310.22 C 511.63 318.05 514.87 325.4 518.08 332.64 C 531.45 362.83 544.87 393.11 561.81 421.46 C 566.6 429.46 571.81 437.46 578.75 443.69 C 585.69 449.92 595.68 454.37 605 453.93 Z " fill="rgb(108,98,255)" fill-opacity="0.10196078431372549"/><circle vector-effect="non-scaling-stroke" cx="589.91" cy="162.75" r="85.72000000000003" fill="rgb(239,183,185)"/><path d=" M 544.93 276.98 C 547.28 254.8 538.06 233.1 527.62 213.39 C 522.62 203.97 517.26 194.58 514.75 184.23 C 512.24 173.88 512.96 162.16 519.38 153.65 C 524.84 146.41 533.5 142.5 541.51 138.25 C 564.12 126.25 584.79 108.61 594.73 85.02 C 589.11 88.08 590.57 97.21 595.53 101.24 C 600.49 105.27 607.25 106.05 613.35 107.97 C 635.59 114.97 648.93 137.15 659.63 157.87 C 661.38 161.25 663.16 164.82 663.14 168.63 C 663.12 172.44 661.38 175.82 659.56 179.06 C 654.28 188.46 647.82 197.49 645.42 208 C 642.67 220 645.57 232.62 649.34 244.39 C 653.34 256.91 658.65 269.53 668.25 278.51 C 677.85 287.49 692.74 291.95 704.55 286.15 C 692.76 265.88 680.55 243.23 685.15 220.25 C 687.37 209.25 693.34 199.25 695.88 188.31 C 700.72 167.44 692.66 145.97 684.75 126.05 L 661.11 66.6 C 657.5 57.51 653.39 47.81 645.11 42.66 C 639.51 39.19 632.73 38.29 626.17 37.66 C 605.05 35.78 583.17 36.4 563.51 44.26 C 527.69 58.57 505.23 93.85 487.41 128.07 C 482.07 138.32 476.8 149.21 477.02 160.77 C 477.14 167.11 478.91 173.28 480.35 179.46 C 486.21 204.62 486.53 230.69 486.83 256.52 C 487.06 276.34 486.03 295.02 477.36 313.07 C 489.24 315.43 506.47 321.8 518.23 317.14 C 533.56 311.08 543 292.41 544.93 276.98 Z " fill="rgb(69,75,105)"/><g style="opacity:0.1;"><g opacity="0.1"><path d=" M 486.78 256.1 Q 486.84 251.87 486.78 247.56 C 486.48 221.73 486.16 195.66 480.3 170.5 C 478.991 165.604 477.969 160.635 477.24 155.62 C 477.034 157.342 476.944 159.076 476.97 160.81 C 477.09 167.15 478.86 173.32 480.3 179.5 C 486.13 204.51 486.49 230.42 486.78 256.1 Z " fill="rgb(0,0,0)"/></g><g opacity="0.1"><path d=" M 695.88 188.31 C 697.193 182.467 697.631 176.462 697.18 170.49 C 696.984 173.46 696.549 176.41 695.88 179.31 C 693.34 190.31 687.37 200.22 685.15 211.25 C 684.193 216.115 683.924 221.09 684.35 226.03 C 684.509 224.09 684.776 222.16 685.15 220.25 C 687.37 209.22 693.34 199.27 695.88 188.31 Z " fill="rgb(0,0,0)"/></g><g opacity="0.1"><path d=" M 662.36 164.04 C 662.848 162.62 663.111 161.132 663.14 159.63 C 663.14 155.82 661.38 152.25 659.63 148.87 C 648.93 128.15 635.63 105.99 613.35 98.97 C 607.25 97.05 600.5 96.27 595.53 92.24 C 592.946 90.015 591.367 86.843 591.15 83.44 C 580.31 103.34 561.69 118.56 541.51 129.25 C 533.51 133.5 524.84 137.41 519.38 144.65 C 514.25 151.45 512.76 160.3 513.65 168.86 C 514.154 163.366 516.134 158.111 519.38 153.65 C 524.84 146.41 533.5 142.5 541.51 138.25 C 561.69 127.56 580.31 112.34 591.15 92.44 C 591.367 95.843 592.946 99.015 595.53 101.24 C 600.53 105.24 607.25 106.05 613.35 107.97 C 635.59 114.97 648.93 137.15 659.63 157.87 C 660.715 159.845 661.628 161.909 662.36 164.04 Z " fill="rgb(0,0,0)"/></g><g opacity="0.1"><path d=" M 668.25 269.51 C 658.65 260.51 653.36 247.91 649.34 235.39 C 646.928 228.357 645.318 221.074 644.54 213.68 C 643.61 223.95 646.16 234.46 649.34 244.39 C 653.34 256.91 658.65 269.53 668.25 278.51 C 677.85 287.49 692.74 291.95 704.55 286.15 C 703.13 283.72 701.72 281.25 700.32 278.76 C 689.35 281.85 676.75 277.45 668.25 269.51 Z " fill="rgb(0,0,0)"/></g><g opacity="0.1"><path d=" M 544.93 267.98 C 543 283.41 533.56 302.08 518.19 308.18 C 507.52 312.41 492.33 307.55 480.74 304.86 C 479.743 307.667 478.601 310.421 477.32 313.11 C 489.2 315.47 506.43 321.84 518.19 317.18 C 533.56 311.08 543 292.41 544.93 276.98 C 545.328 273.12 545.401 269.233 545.15 265.36 C 545.09 266.23 545 267.11 544.93 267.98 Z " fill="rgb(0,0,0)"/></g></g><path d=" M 666.1 515.92 C 650.65 513.47 634.97 508.74 619.65 511.92 C 610.77 513.76 602.65 518.18 595.27 523.52 C 599.33 526.77 604.07 529.67 606.65 534.19 C 608.251 537.317 609.454 540.633 610.23 544.06 C 611.85 550.06 613.48 556.18 613.73 562.42 C 613.98 568.66 612.73 575.16 609.01 580.19 C 628.49 582.11 647.37 577.31 666.37 572.62 C 668.543 572.239 670.611 571.404 672.44 570.17 C 675.44 567.81 676.32 563.61 676.34 559.78 C 676.34 552.94 674.42 546.27 672.47 539.71 C 670.15 531.84 668.43 523.74 666.1 515.92 Z " fill="rgb(255,255,255)"/><path d=" M 770.42 347.25 C 778.09 348.25 784.04 354.44 788.42 360.8 C 800.71 378.5 806.01 399.96 811.91 420.69 Q 822.91 459.36 837.78 496.81 C 839.914 502.576 842.509 508.161 845.54 513.51 C 848.01 517.64 851.01 521.61 852.1 526.3 C 854.74 537.64 845.39 548.3 835.64 554.62 C 830.443 558.123 824.768 560.858 818.79 562.74 C 812.97 564.48 806.9 565.14 800.87 565.8 L 745.36 571.8 C 719.81 574.58 694.03 577.36 668.47 574.68 C 666.86 569.08 670.02 565.12 669.79 559.29 C 669.63 555.12 667.79 551.24 666.15 547.4 C 663.126 540.561 661.128 533.313 660.22 525.89 C 659.93 523.16 659.83 520.36 658.79 517.82 C 657.75 515.28 655.52 513 652.79 512.82 C 667.79 511.33 679.18 508.5 694.18 507 C 699.75 506.44 705.54 505.81 710.29 502.85 C 716.18 499.18 719.48 492.56 722.1 486.14 C 728.59 470.24 732.77 452.72 729.36 435.88 C 726.56 422.07 718.75 409.21 718.79 395.12 C 718.79 386.73 721.65 378.6 725.03 370.92 C 728.61 362.8 733.28 354.5 741.14 350.38 C 749 346.26 761.55 346.05 770.42 347.25 Z " fill="rgb(108,99,255)"/><g opacity="0.08"><path d=" M 770.42 347.25 C 778.09 348.25 784.04 354.44 788.42 360.8 C 800.71 378.5 806.01 399.96 811.91 420.69 Q 822.91 459.36 837.78 496.81 C 839.914 502.576 842.509 508.161 845.54 513.51 C 848.01 517.64 851.01 521.61 852.1 526.3 C 854.74 537.64 845.39 548.3 835.64 554.62 C 830.443 558.123 824.768 560.858 818.79 562.74 C 812.97 564.48 806.9 565.14 800.87 565.8 L 745.36 571.8 C 719.81 574.58 694.03 577.36 668.47 574.68 C 666.86 569.08 670.02 565.12 669.79 559.29 C 669.63 555.12 667.79 551.24 666.15 547.4 C 663.126 540.561 661.128 533.313 660.22 525.89 C 659.93 523.16 659.83 520.36 658.79 517.82 C 657.75 515.28 655.52 513 652.79 512.82 C 667.79 511.33 679.18 508.5 694.18 507 C 699.75 506.44 705.54 505.81 710.29 502.85 C 716.18 499.18 719.48 492.56 722.1 486.14 C 728.59 470.24 732.77 452.72 729.36 435.88 C 726.56 422.07 718.75 409.21 718.79 395.12 C 718.79 386.73 721.65 378.6 725.03 370.92 C 728.61 362.8 733.28 354.5 741.14 350.38 C 749 346.26 761.55 346.05 770.42 347.25 Z " fill="rgb(0,0,0)"/></g><path d=" M 422.81 334.26 C 426.44 325.64 430.13 316.74 430.23 307.39 C 430.34 297.28 426.23 287.68 423.09 278.08 C 419.207 266.334 416.622 254.199 415.38 241.89 C 415.122 240.711 415.3 239.478 415.88 238.42 C 416.71 237.25 418.31 237.01 419.72 236.7 C 426.64 235.12 431.87 229.53 436.19 223.9 C 442.892 215.205 448.551 205.754 453.05 195.74 C 456.36 188.37 460.84 179.38 468.92 179.31 C 465.667 194.589 461.635 209.692 456.84 224.56 C 465.29 222.4 473.32 219.26 481.77 217.1 C 483.424 216.578 485.157 216.347 486.89 216.42 C 491.95 216.95 495.05 223.8 492.11 227.95 C 496.24 232.79 503.11 234.09 508.51 237.41 C 513.91 240.73 517.79 248.95 512.99 253.12 C 512.05 253.93 510.86 254.5 510.18 255.54 C 507.86 259.12 513.54 263.23 513.07 267.47 C 512.69 270.94 508.24 272.56 504.87 271.64 C 501.5 270.72 498.87 268.2 495.87 266.35 C 492.87 264.5 488.95 263.35 486.04 265.27 C 485.26 274.68 484.42 284.27 480.35 292.84 C 478.86 295.97 476.95 298.9 475.75 302.15 C 474.602 305.694 473.89 309.364 473.63 313.08 L 470 346.27 C 452.68 349.74 437.15 344.55 422.81 334.26 Z " fill="rgb(239,183,185)"/><path d=" M 418.58 364.01 L 415.39 342.42 C 415.085 340.662 414.915 338.884 414.88 337.1 C 414.88 332.1 417.08 327.33 419.21 322.78 C 436.86 331.02 455.94 333.95 475.41 333.96 C 477.98 333.96 480.91 333.72 482.51 331.71 C 485.82 335.52 485.92 341.65 484.51 346.49 C 483.1 351.33 480.39 355.69 478.59 360.41 C 477.68 362.8 476.94 365.41 475.2 367.25 C 472.5 370.16 468.12 370.66 464.14 370.64 C 459.953 370.614 455.777 370.215 451.66 369.45 C 441 367.47 429.24 362.1 418.58 364.01 Z " fill="rgb(255,255,255)"/><path d=" M 484.41 363.13 Q 463.86 360.79 443.58 356.53 C 436.95 355.14 430.26 353.59 423.5 353.86 C 419.1 354.04 414.37 354.92 410.5 352.74 C 414.27 365.57 414.5 379.09 409.99 391.68 C 407.32 399.18 403.25 406.17 401.29 413.89 C 397.21 430.04 402.81 447.65 397.71 463.51 C 397.171 465.582 396.11 467.483 394.63 469.03 C 393.07 470.46 390.94 471.2 389.5 472.75 C 387.38 475.03 387.25 478.46 387.24 481.57 L 387.15 509.12 C 387.09 526.66 387.32 545.26 396.58 560.12 C 407.14 577.12 429.37 585.93 448.72 580.76 C 453.865 579.444 458.685 577.086 462.88 573.83 C 469.6 568.49 473.88 560.77 478.07 553.25 C 483.07 544.25 488.07 535.05 489.68 524.92 C 490.82 517.75 490.18 510.43 489.36 503.22 C 484.84 463.22 475.03 423.56 477.14 383.41 C 477.456 376.07 479.991 368.999 484.41 363.13 L 484.41 363.13 Z " fill="rgb(108,99,255)"/><path d=" M 541.67 529.13 C 534.72 529.53 527.72 529.93 520.8 529.13 C 515.8 528.53 510.92 527.3 505.96 526.46 C 478.548 522.033 450.57 529.806 429.37 547.74 C 425.53 551.02 421.65 556.05 423.77 560.64 C 426.05 565.58 433.02 565.44 438.39 564.52 C 432.594 567.288 427.474 571.292 423.39 576.25 C 421.89 578.08 420.47 580.25 420.76 582.62 C 421.37 587.57 428.09 588.47 433.06 588.04 C 431.44 589.78 432.53 592.86 434.59 594.04 C 436.65 595.22 439.21 594.98 441.54 594.55 C 446.691 593.607 451.668 591.884 456.3 589.44 C 455.36 591.89 456.99 594.76 459.3 595.98 C 461.61 597.2 464.42 597.11 467.01 596.69 C 479.23 594.69 489.43 586.19 501.35 582.85 C 520.41 577.52 540.35 586.02 560.16 586.62 C 566.36 586.81 572.72 586.18 578.37 583.62 C 585.3 580.47 590.89 574.56 598.21 572.46 C 606.34 570.14 615.67 572.81 623.11 568.8 C 628.52 565.89 623.64 543.46 622.26 539.14 C 619.73 531.24 617.19 526 608.76 525.2 C 587.43 523.11 563.16 527.89 541.67 529.13 Z " fill="rgb(239,183,185)"/><path d=" M 594.88 523.01 C 594.88 523.01 627.17 550.34 608.54 580.16 L 644.54 567.73 L 644.54 541.64 C 644.54 540.4 630.87 521.77 630.87 521.77 L 614.72 519.28 L 594.88 523.01 Z " fill="rgb(255,255,255)"/><path d=" M 256.79 521.32 L 268.9 521.32 C 282.707 521.32 293.9 532.513 293.9 546.32 L 293.9 583.43 L 231.79 583.43 L 231.79 546.32 C 231.79 539.69 234.424 533.331 239.112 528.642 C 243.801 523.954 250.16 521.32 256.79 521.32 L 256.79 521.32 Z " fill="rgb(63,61,86)"/><g opacity="0.1"><path d=" M 256.79 521.32 L 268.9 521.32 C 282.707 521.32 293.9 532.513 293.9 546.32 L 293.9 583.43 L 231.79 583.43 L 231.79 546.32 C 231.79 539.69 234.424 533.331 239.112 528.642 C 243.801 523.954 250.16 521.32 256.79 521.32 L 256.79 521.32 Z " fill="rgb(0,0,0)"/></g><circle vector-effect="non-scaling-stroke" cx="260.36" cy="530.01" r="4.970000000000013" fill="rgb(63,61,86)"/><circle vector-effect="non-scaling-stroke" cx="260.36" cy="523.8" r="4.970000000000013" fill="rgb(63,61,86)"/><circle vector-effect="non-scaling-stroke" cx="260.36" cy="517.59" r="4.970000000000013" fill="rgb(63,61,86)"/><circle vector-effect="non-scaling-stroke" cx="260.36" cy="511.38" r="4.970000000000013" fill="rgb(63,61,86)"/><circle vector-effect="non-scaling-stroke" cx="260.36" cy="505.17" r="4.970000000000013" fill="rgb(63,61,86)"/><circle vector-effect="non-scaling-stroke" cx="260.36" cy="498.96" r="4.970000000000013" fill="rgb(63,61,86)"/><circle vector-effect="non-scaling-stroke" cx="260.36" cy="492.74" r="4.970000000000013" fill="rgb(63,61,86)"/><circle vector-effect="non-scaling-stroke" cx="267.82" cy="495.23" r="4.970000000000027" fill="rgb(63,61,86)"/><circle vector-effect="non-scaling-stroke" cx="272.79" cy="492.74" r="4.970000000000027" fill="rgb(63,61,86)"/><circle vector-effect="non-scaling-stroke" cx="277.76" cy="490.26" r="4.970000000000027" fill="rgb(63,61,86)"/><circle vector-effect="non-scaling-stroke" cx="260.36" cy="486.53" r="4.970000000000013" fill="rgb(63,61,86)"/><circle vector-effect="non-scaling-stroke" cx="260.36" cy="480.32" r="4.970000000000013" fill="rgb(63,61,86)"/><circle vector-effect="non-scaling-stroke" cx="260.36" cy="474.11" r="4.970000000000013" fill="rgb(63,61,86)"/><circle vector-effect="non-scaling-stroke" cx="260.36" cy="467.9" r="4.970000000000013" fill="rgb(63,61,86)"/><path d=" M 281 451.87 Q 279.14 452.14 277.28 452.26 C 278.433 451.254 279.503 450.157 280.48 448.98 C 279.791 446.892 278.779 444.924 277.48 443.15 C 276.248 443.842 274.886 444.271 273.48 444.41 C 272.25 444.59 271.01 444.72 269.77 444.81 C 271.4 443.48 272.92 441.48 274.52 439.81 C 267.132 433.114 256.065 432.503 247.985 438.347 C 239.905 444.19 237.019 454.892 241.065 464.005 C 245.111 473.119 254.984 478.156 264.738 476.083 C 274.491 474.009 281.461 465.391 281.45 455.42 C 281.45 454.203 281.343 452.988 281.13 451.79 L 281 451.87 Z " fill="rgb(108,99,255)"/><path d=" M 297.57 476.56 C 296.303 477.34 294.872 477.815 293.39 477.95 C 292.16 478.13 290.92 478.27 289.68 478.35 C 290.998 477.168 292.228 475.891 293.36 474.53 C 287.151 472.911 280.729 476.281 278.533 482.31 C 276.337 488.34 279.087 495.051 284.883 497.804 C 290.68 500.558 297.619 498.451 300.906 492.939 C 304.193 487.428 302.748 480.321 297.57 476.53 L 297.57 476.56 Z " fill="rgb(108,99,255)"/><circle vector-effect="non-scaling-stroke" cx="252.91" cy="495.23" r="4.969999999999999" fill="rgb(63,61,86)"/><circle vector-effect="non-scaling-stroke" cx="247.94" cy="492.74" r="4.969999999999999" fill="rgb(63,61,86)"/><circle vector-effect="non-scaling-stroke" cx="242.97" cy="490.26" r="4.969999999999999" fill="rgb(63,61,86)"/><path d=" M 223.16 476.56 C 224.427 477.34 225.858 477.815 227.34 477.95 C 228.57 478.13 229.81 478.27 231.05 478.35 C 229.73 477.17 228.499 475.894 227.37 474.53 C 233.579 472.911 240.001 476.281 242.197 482.31 C 244.393 488.34 241.643 495.051 235.847 497.804 C 230.05 500.558 223.111 498.451 219.824 492.939 C 216.537 487.428 217.982 480.321 223.16 476.53 L 223.16 476.56 Z " fill="rgb(108,99,255)"/><path d=" M 256.79 525 L 268.9 525 C 282.707 525 293.9 536.193 293.9 550 L 293.9 582.87 C 293.9 583.995 293.453 585.073 292.658 585.868 C 291.863 586.663 290.785 587.11 289.66 587.11 L 236 587.11 C 234.875 587.11 233.797 586.663 233.002 585.868 C 232.207 585.073 231.76 583.995 231.76 582.87 L 231.76 550 C 231.76 543.364 234.398 537.001 239.093 532.312 C 243.788 527.622 250.154 524.992 256.79 525 L 256.79 525 Z " fill="rgb(63,61,86)"/><g style="opacity:0.1;"><g opacity="0.1"><path d=" M 281.34 453.23 C 280.837 453.768 280.303 454.275 279.74 454.75 C 280.31 454.75 280.87 454.66 281.44 454.6 C 281.42 454.14 281.39 453.68 281.34 453.23 Z " fill="rgb(0,0,0)"/></g><g opacity="0.1"><path d=" M 272.28 447.29 C 273.53 447.21 274.76 447.08 276 446.9 C 277.112 446.759 278.2 446.463 279.23 446.02 C 278.724 445.02 278.142 444.061 277.49 443.15 C 276.868 443.529 276.194 443.815 275.49 444 C 274.509 445.18 273.436 446.281 272.28 447.29 Z " fill="rgb(0,0,0)"/></g><g opacity="0.1"><path d=" M 241.73 457.96 C 241.715 450.237 245.924 443.124 252.701 439.42 C 259.479 435.717 267.738 436.016 274.23 440.2 L 274.55 439.86 C 268.891 434.825 260.967 433.209 253.788 435.628 C 246.61 438.046 241.278 444.127 239.819 451.56 C 238.36 458.993 240.998 466.638 246.73 471.59 C 243.496 467.786 241.723 462.953 241.73 457.96 L 241.73 457.96 Z " fill="rgb(0,0,0)"/></g></g><g style="opacity:0.1;"><g opacity="0.1"><path d=" M 289.68 480.83 C 290.92 480.75 292.16 480.62 293.39 480.44 C 294.873 480.302 296.303 479.823 297.57 479.04 C 300.41 481.131 302.227 484.33 302.57 487.84 C 302.619 487.405 302.642 486.968 302.64 486.53 C 302.659 482.591 300.803 478.878 297.64 476.53 C 296.373 477.31 294.942 477.785 293.46 477.92 L 292.46 478.05 C 291.607 479.047 290.677 479.977 289.68 480.83 Z " fill="rgb(0,0,0)"/></g><g opacity="0.1"><path d=" M 290.18 476.59 C 290.595 476.595 291.009 476.625 291.42 476.68 C 292.07 475.99 292.71 475.25 293.36 474.53 C 289.634 473.535 285.657 474.33 282.6 476.681 C 279.543 479.033 277.754 482.673 277.76 486.53 C 277.76 486.95 277.76 487.36 277.82 487.77 C 278.457 481.422 283.8 476.589 290.18 476.59 Z " fill="rgb(0,0,0)"/></g></g><g style="opacity:0.1;"><g opacity="0.1"><path d=" M 231.05 480.83 C 229.81 480.75 228.57 480.62 227.34 480.44 C 225.857 480.302 224.427 479.823 223.16 479.04 C 220.32 481.131 218.503 484.33 218.16 487.84 C 218.111 487.405 218.088 486.968 218.09 486.53 C 218.071 482.591 219.927 478.878 223.09 476.53 C 224.357 477.31 225.788 477.785 227.27 477.92 L 228.27 478.05 C 229.118 479.052 230.048 479.982 231.05 480.83 L 231.05 480.83 Z " fill="rgb(0,0,0)"/></g><g opacity="0.1"><path d=" M 230.55 476.59 C 230.132 476.595 229.715 476.625 229.3 476.68 C 228.66 475.99 228.02 475.25 227.37 474.53 C 231.096 473.535 235.073 474.33 238.13 476.681 C 241.187 479.033 242.976 482.673 242.97 486.53 C 242.97 486.95 242.97 487.36 242.91 487.77 C 242.273 481.422 236.93 476.589 230.55 476.59 Z " fill="rgb(0,0,0)"/></g></g><path d=" M 196.85 599.13 L 99.15 599.13 C 96.858 599.13 95 597.272 95 594.98 L 95 548.74 C 95 547.317 95.729 545.992 96.932 545.231 C 98.135 544.471 99.644 544.379 100.93 544.99 C 129 558.31 159.24 562.88 194.93 545.2 C 196.216 544.566 197.738 544.639 198.958 545.393 C 200.178 546.147 200.923 547.476 200.93 548.91 L 200.93 594.91 C 200.949 596.011 200.529 597.074 199.764 597.865 C 198.999 598.657 197.951 599.112 196.85 599.13 Z " fill="rgb(108,99,255)"/><g opacity="0.1"><path d=" M 196.85 599.13 L 99.15 599.13 C 96.858 599.13 95 597.272 95 594.98 L 95 548.74 C 95 547.317 95.729 545.992 96.932 545.231 C 98.135 544.471 99.644 544.379 100.93 544.99 C 129 558.31 159.24 562.88 194.93 545.2 C 196.216 544.566 197.738 544.639 198.958 545.393 C 200.178 546.147 200.923 547.476 200.93 548.91 L 200.93 594.91 C 200.949 596.011 200.529 597.074 199.764 597.865 C 198.999 598.657 197.951 599.112 196.85 599.13 Z " fill="rgb(0,0,0)"/></g><ellipse vector-effect="non-scaling-stroke" cx="147.32" cy="556.41" rx="5.780000000000001" ry="7.57000000000005" fill="rgb(63,61,86)"/><ellipse vector-effect="non-scaling-stroke" cx="147.32" cy="547.16" rx="5.780000000000001" ry="7.57000000000005" fill="rgb(63,61,86)"/><ellipse vector-effect="non-scaling-stroke" cx="147.32" cy="537.9" rx="5.780000000000001" ry="7.57000000000005" fill="rgb(63,61,86)"/><ellipse vector-effect="non-scaling-stroke" cx="147.32" cy="528.65" rx="5.780000000000001" ry="7.57000000000005" fill="rgb(63,61,86)"/><ellipse vector-effect="non-scaling-stroke" cx="147.32" cy="519.39" rx="5.780000000000001" ry="7.570000000000022" fill="rgb(63,61,86)"/><ellipse vector-effect="non-scaling-stroke" cx="147.32" cy="510.13" rx="5.780000000000001" ry="7.570000000000022" fill="rgb(63,61,86)"/><ellipse vector-effect="non-scaling-stroke" cx="147.32" cy="500.88" rx="5.780000000000001" ry="7.569999999999993" fill="rgb(63,61,86)"/><path d=" M 169 437.54 C 169.785 436.531 170.503 435.472 171.15 434.37 L 155.95 431.87 L 172.39 431.99 C 175.596 425.044 175.788 417.082 172.92 409.99 L 150.87 421.43 L 171.21 406.43 C 166.019 397.452 156.249 392.125 145.891 392.623 C 135.533 393.121 126.319 399.361 122.013 408.795 C 117.707 418.229 119.03 429.278 125.44 437.43 C 124.204 438.992 123.145 440.686 122.28 442.48 L 142 452.84 L 121 445.74 C 118.01 454.606 119.691 464.382 125.47 471.74 C 116.535 483.1 117.831 499.419 128.448 509.226 C 139.065 519.033 155.435 519.033 166.052 509.226 C 176.669 499.419 177.965 483.1 169.03 471.74 C 176.935 461.688 176.935 447.532 169.03 437.48 L 169 437.54 Z " fill="rgb(108,99,255)"/><g opacity="0.1"><path d=" M 119.49 454.67 C 119.481 460.885 121.57 466.921 125.42 471.8 C 116.485 483.16 117.781 499.479 128.398 509.286 C 139.015 519.093 155.385 519.093 166.002 509.286 C 176.619 499.479 177.915 483.16 168.98 471.8 C 172.69 467.09 119.49 451.56 119.49 454.67 Z " fill="rgb(64,62,168)"/></g><path d=" M 196.85 601.58 L 99.15 601.58 C 96.858 601.58 95 599.722 95 597.43 L 95 548.74 C 95 547.317 95.729 545.992 96.932 545.231 C 98.135 544.471 99.644 544.379 100.93 544.99 C 129 558.31 151.26 573.84 194.93 545.2 C 197.52 543.5 200.93 545.82 200.93 548.91 L 200.93 597.41 C 200.941 599.683 199.122 601.542 196.85 601.58 Z " fill="rgb(108,99,255)"/><path d=" M 921.83 587.81 L 777.69 606.88 L 770.48 607.83 L 700.01 570.19 L 700.01 561.38 L 920.23 537.36 L 921.83 587.81 L 921.83 587.81 Z " fill="rgb(156,156,161)"/><path d=" M 740.85 574.19 L 897 555.78 L 895.4 584.61 L 773.77 593.53 L 740.85 574.19 L 740.85 574.19 Z " fill="rgb(147,148,152)"/><g opacity="0.4"><path d=" M 777.69 597.41 L 777.69 606.87 L 770.48 607.87 L 700 570.19 L 700 561.38 L 767.27 597.38 C 767.27 597.38 776.09 598.21 777.69 597.41 Z " fill="rgb(0,0,0)"/></g><path d=" M 805.36 447.26 L 773 597.31 C 772.338 600.359 773.202 603.539 775.315 605.833 C 777.429 608.128 780.527 609.25 783.62 608.84 L 988.35 581.74 C 991.989 581.26 995.034 578.744 996.19 575.26 L 1040.36 442.06 C 1041.351 439.06 1040.802 435.764 1038.892 433.247 C 1036.982 430.73 1033.956 429.314 1030.8 429.46 L 814.28 439.74 C 809.95 439.945 806.294 443.027 805.36 447.26 Z " fill="rgb(76,71,119)"/><path d=" M 911.387 510.684 C 908.318 510.362 906.235 506.223 906.737 501.448 C 907.238 496.672 910.137 493.057 913.205 493.38 C 916.274 493.702 918.357 497.841 917.855 502.616 C 917.353 507.392 914.455 511.007 911.387 510.684 Z " fill="rgb(255,255,255)"/></g></svg>