<svg id="Capa_1" enable-background="new 0 0 511.975 511.975" height="512" viewBox="0 0 511.975 511.975" width="512" xmlns="http://www.w3.org/2000/svg"><g><g><g><path d="m199.606 8.534c73.943-2.691 147.875-.097 221.807 7.77 20.566 2.183 36.669 18.653 38.312 39.263 10.656 133.62 10.656 267.241 0 400.872-1.643 20.609-17.745 37.08-38.312 39.263-110.277 11.737-220.564 11.737-330.852 0-20.555-2.183-36.669-18.653-38.312-39.263-7.954-99.805-9.975-199.598-6.041-299.392" fill="#f9f6f6"/><path d="m46.208 157.047c36.345-1.308 72.689-3.901 109.045-7.77 20.555-2.183 36.669-18.653 38.312-39.263 2.702-33.827 4.712-67.653 6.041-101.48-36.345 1.307-152.069 114.686-153.398 148.513z" fill="#efe7e4"/></g><g><g><path d="m383.031 425.671c-4.41 4.41-10.179 6.61-15.949 6.61-5.78 0-11.559-2.2-15.959-6.61 8.81 8.81 8.81 23.089 0 31.908-4.4 4.4-10.179 6.61-15.959 6.61-5.77 0-11.539-2.21-15.949-6.61l-14.669-14.669c8.81 8.81 8.81 23.099 0 31.908-4.4 4.4-10.179 6.609-15.949 6.609s-11.539-2.21-15.949-6.6v-.01h-.01c-51.057 38.258-161.401-91.145-191.18-127.963l-11.229-51.167 67.706-79.196c48.497-11.4 94.295-4.02 94.295-4.02l83.366 52.437 67.436 128.853c8.808 8.811 8.808 23.1-.001 31.91z" fill="#ffece4"/><path d="m272.637 474.818c-51.057 38.258-161.401-91.145-191.18-127.963l12.069-27.868c43.358 62.876 106.104 129.763 143.082 119.793z" fill="#ffddce"/><path d="m429.158 337.995c-3.25 9.919-4.99 19.499-.91 27.849v.01c-18.349 26.719-38.778 37.808-39.348 38.118-.98-3.74-2.94-7.28-5.87-10.209l-116.843-116.844c-14.449 4.82-29.828 17.729-41.018 28.708-5.49 5.38-12.679 8.13-19.919 8.13-5.92 0-11.869-1.84-16.929-5.58-.38-.28-.76-.57-1.12-.87-.01-.01-.02-.02-.03-.03-10.219-8.38-13.409-22.809-7.41-34.718 24.249-48.168 64.427-68.436 76.846-73.746 2.41-1.03 5.01-1.53 7.63-1.43 12.039.43 23.949 2.85 35.268 6.42 38.268 12.039 69.866 37.218 77.226 43.378 6.57 17.229 54.137 25.769 61.357 42.718 6.049 14.188-3.53 31.597-8.93 48.096z" fill="#e2a770"/><path d="m428.248 365.844v.01c-18.349 26.719-38.778 37.808-39.348 38.118-.98-3.74-2.94-7.28-5.87-10.209l-70.876-70.876c24.939 24.939 78.896 35.598 103.845 17.239 3.34-2.45 7.85-3.01 13.159-2.13-3.25 9.919-4.99 19.498-.91 27.848z" fill="#d5985c"/><path d="m187.171 307.277c-10.219-8.38-13.409-22.809-7.41-34.718 24.249-48.168 64.427-68.436 76.846-73.746 2.41-1.03 5.01-1.53 7.63-1.43 12.039.43 23.949 2.85 35.268 6.42-53.137.03-127.933 88.145-112.334 103.474z" fill="#d5985c"/><g fill="#ffddce"><path d="m386.922 420.458c-1.01 1.87-2.31 3.63-3.89 5.21-4.41 4.41-10.18 6.61-15.949 6.61-5.78 0-11.559-2.2-15.959-6.61l-74.534-74.535c3.263-5.864 11.231-6.977 15.976-2.232l67.658 67.667c4.4 4.41 10.179 6.61 15.959 6.61 3.7-.001 7.4-.9 10.739-2.72z"/><path d="m308.807 468.925c-1.07 2.13-2.48 4.12-4.25 5.89-4.4 4.4-10.179 6.609-15.959 6.609-5.77 0-11.539-2.21-15.949-6.609l-60.587-60.597c7.238-4.61 16.707-3.572 22.775 2.496l47.961 47.961c4.4 4.4 10.179 6.61 15.949 6.61 3.45 0 6.9-.79 10.06-2.36z"/><path d="m354.844 452.646c-.98 1.77-2.23 3.43-3.73 4.93-4.41 4.4-10.179 6.61-15.949 6.61-5.78 0-11.559-2.21-15.959-6.61l-68.157-68.171c5.275-4.49 13.114-4.175 18.012.723l44.126 44.129 14.659 14.669c4.41 4.41 10.179 6.61 15.959 6.61 3.81 0 7.619-.96 11.039-2.89z"/></g><ellipse cx="438.092" cy="289.898" fill="#b3e59f" rx="54.612" ry="110.097" transform="matrix(.918 -.398 .398 .918 -79.14 198.05)"/><path d="m504.474 345.98c-21.35 15.483-44.968 25.714-70.866 30.706-6.048-12.115-11.913-24.301-17.606-36.559 26.974-5.243 51.626-15.828 73.956-31.767 5.014 12.47 9.856 25.009 14.516 37.62z" fill="#78c2a4"/><ellipse cx="73.883" cy="266.325" fill="#da4a54" rx="110.097" ry="54.612" transform="matrix(.398 -.918 .918 .398 -199.864 228.244)"/><path d="m7.501 322.407c21.35 15.483 44.968 25.714 70.866 30.706 6.048-12.115 11.913-24.301 17.606-36.559-26.974-5.243-51.626-15.828-73.955-31.767-5.015 12.47-9.858 25.009-14.517 37.62z" fill="#d82e3d"/></g></g><g fill="#f9efaf"><path d="m257.392 132.953h-2.809c-9.909 0-18.125-7.672-18.804-17.558l-2.086-30.407c-.747-10.891 7.886-20.138 18.803-20.138h6.981c10.917 0 19.551 9.246 18.804 20.138l-2.086 30.407c-.677 9.886-8.894 17.558-18.803 17.558z"/><path d="m167.012 156.418-2.433 1.405c-8.581 4.954-19.533 2.418-25.063-5.804l-17.01-25.291c-6.093-9.059-3.239-21.383 6.216-26.841l6.046-3.491c9.454-5.459 21.554-1.768 26.353 8.038l13.397 27.376c4.355 8.901 1.075 19.654-7.506 24.608z"/><path d="m347.396 157.823-2.433-1.405c-8.581-4.954-11.861-15.707-7.505-24.607l13.397-27.376c4.799-9.806 16.899-13.496 26.353-8.038l6.046 3.491c9.454 5.459 12.308 17.783 6.216 26.841l-17.01 25.291c-5.531 8.221-16.483 10.757-25.064 5.803z"/></g></g><g><path d="m511.508 343.378c-11.057-29.888-23.203-59.602-36.296-88.839-.042-66.27-2.734-133.403-8.009-199.566-1.923-24.159-20.848-43.56-45.001-46.131-74.005-7.868-148.987-10.494-222.864-7.807-.018.001-.034.007-.052.008-11.749.442-29.285 9.526-52.127 27.005-3.29 2.517-3.916 7.225-1.398 10.514 2.516 3.29 7.224 3.915 10.514 1.398 17.334-13.264 28.53-19.246 35.433-21.899-1.32 30.502-3.21 61.185-5.627 91.357-.486 6.108-2.556 11.909-5.904 16.893l-12.32-25.175c-3.197-6.533-9.021-11.498-15.979-13.62s-14.561-1.253-20.861 2.384l-6.045 3.491c-6.3 3.637-10.854 9.787-12.495 16.874-1.641 7.086-.254 14.613 3.806 20.648l9.218 13.705c-23.162 2.036-46.459 3.561-69.529 4.538 8.654-19.976 40.869-57.953 77.603-90.424 3.104-2.743 3.396-7.483.652-10.587-2.743-3.103-7.483-3.396-10.586-.652-33.577 29.68-83.902 83.268-84.927 109.254v.019c-.964 24.423-1.574 49.28-1.824 73.914-13.142 29.329-25.331 59.139-36.423 89.124-1.167 3.155-.091 6.701 2.633 8.675 11.138 8.07 22.959 14.802 35.374 20.161 1.318 35.857 3.429 72.291 6.298 108.389 1.923 24.156 20.844 43.557 44.992 46.131 55.152 5.865 110.69 8.798 166.227 8.798s111.07-2.933 166.213-8.798c24.152-2.571 43.078-21.972 45-46.13 2.236-28.091 4.004-56.45 5.294-84.398 12.781-5.428 24.942-12.294 36.378-20.581 2.723-1.972 3.799-5.518 2.632-8.673zm-384.418-229.728c.717-3.097 2.628-5.678 5.382-7.268l6.045-3.491c1.755-1.013 3.689-1.529 5.648-1.529 1.113 0 2.234.167 3.336.502 3.041.927 5.485 3.011 6.882 5.866l13.397 27.376c2.612 5.337.627 11.844-4.519 14.815l-2.433 1.405c-5.145 2.971-11.774 1.436-15.09-3.494l-17.01-25.291c-1.773-2.636-2.355-5.794-1.638-8.891zm-73.634 50.614c27.134-1.093 54.6-2.93 81.822-5.474 5.1 5.86 12.454 9.037 19.941 9.037 4.474 0 8.997-1.135 13.109-3.51l2.433-1.405c6.864-3.963 11.299-10.638 12.687-17.949 10.159-8.646 16.522-20.988 17.585-34.351 2.508-31.31 4.443-63.167 5.776-94.808 70.928-2.257 142.819.406 213.805 7.953 16.98 1.808 30.285 15.436 31.636 32.406 4.372 54.837 6.956 110.344 7.72 165.465-3.506-7.328-7.063-14.623-10.684-21.869-1.503-3.01-4.828-4.649-8.13-4.012-26.855 5.182-51.701 15.946-73.848 31.994-.616.447-1.136.982-1.577 1.567-21.583-15.235-60.295-37.927-101.141-39.42-3.77-.144-7.444.54-10.922 2.029-4.514 1.93-12.996 5.972-23.178 12.728-10.142-1.327-44.776-4.869-83.496 2.288-.527-1.072-1.312-2.028-2.329-2.765-22.146-16.048-46.993-26.812-73.848-31.994-3.304-.637-6.626 1.003-8.13 4.012-3.464 6.932-6.869 13.909-10.228 20.917.259-10.986.597-21.942.997-32.839zm334.884 224.197-16.83-16.83c-2.928-2.929-7.677-2.929-10.606 0s-2.929 7.678 0 10.607l16.835 16.836c2.842 2.835 4.408 6.614 4.408 10.64s-1.565 7.805-4.411 10.644c-5.878 5.871-15.436 5.874-21.307.002l-74.537-74.531c-2.929-2.929-7.678-2.929-10.606 0-2.929 2.929-2.929 7.677 0 10.606l74.535 74.535c5.873 5.873 5.873 15.428 0 21.301s-15.428 5.873-21.301 0l-68.17-68.17c-2.929-2.929-7.678-2.929-10.606 0-2.929 2.929-2.929 7.678 0 10.606l53.505 53.504c5.872 5.873 5.872 15.428-.001 21.3-5.873 5.873-15.428 5.873-21.301 0l-60.595-60.594c-2.929-2.929-7.678-2.929-10.606 0-2.929 2.929-2.929 7.677 0 10.606l53.387 53.387c-23.757 7.459-59.218-16.601-86.187-39.619-35.162-30.013-68.369-68.817-83.628-87.444 19.577-40.016 37.434-81.269 53.205-122.926 26.871-5.767 52.726-5.756 69.274-4.797-13.873 12.072-28.475 28.703-39.73 51.056-2.5 4.964-3.821 10.519-3.821 16.063 0 11.374 5.463 22.2 14.611 28.96 14.298 10.575 33.885 9.219 46.572-3.227 12.514-12.28 24.137-20.932 33.924-25.29l75.4 75.4c1.464 1.465 3.384 2.197 5.303 2.197s3.839-.732 5.303-2.197c2.929-2.929 2.929-7.677 0-10.606l-78.86-78.86c-2.009-2.009-4.981-2.709-7.675-1.812-12.921 4.307-27.691 14.556-43.9 30.461-7.393 7.252-18.811 8.04-27.151 1.872-5.339-3.946-8.527-10.263-8.527-16.898 0-3.259.747-6.393 2.219-9.317 23.199-46.072 61.816-65.393 73.102-70.218 1.424-.609 2.928-.888 4.465-.83 47.733 1.745 94.425 37.102 106.409 46.835 14.709 38.396 31.177 76.419 49.123 113.415-10.264 13.987-20.884 22.987-27.515 27.825-1.076-1.596-2.315-3.102-3.709-4.492zm-314.807-200.392c20.723 4.701 40.078 13.086 57.681 24.99-16.717 44.622-35.86 88.809-56.981 131.522-20.723-4.701-40.078-13.086-57.681-24.99 16.717-44.622 35.86-88.809 56.981-131.522zm378.717 267.773c-1.35 16.969-14.655 30.597-31.635 32.405-109.232 11.619-220.013 11.619-329.264 0-16.976-1.809-30.276-15.438-31.626-32.404-2.684-33.764-4.701-67.826-6.023-101.425 7.563 2.497 15.314 4.527 23.246 6.057.476.092.952.136 1.423.136 1.358 0 2.671-.377 3.813-1.052 16.767 20.196 48.457 56.49 82.025 85.143 34.812 29.714 63.808 44.628 86.631 44.628 7.842 0 14.953-1.769 21.323-5.295 4.973 3.249 10.704 4.876 16.435 4.876 7.698 0 15.396-2.93 21.257-8.791 4.003-4.003 6.637-8.865 7.906-13.997 5.192 3.693 11.299 5.547 17.411 5.547 7.698 0 15.396-2.93 21.257-8.791 6.352-6.352 9.254-14.862 8.721-23.192.643.041 1.286.069 1.93.069 7.696 0 15.395-2.928 21.255-8.781 5.683-5.67 8.813-13.22 8.813-21.26 0-.659-.029-1.313-.07-1.964 6.253-4.134 17.927-12.941 29.869-27.632 1.302 2.525 3.89 4.066 6.658 4.066.471 0 .948-.044 1.423-.136 7.558-1.458 14.95-3.375 22.174-5.711-1.254 25.709-2.898 51.715-4.952 77.504zm-14.508-87.689c-21.121-42.713-40.265-86.9-56.981-131.522 17.603-11.903 36.958-20.289 57.681-24.99 21.121 42.713 40.265 86.9 56.981 131.522-17.603 11.904-36.958 20.289-57.681 24.99z"/><path d="m228.296 115.909c.944 13.763 12.491 24.544 26.286 24.544h2.81c13.795 0 25.342-10.781 26.286-24.545l2.085-30.407c.498-7.257-2.064-14.469-7.028-19.785s-11.983-8.366-19.257-8.366h-6.981c-7.274 0-14.293 3.049-19.257 8.366s-7.526 12.528-7.028 19.785zm15.907-39.955c2.169-2.323 5.115-3.603 8.293-3.603h6.981c3.179 0 6.124 1.28 8.293 3.603 2.17 2.323 3.245 5.35 3.027 8.521l-2.085 30.407c-.407 5.928-5.379 10.571-11.321 10.571h-2.81c-5.942 0-10.915-4.644-11.321-10.571l-2.085-30.407c-.217-3.172.858-6.198 3.028-8.521z"/><path d="m341.213 162.913 2.433 1.405c4.113 2.375 8.634 3.51 13.109 3.51 8.523 0 16.878-4.117 21.927-11.623l17.01-25.291c4.06-6.036 5.447-13.562 3.806-20.648-1.641-7.087-6.195-13.237-12.494-16.874l-6.046-3.491c-6.3-3.637-13.904-4.506-20.861-2.384-6.958 2.122-12.782 7.087-15.979 13.62l-13.397 27.376c-6.064 12.392-1.455 27.502 10.492 34.4zm2.981-27.806 13.396-27.376c1.397-2.855 3.842-4.939 6.883-5.866 3.04-.927 6.231-.563 8.984 1.027l6.046 3.491c2.753 1.59 4.665 4.171 5.381 7.268.717 3.097.135 6.255-1.639 8.893l-17.01 25.291c-3.316 4.93-9.942 6.466-15.09 3.494l-2.433-1.405c-5.145-2.972-7.129-9.48-4.518-14.817z"/></g></g></svg>