<?xml version="1.0" encoding="iso-8859-1"?>
<!-- Generator: Adobe Illustrator 19.0.0, SVG Export Plug-In . SVG Version: 6.00 Build 0)  -->
<svg version="1.1" id="Capa_1" xmlns="http://www.w3.org/2000/svg" xmlns:xlink="http://www.w3.org/1999/xlink" x="0px" y="0px"
	 viewBox="0 0 512 512" style="enable-background:new 0 0 512 512;" xml:space="preserve">
<rect x="194.934" y="324.085" style="fill:#727171;" width="100.16" height="136.276"/>
<path style="fill:#B57049;" d="M313.044,507.821h-139.91c-5.753,0-10.417-4.664-10.417-10.417v-62.747
	c0-5.753,4.664-10.417,10.417-10.417h139.91c5.753,0,10.417,4.664,10.417,10.417v62.747
	C323.461,503.157,318.797,507.821,313.044,507.821z"/>
<path style="opacity:0.2;enable-background:new    ;" d="M313.044,424.24h-2.839v61.607c0,5.753-4.664,10.417-10.417,10.417H162.716
	v1.14c0,5.753,4.664,10.417,10.417,10.417h139.91c5.753,0,10.417-4.664,10.417-10.417v-62.747
	C323.461,428.903,318.797,424.24,313.044,424.24z"/>
<g style="opacity:0.2;">
	<path d="M323.461,434.657c0-5.753-4.664-10.417-10.417-10.417H173.132c-5.753,0-10.417,4.664-10.417,10.417v25.703h160.745V434.657
		z"/>
</g>
<g style="opacity:0.2;">
	<path d="M292.028,507.821v-17.718c0-4.316,3.497-7.813,7.813-7.813s7.813,3.497,7.813,7.813v17.718H292.028z"/>
</g>
<path style="fill:#F23366;" d="M493.835,13.578c-7.163,0-13.339,4.156-16.296,10.18H278.798h-4.023h-2.001
	C269.41,12.438,258.932,4.179,246.52,4.179c-12.412,0-22.889,8.258-26.253,19.578h-2.477h-4.023H34.546
	c-2.923-6.117-9.149-10.352-16.38-10.352C8.133,13.405,0,21.537,0,31.57s8.133,18.165,18.165,18.165
	c7.232,0,13.457-4.237,16.381-10.352h111.086c-52.266,25.378-88.384,78.995-88.384,140.892v46.001
	c-11.319,3.364-19.577,13.841-19.577,26.253c0,15.128,12.263,27.391,27.391,27.391s27.39-12.263,27.39-27.391
	c0-12.412-8.259-22.889-19.578-26.253v-46.001c0-77.688,63.204-140.892,140.893-140.892h4.023h2.477
	c3.364,11.319,13.841,19.578,26.253,19.578s22.889-8.258,26.253-19.578h2.001h4.023c77.688,0,140.892,63.203,140.892,140.892v46.305
	c-10.826,3.656-18.625,13.889-18.625,25.949c0,15.128,12.263,27.391,27.391,27.391c15.127,0,27.391-12.263,27.391-27.391
	c0-12.759-8.723-23.479-20.531-26.524v-45.73c0-61.897-36.118-115.514-88.383-140.892h130.44
	c2.888,6.211,9.164,10.525,16.464,10.525c10.033,0,18.165-8.133,18.165-18.165C512,21.71,503.867,13.578,493.835,13.578z"/>
<path style="fill:#E2E3E4;" d="M194.933,382.881l-51.871-130.257c-1.309-3.289-0.859-7.018,1.195-9.9l92.439-129.691
	c4.154-5.827,12.812-5.827,16.965,0L346.1,242.723c2.054,2.882,2.504,6.612,1.195,9.9l-51.871,130.257H194.933z"/>
<path style="fill:#332E2F;" d="M252.993,222.94V112.206c-4.122-4.711-11.503-4.711-15.626-0.001V222.94
	c-9.237,3.228-15.865,12.014-15.865,22.352c0,13.077,10.601,23.678,23.678,23.678c13.077,0,23.678-10.601,23.678-23.678
	C268.858,234.953,262.229,226.169,252.993,222.94z"/>
<g style="opacity:0.2;">
	<polygon points="317.574,253.388 280.083,347.536 210.275,347.536 172.784,253.388 143.367,253.388 194.933,382.881 
		295.426,382.881 346.992,253.388 	"/>
</g>
<g>
</g>
<g>
</g>
<g>
</g>
<g>
</g>
<g>
</g>
<g>
</g>
<g>
</g>
<g>
</g>
<g>
</g>
<g>
</g>
<g>
</g>
<g>
</g>
<g>
</g>
<g>
</g>
<g>
</g>
</svg>
