<?xml version="1.0" encoding="UTF-8" standalone="no"?><!-- Generator: Gravit.io --><svg xmlns="http://www.w3.org/2000/svg" xmlns:xlink="http://www.w3.org/1999/xlink" style="isolation:isolate" viewBox="0 0 30 25" width="30pt" height="25pt"><defs><clipPath id="_clipPath_9f18aJ3WiOcQuPkJKOEJNU4o7M8rYmQJ"><rect width="30" height="25"/></clipPath></defs><g clip-path="url(#_clipPath_9f18aJ3WiOcQuPkJKOEJNU4o7M8rYmQJ)"><g><g><path d=" M 7.238 1.763 L 22.089 1.763 C 23.706 1.763 25.026 3.084 25.026 4.701 L 25.026 19.981 C 25.026 21.598 23.706 22.918 22.089 22.918 L 7.238 22.918 C 5.62 22.918 4.3 21.598 4.3 19.981 L 4.3 4.668 C 4.3 3.084 5.62 1.763 7.238 1.763 Z " fill="rgb(74,86,110)"/><path d=" M 13.904 15.592 L 9.548 11.235 L 4.3 16.483 L 4.3 17.572 L 4.3 19.948 C 4.3 21.565 5.62 22.885 7.238 22.885 L 22.089 22.885 C 23.706 22.885 25.026 21.565 25.026 19.948 L 25.026 17.572 L 25.026 14.305 L 20.109 9.354 L 13.904 15.592 Z " fill="rgb(0,181,148)"/><circle vector-effect="non-scaling-stroke" cx="13.772132733196427" cy="8.760081062693242" r="1.8481569804370785" fill="rgb(255,204,3)"/><circle vector-effect="non-scaling-stroke" cx="25.026088631929557" cy="19.386983700206542" r="4.75240366398106" fill="rgb(255,255,255)"/></g><g><path d=" M 24.333 17.176 C 24.333 16.78 24.63 16.483 25.026 16.483 C 25.389 16.483 25.719 16.78 25.719 17.176 L 25.719 21.664 C 25.719 22.06 25.422 22.357 25.026 22.357 C 24.63 22.357 24.333 22.06 24.333 21.664 L 24.333 17.176 Z " fill="rgb(0,181,148)"/><path d=" M 24.531 17.638 C 24.267 17.374 24.267 16.945 24.531 16.681 C 24.795 16.417 25.224 16.417 25.488 16.681 L 27.072 18.265 C 27.336 18.529 27.336 18.958 27.072 19.222 C 26.808 19.486 26.379 19.486 26.115 19.222 L 24.531 17.638 Z " fill="rgb(0,181,148)"/><path d=" M 24.531 16.681 C 24.795 16.417 25.224 16.417 25.488 16.681 C 25.752 16.945 25.752 17.374 25.488 17.638 L 23.937 19.222 C 23.673 19.486 23.244 19.486 22.98 19.222 C 22.716 18.958 22.716 18.529 22.98 18.265 L 24.531 16.681 Z " fill="rgb(0,181,148)"/></g></g></g></svg>