<?xml version="1.0" encoding="UTF-8" standalone="no"?><!-- Generator: Gravit.io --><svg xmlns="http://www.w3.org/2000/svg" xmlns:xlink="http://www.w3.org/1999/xlink" style="isolation:isolate" viewBox="0 0 1068.583 520" width="1068.583pt" height="520pt"><defs><clipPath id="_clipPath_7w8deqPrrhAxFgkv4av3KUw8LSNjy4IL"><rect width="1068.583" height="520"/></clipPath></defs><g clip-path="url(#_clipPath_7w8deqPrrhAxFgkv4av3KUw8LSNjy4IL)"><g opacity="0.3"><rect x="575.379" y="30" width="496.364" height="336.19" transform="matrix(-1,0,0,-1,1647.121,396.19)" fill="rgb(63,61,86)"/></g><rect x="893.087" y="60.803" width="146.973" height="160.174" transform="matrix(1,0,0,1,0,0)" fill="rgb(242,242,242)"/><rect x="660.746" y="60.803" width="141.692" height="9.681" transform="matrix(-1,0,0,-1,1463.185,131.286)" fill="rgb(242,242,242)"/><rect x="893.087" y="245.619" width="50.164" height="9.681" transform="matrix(-1,0,0,-1,1836.337,500.919)" fill="rgb(242,242,242)"/><rect x="894.847" y="263.221" width="143.453" height="9.681" transform="matrix(-1,0,0,-1,1933.146,536.122)" fill="rgb(242,242,242)"/><rect x="631.704" y="96.006" width="204.178" height="9.681" transform="matrix(-1,0,0,-1,1467.585,201.692)" fill="rgb(242,242,242)"/><rect x="631.704" y="123.288" width="204.178" height="9.681" transform="matrix(-1,0,0,-1,1467.585,256.257)" fill="rgb(242,242,242)"/><rect x="631.704" y="150.571" width="204.178" height="9.681" transform="matrix(-1,0,0,-1,1467.585,310.822)" fill="rgb(242,242,242)"/><rect x="631.704" y="177.853" width="204.178" height="9.681" transform="matrix(-1,0,0,-1,1467.585,365.387)" fill="rgb(242,242,242)"/><rect x="631.704" y="205.135" width="204.178" height="9.681" transform="matrix(-1,0,0,-1,1467.585,419.952)" fill="rgb(242,242,242)"/><rect x="631.704" y="232.418" width="204.178" height="9.681" transform="matrix(-1,0,0,-1,1467.585,474.516)" fill="rgb(242,242,242)"/><rect x="631.704" y="259.7" width="204.178" height="9.681" transform="matrix(-1,0,0,-1,1467.585,529.081)" fill="rgb(242,242,242)"/><path d=" M 915.159 152.265 C 917.334 150.717 919.734 149.514 922.275 148.696 C 938.388 142.701 955.272 139.026 972.419 137.781 C 987.329 136.724 1003.489 137.979 1015.135 147.35 C 1016.946 148.679 1018.428 150.406 1019.467 152.398 C 1020.933 155.56 1020.489 159.235 1020.014 162.687 C 1019.908 164.026 1019.57 165.336 1019.017 166.56 C 1017.449 169.544 1013.591 170.589 1010.24 170.231 C 1006.889 169.874 1003.744 168.456 1000.439 167.798 C 998.393 167.442 996.324 167.231 994.248 167.168 L 973.517 166.045 C 960.625 165.347 947.564 164.661 934.918 167.263 C 931.025 167.963 927.264 169.259 923.766 171.106 C 920.878 172.727 918.933 175.054 916.253 172.059 C 911.545 166.797 908.939 157.126 915.159 152.265 Z " fill="rgb(47,46,65)"/><path d=" M 947.284 161.433 C 947.284 161.433 975.169 148.933 985.746 163.356 C 985.746 163.356 979.976 172.01 979.976 172.01 L 961.707 177.779 L 941.515 173.933 L 947.284 161.433 Z " fill="rgb(242,242,242)"/><path d=" M 948.726 152.298 C 948.726 152.298 952.572 170.568 949.688 175.375 C 949.688 175.375 966.034 186.914 966.034 186.914 L 984.303 179.222 C 984.303 179.222 979.496 149.414 984.303 143.645 L 948.726 152.298 Z " fill="rgb(255,185,185)"/><g opacity="0.1"><path d=" M 948.726 152.298 C 948.726 152.298 952.572 170.568 949.688 175.375 C 949.688 175.375 966.034 186.914 966.034 186.914 L 984.303 179.222 C 984.303 179.222 979.496 149.414 984.303 143.645 L 948.726 152.298 Z " fill="rgb(0,0,0)"/></g><path d=" M 992.957 134.029 C 992.944 149.955 980.037 162.862 964.111 162.875 C 962.392 162.878 960.677 162.724 958.986 162.414 C 943.965 159.701 933.658 145.756 935.472 130.6 C 937.286 115.444 950.593 104.325 965.83 105.234 C 981.067 106.143 992.958 118.765 992.957 134.029 L 992.957 134.029 Z " fill="rgb(255,185,185)"/><path d=" M 1010.374 221.857 L 918.38 221.857 L 920.466 212.801 L 929.495 173.453 L 939.933 166.403 L 939.942 166.394 L 944.844 163.076 L 947.282 161.431 C 947.282 161.431 948.725 162.091 950.388 162.988 C 950.872 163.261 951.365 163.543 951.858 163.842 C 951.867 163.833 951.867 163.842 951.867 163.842 C 952.665 164.306 953.424 164.832 954.137 165.418 C 954.269 165.541 954.384 165.646 954.498 165.761 C 956.329 167.591 961.671 177.307 970.507 172.335 C 970.953 172.09 971.385 171.819 971.801 171.525 C 974.104 169.931 976.3 168.188 978.375 166.306 C 980.232 164.608 981.438 163.297 982.423 162.39 C 982.865 161.949 983.369 161.576 983.919 161.281 C 984.334 161.063 984.797 160.951 985.266 160.956 C 988.153 160.956 991.998 166.72 991.998 166.72 L 992.113 167.054 L 992.122 167.081 L 1004.258 203.516 L 1010.374 221.857 Z " fill="rgb(242,242,242)"/><path d=" M 918.38 221.857 L 946.261 221.857 C 946.323 218.634 946.155 215.41 945.759 212.211 C 944.905 205.778 942.811 199.582 941.491 193.228 C 940.329 187.66 939.766 181.983 939.81 176.295 C 939.819 175.512 939.836 174.72 939.907 173.928 C 939.976 172.114 940.499 170.347 941.429 168.788 C 942.089 167.776 942.996 166.914 943.7 165.946 C 943.945 165.629 944.16 165.29 944.342 164.934 L 944.342 164.925 C 944.43 164.75 944.51 164.571 944.58 164.388 C 944.735 163.967 944.824 163.525 944.844 163.077 C 945.002 160.172 942.371 157.374 939.528 156.177 C 935.538 154.679 931.173 154.503 927.075 155.675 C 923.014 156.849 919.09 158.454 915.37 160.463 C 914.112 161.079 912.862 161.712 911.656 162.417 C 910.216 163.233 908.893 164.239 907.722 165.409 C 904.73 168.498 903.419 172.801 902.363 176.964 C 901.355 180.146 901.011 183.501 901.35 186.821 C 901.359 186.927 901.386 187.041 901.403 187.147 C 902.451 192.63 906.921 196.748 909.306 201.8 C 912.07 207.661 911.885 214.491 910.785 220.88 C 910.732 221.206 910.67 221.531 910.609 221.857 L 918.38 221.857 L 918.38 221.857 Z " fill="rgb(47,46,65)"/><path d=" M 1031.875 186.645 C 1028.376 198.153 1025.835 209.93 1024.28 221.857 L 984.535 221.857 Q 982.978 217.606 981.429 213.346 C 980.604 211.204 979.896 209.018 979.308 206.799 C 978.678 204.219 978.38 201.569 978.419 198.913 C 978.419 198.28 978.445 197.637 978.498 197.003 C 978.507 196.993 978.507 196.978 978.498 196.968 C 978.739 193.619 979.515 190.33 980.795 187.226 C 981.383 185.815 982.059 184.442 982.819 183.116 C 984.667 179.771 986.903 176.621 988.892 173.347 C 990.131 171.346 991.211 169.251 992.122 167.081 C 992.12 167.071 992.124 167.061 992.13 167.054 C 993.318 164.287 993.937 161.309 993.952 158.298 C 993.891 154.417 987.325 147.649 994.463 148.3 C 1004.205 149.18 1012.575 154.786 1020.205 161.176 C 1022.238 162.883 1024.227 164.652 1026.172 166.394 C 1029.182 169.105 1032.359 172.062 1033.265 176.014 C 1033.411 176.644 1033.496 177.286 1033.52 177.932 C 1033.468 180.909 1032.912 183.855 1031.875 186.645 L 1031.875 186.645 Z " fill="rgb(47,46,65)"/><path d=" M 972.304 176.031 C 971.303 173.328 969.769 170.853 967.792 168.755 C 965.798 167.07 963.437 165.874 960.899 165.263 C 957.609 164.323 954.208 163.836 950.787 163.814 C 946.715 163.788 941.993 164.881 940.264 168.568 C 938.89 171.495 939.955 174.962 941.338 177.886 C 941.928 179.4 942.912 180.729 944.188 181.736 C 945.944 182.923 948.215 182.885 950.297 183.283 C 953.525 184.102 956.582 185.487 959.326 187.374 L 966.459 191.685 L 978.71 199.091 C 978.387 198.896 978.502 190.494 978.125 189.117 C 976.913 184.682 974.185 180.231 972.304 176.031 Z " fill="rgb(255,185,185)"/><path d=" M 992.231 118.996 C 991.718 117.271 990.588 115.796 989.056 114.851 C 989.135 113.003 988.908 111.155 988.385 109.381 C 986.638 104.216 982.5 104.512 978.595 102.229 C 976.901 101.239 977.006 100.363 976.124 98.736 C 974.968 96.603 973.238 94.837 971.128 93.639 C 968.623 92.043 965.979 90.399 963.015 90.197 C 956.788 89.772 952.013 95.63 946.06 97.51 C 943.436 98.339 940.617 98.373 937.98 99.156 C 935.342 99.94 932.711 101.81 932.318 104.533 C 932.136 105.79 932.456 107.08 932.272 108.337 C 931.906 110.835 929.715 112.585 928.248 114.639 C 925.003 119.183 925.374 125.602 927.969 130.545 C 928.516 131.568 929.141 132.547 929.84 133.473 C 930.056 135.81 930.727 138.081 931.815 140.161 C 934.409 145.104 938.874 148.798 943.538 151.868 C 943.156 150.228 942.924 148.557 942.846 146.875 C 942.78 146.315 942.853 145.747 943.058 145.221 C 943.578 144.136 944.95 143.847 945.997 143.252 C 948.164 142.021 949.014 139.295 949.076 136.803 C 949.139 134.311 948.611 131.815 948.872 129.336 C 948.893 128.183 949.4 127.093 950.269 126.334 C 951.069 125.878 951.982 125.66 952.902 125.707 C 957.343 125.525 961.983 125.444 965.9 123.344 C 967.163 122.505 968.521 121.818 969.945 121.297 C 973.274 120.429 976.676 122.762 978.594 125.618 C 980.513 128.474 981.469 131.872 983.239 134.821 C 985.009 137.771 988.067 140.402 991.49 140.052 C 991.879 140.053 992.251 139.888 992.512 139.598 C 992.659 139.333 992.725 139.03 992.7 138.727 L 992.891 125.645 C 993.05 123.408 992.827 121.159 992.231 118.996 Z " fill="rgb(47,46,65)"/><path d=" M 916.153 206.359 Q 917.091 214.081 917.289 221.857 L 893.087 221.857 L 893.087 201.518 C 893.21 201.025 893.342 200.541 893.5 200.057 C 895.014 195.393 898.191 191.485 900.946 187.428 C 901.078 187.226 901.218 187.023 901.35 186.821 C 902.522 185.109 903.53 183.291 904.36 181.391 C 904.756 180.458 905.39 175.943 906.059 175.556 C 908.928 173.893 911.26 181.004 911.656 182.588 C 913.064 188.229 914.288 193.923 915.212 199.67 Q 915.753 203.01 916.153 206.359 Z " fill="rgb(47,46,65)"/><path d=" M 1038.458 221.857 L 982.898 221.857 C 982.423 220.739 981.957 219.621 981.464 218.513 C 977.999 210.676 973.519 203.329 968.14 196.66 C 967.252 195.779 966.675 194.633 966.494 193.395 C 966.475 192.881 966.6 192.372 966.855 191.925 C 967.7 190.35 969.935 189.426 971.748 188.678 C 973.622 187.923 975.345 186.838 976.835 185.474 C 978.152 184.289 979.161 182.799 979.774 181.136 C 979.938 180.648 980.061 180.147 980.144 179.64 C 980.399 179.974 980.663 180.317 980.918 180.652 C 981.543 181.479 982.177 182.297 982.819 183.116 C 988.98 191.028 995.748 198.825 1004.258 203.516 C 1006.481 204.755 1008.829 205.755 1011.263 206.5 C 1011.734 206.706 1012.271 206.706 1012.742 206.5 C 1013.101 206.205 1013.331 205.782 1013.384 205.32 C 1014.141 202.152 1014.405 198.887 1014.96 195.675 C 1015.978 189.83 1017.937 184.189 1020.759 178.971 C 1022.335 176.04 1027.457 165.33 1030.704 172.08 Q 1032.103 174.997 1033.521 177.932 C 1034.11 179.173 1034.709 180.405 1035.307 181.646 C 1037.516 185.583 1038.522 190.081 1038.202 194.583 Q 1038.334 208.233 1038.458 221.857 Z " fill="rgb(47,46,65)"/><g opacity="0.1"><path d=" M 918.38 221.857 L 923.194 221.857 L 920.466 212.801 L 916.532 199.749 C 916.577 201.959 916.451 204.169 916.153 206.359 C 915.559 210.885 914.265 215.291 912.316 219.419 C 911.938 220.22 911.533 221.03 911.207 221.857 L 918.38 221.857 Z " fill="rgb(0,0,0)"/></g><g opacity="0.1"><path d=" M 1016.438 194.026 C 1015.761 195.849 1016.376 197.865 1016.899 199.738 C 1018.413 205.172 1019.119 210.799 1018.996 216.439 C 1019.041 216.639 1018.981 216.849 1018.838 216.996 C 1018.695 217.143 1018.487 217.207 1018.285 217.168 C 1016.066 217.304 1013.525 217.318 1012.019 215.682 L 1016.438 194.026 Z " fill="rgb(0,0,0)"/></g><g opacity="0.3"><rect x="0" y="33.46" width="496.364" height="336.19" transform="matrix(1,0,0,1,0,0)" fill="rgb(63,61,86)"/></g><rect x="31.683" y="64.263" width="146.973" height="160.174" transform="matrix(1,0,0,1,0,0)" fill="rgb(242,242,242)"/><rect x="269.304" y="64.263" width="141.692" height="9.681" transform="matrix(1,0,0,1,0,0)" fill="rgb(242,242,242)"/><rect x="33.443" y="249.079" width="50.164" height="9.681" transform="matrix(1,0,0,1,0,0)" fill="rgb(242,242,242)"/><rect x="33.443" y="266.681" width="143.453" height="9.681" transform="matrix(1,0,0,1,0,0)" fill="rgb(242,242,242)"/><rect x="235.861" y="99.466" width="204.178" height="9.681" transform="matrix(1,0,0,1,0,0)" fill="rgb(242,242,242)"/><rect x="235.861" y="126.749" width="204.178" height="9.681" transform="matrix(1,0,0,1,0,0)" fill="rgb(242,242,242)"/><rect x="235.861" y="154.031" width="204.178" height="9.681" transform="matrix(1,0,0,1,0,0)" fill="rgb(242,242,242)"/><rect x="235.861" y="181.313" width="204.178" height="9.681" transform="matrix(1,0,0,1,0,0)" fill="rgb(242,242,242)"/><rect x="235.861" y="208.596" width="204.178" height="9.681" transform="matrix(1,0,0,1,0,0)" fill="rgb(242,242,242)"/><rect x="235.861" y="235.878" width="204.178" height="9.681" transform="matrix(1,0,0,1,0,0)" fill="rgb(242,242,242)"/><rect x="235.861" y="263.16" width="204.178" height="9.681" transform="matrix(1,0,0,1,0,0)" fill="rgb(242,242,242)"/><path d=" M 174.66 225.317 L 155.554 225.317 Q 153.349 219.39 151.637 213.313 C 150.885 208.549 148.713 204.124 145.406 200.613 C 144.397 199.488 143.498 198.268 142.722 196.97 C 141.084 193.774 140.493 190.144 141.032 186.594 C 141.142 185.606 141.307 184.624 141.525 183.654 C 142.361 179.896 143.761 176.288 144.931 172.627 C 145.436 171.11 146.761 170.014 148.346 169.802 C 149.605 169.591 150.899 169.74 152.077 170.233 C 152.338 170.339 152.588 170.469 152.825 170.62 C 154.911 171.879 155.994 174.449 156.865 176.799 Q 162.845 192.851 168.816 208.904 Q 169.978 212.019 171.14 215.152 C 172.284 218.215 173.419 221.278 174.387 224.402 C 174.484 224.71 174.572 225.009 174.66 225.317 Z " fill="rgb(208,205,225)"/><path d=" M 95.12 84.461 C 90.37 86.066 86.066 89.818 85.093 94.737 C 84.642 97.017 84.919 99.387 84.539 101.68 C 83.659 106.999 79.484 111.06 75.634 114.833 C 71.784 118.605 67.808 122.989 67.527 128.372 C 67.219 134.266 71.494 139.789 70.754 145.645 C 69.895 152.449 62.709 156.857 60.932 163.481 C 59.746 167.904 61.2 172.668 63.591 176.573 C 68.148 184.015 75.938 189.067 84.233 191.775 C 92.528 194.484 101.362 195.053 110.088 195.145 C 120.713 195.256 132.248 194.344 140.231 187.332 C 144.791 183.291 147.654 177.675 148.247 171.611 C 149.006 163.489 145.616 155.096 147.954 147.281 C 149.426 142.362 153.116 137.87 152.565 132.766 C 152.027 127.775 147.668 124.237 144.678 120.205 C 141.886 116.441 140.191 111.995 138.531 107.612 L 132.85 92.616 C 131.733 89.668 130.506 86.568 128.017 84.633 C 123.358 81.011 115.866 81.722 110.417 82.469 C 105.363 83.162 99.981 82.82 95.12 84.461 Z " fill="rgb(47,46,65)"/><path d=" M 99.515 133.883 C 99.515 133.883 100.071 150.565 98.403 152.234 C 96.735 153.902 105.076 165.024 105.076 165.024 L 120.09 164.468 L 127.875 158.351 L 121.202 149.453 C 121.202 149.453 118.422 134.995 120.646 131.659 C 122.871 128.322 99.515 133.883 99.515 133.883 Z " fill="rgb(160,97,106)"/><g opacity="0.1"><path d=" M 99.515 133.883 C 99.515 133.883 100.071 150.565 98.403 152.234 C 96.735 153.902 105.076 165.024 105.076 165.024 L 120.09 164.468 L 127.875 158.351 L 121.202 149.453 C 121.202 149.453 118.422 134.995 120.646 131.659 C 122.871 128.322 99.515 133.883 99.515 133.883 Z " fill="rgb(0,0,0)"/></g><circle vector-effect="non-scaling-stroke" cx="108.69033678895264" cy="120.25878283578484" r="20.019060803124653" fill="rgb(160,97,106)"/><path d=" M 118.951 225.317 L 135.18 225.317 C 135.787 224.217 136.359 223.073 137.019 222.034 L 137.019 222.026 C 137.741 220.77 138.755 219.707 139.976 218.928 C 140.753 218.572 141.488 218.133 142.168 217.617 C 142.819 216.911 143.279 216.05 143.505 215.117 C 144.623 211.625 145.24 207.992 145.336 204.327 C 145.362 203.095 145.336 201.846 145.406 200.613 C 145.441 199.651 145.565 198.693 145.776 197.753 C 146.333 195.842 147.141 194.013 148.179 192.314 Q 151.479 186.308 154.797 180.301 C 155.196 179.173 155.349 177.973 155.246 176.781 C 155.198 175.173 154.704 173.61 153.82 172.266 C 153.512 171.712 153.177 171.157 152.825 170.62 C 151.468 168.454 149.887 166.437 148.108 164.601 C 144.335 160.643 139.755 157.543 134.678 155.509 C 134.041 155.295 133.435 154.999 132.874 154.629 C 132.212 154.07 131.652 153.4 131.22 152.649 C 129.459 150 127.312 147.017 124.135 147.184 C 123.09 146.66 121.879 146.577 120.773 146.955 C 120.606 146.999 120.441 147.052 120.28 147.114 C 119.066 147.651 117.887 148.265 116.751 148.953 C 113.828 150.47 110.516 151.071 107.246 150.678 C 106.863 150.651 106.487 150.556 106.137 150.396 C 105.766 150.161 105.424 149.883 105.116 149.569 C 103.481 148.23 101.253 147.874 99.282 148.636 C 98.372 148.96 97.569 149.526 96.958 150.273 C 96.377 151.003 95.972 151.884 95.33 152.57 C 93.667 154.348 90.921 154.418 88.492 154.409 C 83.447 154.268 78.403 154.732 73.469 155.791 C 69.135 156.753 65.085 158.711 61.641 161.512 L 61.632 161.52 C 61.157 161.925 60.717 162.339 60.276 162.779 C 59.275 163.722 58.479 164.86 57.935 166.123 C 57.267 167.848 57.355 169.793 56.747 171.544 C 56.078 173.507 54.591 175.109 53.993 177.08 C 53.535 178.576 53.597 180.231 52.84 181.586 C 52.875 181.613 52.901 181.639 52.937 181.665 C 56.14 184.482 58.877 188.178 62.089 190.968 C 63.954 192.388 65.531 194.15 66.736 196.16 C 66.968 196.612 67.16 197.083 67.308 197.568 C 67.67 199.251 67.829 200.97 67.784 202.69 C 68.188 210.919 72.65 218.382 77.64 224.93 C 77.737 225.062 77.834 225.194 77.94 225.317 L 118.951 225.317 Z " fill="rgb(208,205,225)"/><path d=" M 66.736 196.16 Q 65.601 204.041 64.448 211.914 C 64.099 214.724 63.575 217.511 62.882 220.257 C 62.424 221.955 61.834 223.619 61.421 225.317 L 38.503 225.317 C 38.515 224.366 38.589 223.416 38.723 222.475 C 39.314 219.091 40.273 215.783 41.584 212.609 Q 45.584 201.81 49.575 190.994 C 50.71 187.923 51.687 184.71 52.937 181.665 C 53.157 181.102 53.394 180.539 53.65 179.993 C 54.978 177.071 58.666 178.268 61.394 178.708 C 62.143 178.801 62.873 179.009 63.559 179.324 C 64.388 179.781 65.088 180.441 65.592 181.243 C 68.18 185.071 67.616 190.132 66.948 194.708 Q 66.842 195.434 66.736 196.16 Z " fill="rgb(208,205,225)"/><path d=" M 137.019 222.035 C 137.054 222.158 137.433 223.469 138.058 225.317 L 118.951 225.317 C 128.421 223.689 137.019 222.026 137.019 222.026 L 137.019 222.035 Z " fill="rgb(47,46,65)"/><ellipse vector-effect="non-scaling-stroke" cx="110.35859381516971" cy="108.58099540800544" rx="21.687317829341673" ry="11.677787427779336" fill="rgb(47,46,65)"/><rect x="317.98" y="157.223" width="496.364" height="336.19" transform="matrix(1,0,0,1,0,0)" fill="rgb(63,61,86)"/><g opacity="0.1"><ellipse vector-effect="non-scaling-stroke" cx="742.1772564226434" cy="464.37019842750885" rx="58.08511004536854" ry="6.160536630990748" fill="rgb(0,0,0)"/></g><rect x="349.663" y="188.026" width="146.973" height="160.174" transform="matrix(1,0,0,1,0,0)" fill="rgb(242,242,242)"/><path d=" M 396.989 261.567 C 397.974 261.866 399.032 261.429 399.518 260.522 C 401.551 257.319 397.808 253.19 398.619 249.484 C 399.268 246.515 402.642 244.753 403.332 241.793 C 404.002 238.917 401.937 235.675 403.332 233.073 C 404.426 231.034 407.158 230.498 409.444 230.855 C 411.729 231.212 413.899 232.217 416.208 232.358 C 419.285 232.545 422.219 231.191 425.227 230.519 C 428.236 229.848 431.906 230.111 433.676 232.635 C 435.949 235.876 433.644 240.389 434.435 244.267 C 435.064 247.347 437.642 249.897 437.697 253.04 C 437.717 254.157 434.78 253.257 434.936 254.363 C 435.093 255.469 433.705 254.495 434.814 254.364 C 435.744 254.136 436.419 253.333 436.484 252.378 C 436.616 251.457 438.347 251.15 438.327 250.219 C 438.28 248.038 442.223 249.509 442.873 247.426 C 444.366 242.571 444.06 237.341 442.01 232.694 C 440.953 230.795 440.11 228.786 439.494 226.703 C 438.915 223.811 439.827 220.707 438.871 217.916 C 437.584 214.156 433.323 212.24 429.368 211.85 C 425.413 211.461 421.394 212.158 417.461 211.584 C 413.938 211.07 410.527 209.543 406.974 209.764 C 402.71 210.029 399 212.777 396.044 215.861 C 393.088 218.946 390.581 222.494 387.224 225.136 C 386.197 225.843 385.248 226.66 384.396 227.571 C 382.687 229.654 382.513 232.622 382.989 235.275 C 383.464 237.928 384.499 240.459 384.936 243.118 C 385.347 245.617 385.22 248.171 385.397 250.698 C 385.438 253.246 386.21 255.729 387.62 257.852 C 388.855 259.528 390.793 260.541 392.874 260.597 C 393.586 260.614 394.187 259.974 394.905 260.141 C 395.802 260.349 396.193 261.202 396.989 261.567 Z " fill="rgb(47,46,65)"/><path d=" M 364.668 349.08 C 365.311 340.27 365.795 333.688 365.795 333.688 L 369.949 322.739 L 383.282 349.08 L 364.668 349.08 Z " fill="rgb(87,90,137)"/><g opacity="0.1"><path d=" M 364.668 349.08 C 365.311 340.27 365.795 333.688 365.795 333.688 L 369.949 322.739 L 383.282 349.08 L 364.668 349.08 Z " fill="rgb(0,0,0)"/></g><path d=" M 395.567 262.463 C 395.567 262.463 407.999 294.11 400.841 300.138 C 400.841 300.138 440.776 289.965 440.776 289.965 L 439.646 285.821 C 439.646 285.821 424.199 279.793 431.734 262.463 C 439.269 245.133 395.567 262.463 395.567 262.463 Z " fill="rgb(160,97,106)"/><g opacity="0.1"><path d=" M 395.567 262.463 C 395.567 262.463 407.999 294.11 400.841 300.138 C 400.841 300.138 440.776 289.965 440.776 289.965 L 439.646 285.821 C 439.646 285.821 424.199 279.793 431.734 262.463 C 439.269 245.133 395.567 262.463 395.567 262.463 Z " fill="rgb(0,0,0)"/></g><circle vector-effect="non-scaling-stroke" cx="413.27368881017895" cy="248.90039683253303" r="26.37205064936586" fill="rgb(160,97,106)"/><path d=" M 477.318 305.789 C 477.318 305.789 477.212 307.884 477.028 311.545 C 476.649 318.999 475.971 332.966 475.294 349.08 L 373.064 349.08 C 370.393 345.502 368.206 341.587 366.56 337.437 C 366.115 336.233 365.857 334.969 365.795 333.688 C 365.231 323.699 374.182 309.758 380.501 308.429 C 387.656 306.916 401.218 292.605 401.218 292.605 C 401.306 293.713 401.958 294.697 402.943 295.211 L 402.943 295.219 C 404.036 295.784 405.26 296.052 406.489 295.994 C 410.907 295.994 430.339 287.026 436.579 284.095 C 437.802 283.523 438.515 283.18 438.515 283.18 C 445.711 286.286 453.146 288.808 460.746 290.722 C 468.449 292.644 474.674 298.303 477.318 305.789 Z " fill="rgb(87,90,137)"/><path d=" M 392.469 258.93 C 393.453 259.229 394.511 258.792 394.997 257.885 C 397.03 254.682 393.287 250.552 394.098 246.846 C 394.747 243.877 398.121 242.115 398.811 239.155 C 399.481 236.28 397.416 233.038 398.812 230.436 C 399.905 228.397 402.637 227.86 404.923 228.218 C 407.208 228.575 409.378 229.58 411.687 229.72 C 414.764 229.908 417.698 228.553 420.706 227.882 C 423.715 227.211 427.385 227.474 429.156 229.998 C 431.428 233.239 429.123 237.752 429.914 241.63 C 430.543 244.71 437.702 246.871 438.352 244.789 C 439.845 239.934 439.539 234.704 437.489 230.057 C 436.432 228.158 435.589 226.149 434.973 224.065 C 434.394 221.174 435.306 218.069 434.35 215.279 C 433.063 211.519 428.803 209.602 424.847 209.213 C 420.892 208.824 416.873 209.521 412.94 208.947 C 409.417 208.432 406.006 206.906 402.453 207.127 C 398.189 207.392 394.479 210.139 391.523 213.224 C 388.567 216.309 386.06 219.857 382.703 222.499 C 381.676 223.206 380.727 224.023 379.875 224.934 C 378.166 227.017 377.992 229.985 378.468 232.638 C 378.943 235.291 379.978 237.821 380.415 240.481 C 380.826 242.98 380.699 245.534 380.876 248.06 C 380.918 250.609 381.689 253.092 383.099 255.215 C 384.334 256.891 386.273 257.904 388.353 257.96 C 389.065 257.976 389.666 257.337 390.384 257.504 C 391.282 257.712 391.672 258.565 392.469 258.93 Z " fill="rgb(47,46,65)"/><g opacity="0.1"><path d=" M 490.387 349.08 L 460.552 349.08 C 458.282 332.429 456.407 315.021 456.407 315.021 L 462.436 312.381 L 474.687 305.789 C 474.687 305.789 475.584 307.919 477.028 311.545 C 480.108 319.298 485.696 333.89 490.387 349.08 Z " fill="rgb(0,0,0)"/></g><path d=" M 493.019 349.08 L 459.347 349.08 C 454.357 330.862 449.437 311.061 449.437 311.061 L 462.251 301.644 L 477.318 305.789 C 477.318 305.789 486.136 326.779 493.019 349.08 Z " fill="rgb(87,90,137)"/><rect x="587.284" y="188.026" width="141.692" height="9.681" transform="matrix(1,0,0,1,0,0)" fill="rgb(108,99,255)"/><rect x="351.423" y="372.842" width="50.164" height="9.681" transform="matrix(1,0,0,1,0,0)" fill="rgb(108,99,255)"/><rect x="351.423" y="390.444" width="143.453" height="9.681" transform="matrix(1,0,0,1,0,0)" fill="rgb(108,99,255)"/><rect x="553.841" y="223.229" width="204.178" height="9.681" transform="matrix(1,0,0,1,0,0)" fill="rgb(242,242,242)"/><rect x="553.841" y="250.511" width="204.178" height="9.681" transform="matrix(1,0,0,1,0,0)" fill="rgb(242,242,242)"/><rect x="553.841" y="277.794" width="204.178" height="9.681" transform="matrix(1,0,0,1,0,0)" fill="rgb(242,242,242)"/><rect x="553.841" y="305.076" width="204.178" height="9.681" transform="matrix(1,0,0,1,0,0)" fill="rgb(242,242,242)"/><rect x="553.841" y="332.359" width="204.178" height="9.681" transform="matrix(1,0,0,1,0,0)" fill="rgb(242,242,242)"/><rect x="553.841" y="359.641" width="204.178" height="9.681" transform="matrix(1,0,0,1,0,0)" fill="rgb(242,242,242)"/><rect x="553.841" y="386.923" width="204.178" height="9.681" transform="matrix(1,0,0,1,0,0)" fill="rgb(242,242,242)"/><path d=" M 797.374 388.231 L 741.559 444.046 L 718.1 420.586 C 716.597 419.082 714.557 418.238 712.43 418.238 C 710.303 418.238 708.264 419.082 706.76 420.586 L 705.917 419.326 C 702.785 422.458 703.628 428.796 706.76 431.927 L 737.197 462.365 C 739.586 464.753 743.458 464.754 745.848 462.367 L 808.709 399.572 C 811.842 396.442 812.979 390.701 809.847 387.569 L 809.847 387.569 C 806.716 384.439 800.504 385.1 797.374 388.231 Z " fill="rgb(87,184,148)"/><g opacity="0.1"><path d=" M 797.374 388.231 L 741.559 444.046 L 718.1 420.586 C 716.597 419.082 714.557 418.238 712.43 418.238 C 710.303 418.238 708.264 419.082 706.76 420.586 L 705.917 419.326 C 702.785 422.458 703.628 428.796 706.76 431.927 L 737.197 462.365 C 739.586 464.753 743.458 464.754 745.848 462.367 L 808.709 399.572 C 811.842 396.442 812.979 390.701 809.847 387.569 L 809.847 387.569 C 806.716 384.439 800.504 385.1 797.374 388.231 Z " fill="rgb(0,0,0)"/></g><path d=" M 797.374 385.757 L 741.559 441.571 L 718.1 418.112 C 716.597 416.608 714.557 415.763 712.43 415.763 C 710.303 415.763 708.264 416.608 706.76 418.112 L 706.76 418.112 C 705.256 419.616 704.411 421.655 704.411 423.782 C 704.411 425.909 705.256 427.949 706.76 429.453 L 737.197 459.89 C 739.586 462.279 743.458 462.28 745.848 459.893 L 808.709 397.098 C 810.214 395.595 811.059 393.555 811.06 391.428 C 811.06 389.301 810.216 387.261 808.712 385.757 L 808.712 385.757 C 805.581 382.626 800.505 382.626 797.374 385.757 L 797.374 385.757 Z " fill="rgb(87,184,148)"/></g></svg>